<?xml version="1.0" encoding="UTF-8" standalone="no"?>
<!DOCTYPE svg PUBLIC "-//W3C//DTD SVG 1.1//EN"
 "http://www.w3.org/Graphics/SVG/1.1/DTD/svg11.dtd">
<!-- Generated by graphviz version 2.40.1 (20161225.0304)
 -->
<!-- Title: snakemake_dag Pages: 1 -->
<svg width="279pt" height="1196pt"
 viewBox="0.00 0.00 278.50 1196.00" xmlns="http://www.w3.org/2000/svg" xmlns:xlink="http://www.w3.org/1999/xlink">
<g id="graph0" class="graph" transform="scale(1 1) rotate(0) translate(4 1192)">
<title>snakemake_dag</title>
<polygon fill="#ffffff" stroke="transparent" points="-4,4 -4,-1192 274.5,-1192 274.5,4 -4,4"/>
<!-- 0 -->
<g id="node1" class="node">
<title>0</title>
<path fill="none" stroke="#d85656" stroke-width="2" d="M144,-36C144,-36 103,-36 103,-36 97,-36 91,-30 91,-24 91,-24 91,-12 91,-12 91,-6 97,0 103,0 103,0 144,0 144,0 150,0 156,-6 156,-12 156,-12 156,-24 156,-24 156,-30 150,-36 144,-36"/>
<text text-anchor="middle" x="123.5" y="-15.5" font-family="sans" font-size="10.00" fill="#000000">fsc_target</text>
</g>
<!-- 1 -->
<g id="node2" class="node">
<title>1</title>
<path fill="none" stroke="#d86656" stroke-width="2" d="M153,-108C153,-108 94,-108 94,-108 88,-108 82,-102 82,-96 82,-96 82,-84 82,-84 82,-78 88,-72 94,-72 94,-72 153,-72 153,-72 159,-72 165,-78 165,-84 165,-84 165,-96 165,-96 165,-102 159,-108 153,-108"/>
<text text-anchor="middle" x="123.5" y="-87.5" font-family="sans" font-size="10.00" fill="#000000">find_best_run</text>
</g>
<!-- 1&#45;&gt;0 -->
<g id="edge1" class="edge">
<title>1&#45;&gt;0</title>
<path fill="none" stroke="#c0c0c0" stroke-width="2" d="M123.5,-71.8314C123.5,-64.131 123.5,-54.9743 123.5,-46.4166"/>
<polygon fill="#c0c0c0" stroke="#c0c0c0" stroke-width="2" points="127.0001,-46.4132 123.5,-36.4133 120.0001,-46.4133 127.0001,-46.4132"/>
</g>
<!-- 2 -->
<g id="node3" class="node">
<title>2</title>
<path fill="none" stroke="#d8bc56" stroke-width="2" d="M138.5,-180C138.5,-180 108.5,-180 108.5,-180 102.5,-180 96.5,-174 96.5,-168 96.5,-168 96.5,-156 96.5,-156 96.5,-150 102.5,-144 108.5,-144 108.5,-144 138.5,-144 138.5,-144 144.5,-144 150.5,-150 150.5,-156 150.5,-156 150.5,-168 150.5,-168 150.5,-174 144.5,-180 138.5,-180"/>
<text text-anchor="middle" x="123.5" y="-159.5" font-family="sans" font-size="10.00" fill="#000000">fsc</text>
</g>
<!-- 2&#45;&gt;1 -->
<g id="edge2" class="edge">
<title>2&#45;&gt;1</title>
<path fill="none" stroke="#c0c0c0" stroke-width="2" d="M123.5,-143.8314C123.5,-136.131 123.5,-126.9743 123.5,-118.4166"/>
<polygon fill="#c0c0c0" stroke="#c0c0c0" stroke-width="2" points="127.0001,-118.4132 123.5,-108.4133 120.0001,-118.4133 127.0001,-118.4132"/>
</g>
<!-- 3 -->
<g id="node4" class="node">
<title>3</title>
<path fill="none" stroke="#56d8d8" stroke-width="2" d="M151.5,-252C151.5,-252 95.5,-252 95.5,-252 89.5,-252 83.5,-246 83.5,-240 83.5,-240 83.5,-228 83.5,-228 83.5,-222 89.5,-216 95.5,-216 95.5,-216 151.5,-216 151.5,-216 157.5,-216 163.5,-222 163.5,-228 163.5,-228 163.5,-240 163.5,-240 163.5,-246 157.5,-252 151.5,-252"/>
<text text-anchor="middle" x="123.5" y="-231.5" font-family="sans" font-size="10.00" fill="#000000">generate_sfs</text>
</g>
<!-- 3&#45;&gt;2 -->
<g id="edge3" class="edge">
<title>3&#45;&gt;2</title>
<path fill="none" stroke="#c0c0c0" stroke-width="2" d="M123.5,-215.8314C123.5,-208.131 123.5,-198.9743 123.5,-190.4166"/>
<polygon fill="#c0c0c0" stroke="#c0c0c0" stroke-width="2" points="127.0001,-190.4132 123.5,-180.4133 120.0001,-190.4133 127.0001,-190.4132"/>
</g>
<!-- 4 -->
<g id="node5" class="node">
<title>4</title>
<path fill="none" stroke="#56d85b" stroke-width="2" d="M185,-468C185,-468 144,-468 144,-468 138,-468 132,-462 132,-456 132,-456 132,-444 132,-444 132,-438 138,-432 144,-432 144,-432 185,-432 185,-432 191,-432 197,-438 197,-444 197,-444 197,-456 197,-456 197,-462 191,-468 185,-468"/>
<text text-anchor="middle" x="164.5" y="-447.5" font-family="sans" font-size="10.00" fill="#000000">prune_vcf</text>
</g>
<!-- 4&#45;&gt;3 -->
<g id="edge5" class="edge">
<title>4&#45;&gt;3</title>
<path fill="none" stroke="#c0c0c0" stroke-width="2" d="M174.5235,-431.6094C179.4981,-421.4366 184.9733,-408.3803 187.5,-396 197.1678,-348.63 196.2977,-331.1537 174.5,-288 169.2029,-277.5131 161.2165,-267.651 153.1259,-259.2972"/>
<polygon fill="#c0c0c0" stroke="#c0c0c0" stroke-width="2" points="155.3373,-256.5643 145.7407,-252.0747 150.443,-261.5689 155.3373,-256.5643"/>
</g>
<!-- 12 -->
<g id="node13" class="node">
<title>12</title>
<path fill="none" stroke="#c6d856" stroke-width="2" d="M166.5,-396C166.5,-396 80.5,-396 80.5,-396 74.5,-396 68.5,-390 68.5,-384 68.5,-384 68.5,-372 68.5,-372 68.5,-366 74.5,-360 80.5,-360 80.5,-360 166.5,-360 166.5,-360 172.5,-360 178.5,-366 178.5,-372 178.5,-372 178.5,-384 178.5,-384 178.5,-390 172.5,-396 166.5,-396"/>
<text text-anchor="middle" x="123.5" y="-375.5" font-family="sans" font-size="10.00" fill="#000000">preview_projection</text>
</g>
<!-- 4&#45;&gt;12 -->
<g id="edge21" class="edge">
<title>4&#45;&gt;12</title>
<path fill="none" stroke="#c0c0c0" stroke-width="2" d="M154.154,-431.8314C149.5763,-423.7925 144.0948,-414.1666 139.0412,-405.2918"/>
<polygon fill="#c0c0c0" stroke="#c0c0c0" stroke-width="2" points="141.9752,-403.3712 133.9853,-396.4133 135.8923,-406.8351 141.9752,-403.3712"/>
</g>
<!-- 5 -->
<g id="node6" class="node">
<title>5</title>
<path fill="none" stroke="#97d856" stroke-width="2" d="M95,-684C95,-684 12,-684 12,-684 6,-684 0,-678 0,-672 0,-672 0,-660 0,-660 0,-654 6,-648 12,-648 12,-648 95,-648 95,-648 101,-648 107,-654 107,-660 107,-660 107,-672 107,-672 107,-678 101,-684 95,-684"/>
<text text-anchor="middle" x="53.5" y="-663.5" font-family="sans" font-size="10.00" fill="#000000">generate_whitelist</text>
</g>
<!-- 5&#45;&gt;3 -->
<g id="edge4" class="edge">
<title>5&#45;&gt;3</title>
<path fill="none" stroke="#c0c0c0" stroke-width="2" d="M50.8064,-647.862C46.9986,-620.6061 40.5,-567.434 40.5,-522 40.5,-522 40.5,-522 40.5,-378 40.5,-335.3959 51.2604,-324.3389 73.5,-288 79.6276,-277.9877 87.7969,-268.2068 95.7533,-259.7807"/>
<polygon fill="#c0c0c0" stroke="#c0c0c0" stroke-width="2" points="98.4335,-262.0464 102.9356,-252.4557 93.4353,-257.1456 98.4335,-262.0464"/>
</g>
<!-- 7 -->
<g id="node8" class="node">
<title>7</title>
<path fill="none" stroke="#56d88a" stroke-width="2" d="M240.5,-612C240.5,-612 142.5,-612 142.5,-612 136.5,-612 130.5,-606 130.5,-600 130.5,-600 130.5,-588 130.5,-588 130.5,-582 136.5,-576 142.5,-576 142.5,-576 240.5,-576 240.5,-576 246.5,-576 252.5,-582 252.5,-588 252.5,-588 252.5,-600 252.5,-600 252.5,-606 246.5,-612 240.5,-612"/>
<text text-anchor="middle" x="191.5" y="-591.5" font-family="sans" font-size="10.00" fill="#000000">filter_populations_vcf</text>
</g>
<!-- 5&#45;&gt;7 -->
<g id="edge14" class="edge">
<title>5&#45;&gt;7</title>
<path fill="none" stroke="#c0c0c0" stroke-width="2" d="M88.3232,-647.8314C106.3011,-638.4516 128.4203,-626.9112 147.5616,-616.9244"/>
<polygon fill="#c0c0c0" stroke="#c0c0c0" stroke-width="2" points="149.4411,-619.8916 156.6879,-612.1628 146.2031,-613.6855 149.4411,-619.8916"/>
</g>
<!-- 5&#45;&gt;12 -->
<g id="edge20" class="edge">
<title>5&#45;&gt;12</title>
<path fill="none" stroke="#c0c0c0" stroke-width="2" d="M57.8788,-647.9843C69.7133,-599.2939 102.4037,-464.7961 116.6805,-406.0573"/>
<polygon fill="#c0c0c0" stroke="#c0c0c0" stroke-width="2" points="120.162,-406.5526 119.1228,-396.0089 113.36,-404.8993 120.162,-406.5526"/>
</g>
<!-- 6 -->
<g id="node7" class="node">
<title>6</title>
<path fill="none" stroke="#d88556" stroke-width="2" d="M153,-324C153,-324 94,-324 94,-324 88,-324 82,-318 82,-312 82,-312 82,-300 82,-300 82,-294 88,-288 94,-288 94,-288 153,-288 153,-288 159,-288 165,-294 165,-300 165,-300 165,-312 165,-312 165,-318 159,-324 153,-324"/>
<text text-anchor="middle" x="123.5" y="-303.5" font-family="sans" font-size="10.00" fill="#000000">get_best_proj</text>
</g>
<!-- 6&#45;&gt;3 -->
<g id="edge6" class="edge">
<title>6&#45;&gt;3</title>
<path fill="none" stroke="#c0c0c0" stroke-width="2" d="M123.5,-287.8314C123.5,-280.131 123.5,-270.9743 123.5,-262.4166"/>
<polygon fill="#c0c0c0" stroke="#c0c0c0" stroke-width="2" points="127.0001,-262.4132 123.5,-252.4133 120.0001,-262.4133 127.0001,-262.4132"/>
</g>
<!-- 7&#45;&gt;4 -->
<g id="edge7" class="edge">
<title>7&#45;&gt;4</title>
<path fill="none" stroke="#c0c0c0" stroke-width="2" d="M179.3183,-575.882C173.2685,-565.7891 166.6022,-552.7221 163.5,-540 158.5719,-519.7901 159.0397,-496.2615 160.624,-478.3309"/>
<polygon fill="#c0c0c0" stroke="#c0c0c0" stroke-width="2" points="164.1212,-478.5402 161.6849,-468.2293 157.1595,-477.809 164.1212,-478.5402"/>
</g>
<!-- 8 -->
<g id="node9" class="node">
<title>8</title>
<path fill="none" stroke="#5663d8" stroke-width="2" d="M258.5,-540C258.5,-540 184.5,-540 184.5,-540 178.5,-540 172.5,-534 172.5,-528 172.5,-528 172.5,-516 172.5,-516 172.5,-510 178.5,-504 184.5,-504 184.5,-504 258.5,-504 258.5,-504 264.5,-504 270.5,-510 270.5,-516 270.5,-516 270.5,-528 270.5,-528 270.5,-534 264.5,-540 258.5,-540"/>
<text text-anchor="middle" x="221.5" y="-519.5" font-family="sans" font-size="10.00" fill="#000000">list_pruned_snps</text>
</g>
<!-- 7&#45;&gt;8 -->
<g id="edge16" class="edge">
<title>7&#45;&gt;8</title>
<path fill="none" stroke="#c0c0c0" stroke-width="2" d="M199.0703,-575.8314C202.3493,-567.9617 206.262,-558.5712 209.8945,-549.8533"/>
<polygon fill="#c0c0c0" stroke="#c0c0c0" stroke-width="2" points="213.2124,-550.9902 213.8278,-540.4133 206.7508,-548.2979 213.2124,-550.9902"/>
</g>
<!-- 8&#45;&gt;4 -->
<g id="edge8" class="edge">
<title>8&#45;&gt;4</title>
<path fill="none" stroke="#c0c0c0" stroke-width="2" d="M207.1165,-503.8314C200.5514,-495.5386 192.6493,-485.557 185.4422,-476.4533"/>
<polygon fill="#c0c0c0" stroke="#c0c0c0" stroke-width="2" points="188.0284,-474.0813 179.0772,-468.4133 182.5401,-478.4262 188.0284,-474.0813"/>
</g>
<!-- 9 -->
<g id="node10" class="node">
<title>9</title>
<path fill="none" stroke="#56d0d8" stroke-width="2" d="M134,-828C134,-828 93,-828 93,-828 87,-828 81,-822 81,-816 81,-816 81,-804 81,-804 81,-798 87,-792 93,-792 93,-792 134,-792 134,-792 140,-792 146,-798 146,-804 146,-804 146,-816 146,-816 146,-822 140,-828 134,-828"/>
<text text-anchor="middle" x="113.5" y="-807.5" font-family="sans" font-size="10.00" fill="#000000">locusfilter</text>
</g>
<!-- 9&#45;&gt;5 -->
<g id="edge10" class="edge">
<title>9&#45;&gt;5</title>
<path fill="none" stroke="#c0c0c0" stroke-width="2" d="M91.8071,-791.9259C81.7986,-782.3293 70.7698,-769.6979 64.5,-756 55.6279,-736.6169 53.0642,-712.5559 52.6174,-694.1901"/>
<polygon fill="#c0c0c0" stroke="#c0c0c0" stroke-width="2" points="56.1171,-694.0956 52.5673,-684.1132 49.1172,-694.1305 56.1171,-694.0956"/>
</g>
<!-- 10 -->
<g id="node11" class="node">
<title>10</title>
<path fill="none" stroke="#61d856" stroke-width="2" d="M151.5,-756C151.5,-756 85.5,-756 85.5,-756 79.5,-756 73.5,-750 73.5,-744 73.5,-744 73.5,-732 73.5,-732 73.5,-726 79.5,-720 85.5,-720 85.5,-720 151.5,-720 151.5,-720 157.5,-720 163.5,-726 163.5,-732 163.5,-732 163.5,-744 163.5,-744 163.5,-750 157.5,-756 151.5,-756"/>
<text text-anchor="middle" x="118.5" y="-735.5" font-family="sans" font-size="10.00" fill="#000000">stats_postfilter</text>
</g>
<!-- 9&#45;&gt;10 -->
<g id="edge19" class="edge">
<title>9&#45;&gt;10</title>
<path fill="none" stroke="#c0c0c0" stroke-width="2" d="M114.7617,-791.8314C115.2965,-784.131 115.9323,-774.9743 116.5266,-766.4166"/>
<polygon fill="#c0c0c0" stroke="#c0c0c0" stroke-width="2" points="120.02,-766.6317 117.2213,-756.4133 113.0368,-766.1467 120.02,-766.6317"/>
</g>
<!-- 10&#45;&gt;5 -->
<g id="edge11" class="edge">
<title>10&#45;&gt;5</title>
<path fill="none" stroke="#c0c0c0" stroke-width="2" d="M102.0978,-719.8314C94.4585,-711.3694 85.2317,-701.1489 76.8793,-691.8971"/>
<polygon fill="#c0c0c0" stroke="#c0c0c0" stroke-width="2" points="79.4221,-689.4906 70.1231,-684.4133 74.2262,-694.1813 79.4221,-689.4906"/>
</g>
<!-- 11 -->
<g id="node12" class="node">
<title>11</title>
<path fill="none" stroke="#d8ac56" stroke-width="2" d="M77,-1188C77,-1188 12,-1188 12,-1188 6,-1188 0,-1182 0,-1176 0,-1176 0,-1164 0,-1164 0,-1158 6,-1152 12,-1152 12,-1152 77,-1152 77,-1152 83,-1152 89,-1158 89,-1164 89,-1164 89,-1176 89,-1176 89,-1182 83,-1188 77,-1188"/>
<text text-anchor="middle" x="44.5" y="-1167.5" font-family="sans" font-size="10.00" fill="#000000">index_genome</text>
</g>
<!-- 11&#45;&gt;5 -->
<g id="edge9" class="edge">
<title>11&#45;&gt;5</title>
<path fill="none" stroke="#c0c0c0" stroke-width="2" d="M36.6533,-1151.746C25.7922,-1124.7781 7.5,-1072.4617 7.5,-1026 7.5,-1026 7.5,-1026 7.5,-810 7.5,-767.7421 25.6976,-721.6755 39.2014,-693.3085"/>
<polygon fill="#c0c0c0" stroke="#c0c0c0" stroke-width="2" points="42.4822,-694.5675 43.7446,-684.0482 36.1978,-691.4843 42.4822,-694.5675"/>
</g>
<!-- 16 -->
<g id="node17" class="node">
<title>16</title>
<path fill="none" stroke="#d8a456" stroke-width="2" d="M145.5,-1116C145.5,-1116 75.5,-1116 75.5,-1116 69.5,-1116 63.5,-1110 63.5,-1104 63.5,-1104 63.5,-1092 63.5,-1092 63.5,-1086 69.5,-1080 75.5,-1080 75.5,-1080 145.5,-1080 145.5,-1080 151.5,-1080 157.5,-1086 157.5,-1092 157.5,-1092 157.5,-1104 157.5,-1104 157.5,-1110 151.5,-1116 145.5,-1116"/>
<text text-anchor="middle" x="110.5" y="-1095.5" font-family="sans" font-size="10.00" fill="#000000">add_vcf_header</text>
</g>
<!-- 11&#45;&gt;16 -->
<g id="edge25" class="edge">
<title>11&#45;&gt;16</title>
<path fill="none" stroke="#c0c0c0" stroke-width="2" d="M61.1546,-1151.8314C68.9114,-1143.3694 78.2802,-1133.1489 86.761,-1123.8971"/>
<polygon fill="#c0c0c0" stroke="#c0c0c0" stroke-width="2" points="89.4439,-1126.1499 93.6212,-1116.4133 84.2838,-1121.4198 89.4439,-1126.1499"/>
</g>
<!-- 12&#45;&gt;6 -->
<g id="edge12" class="edge">
<title>12&#45;&gt;6</title>
<path fill="none" stroke="#c0c0c0" stroke-width="2" d="M123.5,-359.8314C123.5,-352.131 123.5,-342.9743 123.5,-334.4166"/>
<polygon fill="#c0c0c0" stroke="#c0c0c0" stroke-width="2" points="127.0001,-334.4132 123.5,-324.4133 120.0001,-334.4133 127.0001,-334.4132"/>
</g>
<!-- 13 -->
<g id="node14" class="node">
<title>13</title>
<path fill="none" stroke="#56d8c9" stroke-width="2" d="M159,-972C159,-972 120,-972 120,-972 114,-972 108,-966 108,-960 108,-960 108,-948 108,-948 108,-942 114,-936 120,-936 120,-936 159,-936 159,-936 165,-936 171,-942 171,-948 171,-948 171,-960 171,-960 171,-966 165,-972 159,-972"/>
<text text-anchor="middle" x="139.5" y="-951.5" font-family="sans" font-size="10.00" fill="#000000">bgzip_vcf</text>
</g>
<!-- 13&#45;&gt;7 -->
<g id="edge15" class="edge">
<title>13&#45;&gt;7</title>
<path fill="none" stroke="#c0c0c0" stroke-width="2" d="M171.3572,-936.8331C185.4134,-927.6895 200.8921,-915.179 210.5,-900 232.3649,-865.4568 229.5,-850.8816 229.5,-810 229.5,-810 229.5,-810 229.5,-738 229.5,-696.3681 214.4672,-650.14 203.3119,-621.567"/>
<polygon fill="#c0c0c0" stroke="#c0c0c0" stroke-width="2" points="206.5368,-620.2055 199.5588,-612.2332 200.0422,-622.817 206.5368,-620.2055"/>
</g>
<!-- 13&#45;&gt;9 -->
<g id="edge18" class="edge">
<title>13&#45;&gt;9</title>
<path fill="none" stroke="#c0c0c0" stroke-width="2" d="M135.5687,-935.5375C133.3934,-925.1203 130.6944,-911.8537 128.5,-900 124.7033,-879.491 120.844,-856.2699 117.9909,-838.5522"/>
<polygon fill="#c0c0c0" stroke="#c0c0c0" stroke-width="2" points="121.3877,-837.6278 116.354,-828.3052 114.4753,-838.7321 121.3877,-837.6278"/>
</g>
<!-- 14 -->
<g id="node15" class="node">
<title>14</title>
<path fill="none" stroke="#d87556" stroke-width="2" d="M189.5,-900C189.5,-900 149.5,-900 149.5,-900 143.5,-900 137.5,-894 137.5,-888 137.5,-888 137.5,-876 137.5,-876 137.5,-870 143.5,-864 149.5,-864 149.5,-864 189.5,-864 189.5,-864 195.5,-864 201.5,-870 201.5,-876 201.5,-876 201.5,-888 201.5,-888 201.5,-894 195.5,-900 189.5,-900"/>
<text text-anchor="middle" x="169.5" y="-879.5" font-family="sans" font-size="10.00" fill="#000000">index_vcf</text>
</g>
<!-- 13&#45;&gt;14 -->
<g id="edge23" class="edge">
<title>13&#45;&gt;14</title>
<path fill="none" stroke="#c0c0c0" stroke-width="2" d="M147.0703,-935.8314C150.3493,-927.9617 154.262,-918.5712 157.8945,-909.8533"/>
<polygon fill="#c0c0c0" stroke="#c0c0c0" stroke-width="2" points="161.2124,-910.9902 161.8278,-900.4133 154.7508,-908.2979 161.2124,-910.9902"/>
</g>
<!-- 14&#45;&gt;7 -->
<g id="edge13" class="edge">
<title>14&#45;&gt;7</title>
<path fill="none" stroke="#c0c0c0" stroke-width="2" d="M170.8762,-863.9843C174.5956,-815.2939 184.8697,-680.7961 189.3567,-622.0573"/>
<polygon fill="#c0c0c0" stroke="#c0c0c0" stroke-width="2" points="192.8524,-622.2464 190.1243,-612.0089 185.8727,-621.7132 192.8524,-622.2464"/>
</g>
<!-- 14&#45;&gt;9 -->
<g id="edge17" class="edge">
<title>14&#45;&gt;9</title>
<path fill="none" stroke="#c0c0c0" stroke-width="2" d="M155.3688,-863.8314C148.9189,-855.5386 141.1555,-845.557 134.0748,-836.4533"/>
<polygon fill="#c0c0c0" stroke="#c0c0c0" stroke-width="2" points="136.7236,-834.158 127.8214,-828.4133 131.1981,-838.4556 136.7236,-834.158"/>
</g>
<!-- 15 -->
<g id="node16" class="node">
<title>15</title>
<path fill="none" stroke="#d89556" stroke-width="2" d="M140.5,-1044C140.5,-1044 108.5,-1044 108.5,-1044 102.5,-1044 96.5,-1038 96.5,-1032 96.5,-1032 96.5,-1020 96.5,-1020 96.5,-1014 102.5,-1008 108.5,-1008 108.5,-1008 140.5,-1008 140.5,-1008 146.5,-1008 152.5,-1014 152.5,-1020 152.5,-1020 152.5,-1032 152.5,-1032 152.5,-1038 146.5,-1044 140.5,-1044"/>
<text text-anchor="middle" x="124.5" y="-1023.5" font-family="sans" font-size="10.00" fill="#000000">sort_vcf</text>
</g>
<!-- 15&#45;&gt;13 -->
<g id="edge22" class="edge">
<title>15&#45;&gt;13</title>
<path fill="none" stroke="#c0c0c0" stroke-width="2" d="M128.2851,-1007.8314C129.8894,-1000.131 131.797,-990.9743 133.5799,-982.4166"/>
<polygon fill="#c0c0c0" stroke="#c0c0c0" stroke-width="2" points="137.0507,-982.9169 135.6639,-972.4133 130.1979,-981.4892 137.0507,-982.9169"/>
</g>
<!-- 16&#45;&gt;15 -->
<g id="edge24" class="edge">
<title>16&#45;&gt;15</title>
<path fill="none" stroke="#c0c0c0" stroke-width="2" d="M114.0328,-1079.8314C115.5301,-1072.131 117.3105,-1062.9743 118.9745,-1054.4166"/>
<polygon fill="#c0c0c0" stroke="#c0c0c0" stroke-width="2" points="122.4465,-1054.8975 120.9196,-1044.4133 115.5752,-1053.5614 122.4465,-1054.8975"/>
</g>
</g>
</svg>
