<?xml version="1.0" encoding="UTF-8" standalone="no"?>
<!DOCTYPE svg PUBLIC "-//W3C//DTD SVG 1.1//EN"
 "http://www.w3.org/Graphics/SVG/1.1/DTD/svg11.dtd">
<!-- Generated by graphviz version 2.40.1 (20161225.0304)
 -->
<!-- Title: snakemake_dag Pages: 1 -->
<svg width="279pt" height="1124pt"
 viewBox="0.00 0.00 278.50 1124.00" xmlns="http://www.w3.org/2000/svg" xmlns:xlink="http://www.w3.org/1999/xlink">
<g id="graph0" class="graph" transform="scale(1 1) rotate(0) translate(4 1120)">
<title>snakemake_dag</title>
<polygon fill="#ffffff" stroke="transparent" points="-4,4 -4,-1120 274.5,-1120 274.5,4 -4,4"/>
<!-- 1 -->
<g id="node1" class="node">
<title>1</title>
<path fill="none" stroke="#d6d856" stroke-width="2" d="M153,-36C153,-36 94,-36 94,-36 88,-36 82,-30 82,-24 82,-24 82,-12 82,-12 82,-6 88,0 94,0 94,0 153,0 153,0 159,0 165,-6 165,-12 165,-12 165,-24 165,-24 165,-30 159,-36 153,-36"/>
<text text-anchor="middle" x="123.5" y="-15.5" font-family="sans" font-size="10.00" fill="#000000">find_best_run</text>
</g>
<!-- 2 -->
<g id="node2" class="node">
<title>2</title>
<path fill="none" stroke="#56d89a" stroke-width="2" d="M138.5,-108C138.5,-108 108.5,-108 108.5,-108 102.5,-108 96.5,-102 96.5,-96 96.5,-96 96.5,-84 96.5,-84 96.5,-78 102.5,-72 108.5,-72 108.5,-72 138.5,-72 138.5,-72 144.5,-72 150.5,-78 150.5,-84 150.5,-84 150.5,-96 150.5,-96 150.5,-102 144.5,-108 138.5,-108"/>
<text text-anchor="middle" x="123.5" y="-87.5" font-family="sans" font-size="10.00" fill="#000000">fsc</text>
</g>
<!-- 2&#45;&gt;1 -->
<g id="edge1" class="edge">
<title>2&#45;&gt;1</title>
<path fill="none" stroke="#c0c0c0" stroke-width="2" d="M123.5,-71.8314C123.5,-64.131 123.5,-54.9743 123.5,-46.4166"/>
<polygon fill="#c0c0c0" stroke="#c0c0c0" stroke-width="2" points="127.0001,-46.4132 123.5,-36.4133 120.0001,-46.4133 127.0001,-46.4132"/>
</g>
<!-- 3 -->
<g id="node3" class="node">
<title>3</title>
<path fill="none" stroke="#56d8b9" stroke-width="2" d="M151.5,-180C151.5,-180 95.5,-180 95.5,-180 89.5,-180 83.5,-174 83.5,-168 83.5,-168 83.5,-156 83.5,-156 83.5,-150 89.5,-144 95.5,-144 95.5,-144 151.5,-144 151.5,-144 157.5,-144 163.5,-150 163.5,-156 163.5,-156 163.5,-168 163.5,-168 163.5,-174 157.5,-180 151.5,-180"/>
<text text-anchor="middle" x="123.5" y="-159.5" font-family="sans" font-size="10.00" fill="#000000">generate_sfs</text>
</g>
<!-- 3&#45;&gt;2 -->
<g id="edge2" class="edge">
<title>3&#45;&gt;2</title>
<path fill="none" stroke="#c0c0c0" stroke-width="2" d="M123.5,-143.8314C123.5,-136.131 123.5,-126.9743 123.5,-118.4166"/>
<polygon fill="#c0c0c0" stroke="#c0c0c0" stroke-width="2" points="127.0001,-118.4132 123.5,-108.4133 120.0001,-118.4133 127.0001,-118.4132"/>
</g>
<!-- 4 -->
<g id="node4" class="node">
<title>4</title>
<path fill="none" stroke="#56d85b" stroke-width="2" d="M185,-396C185,-396 144,-396 144,-396 138,-396 132,-390 132,-384 132,-384 132,-372 132,-372 132,-366 138,-360 144,-360 144,-360 185,-360 185,-360 191,-360 197,-366 197,-372 197,-372 197,-384 197,-384 197,-390 191,-396 185,-396"/>
<text text-anchor="middle" x="164.5" y="-375.5" font-family="sans" font-size="10.00" fill="#000000">prune_vcf</text>
</g>
<!-- 4&#45;&gt;3 -->
<g id="edge4" class="edge">
<title>4&#45;&gt;3</title>
<path fill="none" stroke="#c0c0c0" stroke-width="2" d="M174.5235,-359.6094C179.4981,-349.4366 184.9733,-336.3803 187.5,-324 197.1678,-276.63 196.2977,-259.1537 174.5,-216 169.2029,-205.5131 161.2165,-195.651 153.1259,-187.2972"/>
<polygon fill="#c0c0c0" stroke="#c0c0c0" stroke-width="2" points="155.3373,-184.5643 145.7407,-180.0747 150.443,-189.5689 155.3373,-184.5643"/>
</g>
<!-- 12 -->
<g id="node12" class="node">
<title>12</title>
<path fill="none" stroke="#d88556" stroke-width="2" d="M166.5,-324C166.5,-324 80.5,-324 80.5,-324 74.5,-324 68.5,-318 68.5,-312 68.5,-312 68.5,-300 68.5,-300 68.5,-294 74.5,-288 80.5,-288 80.5,-288 166.5,-288 166.5,-288 172.5,-288 178.5,-294 178.5,-300 178.5,-300 178.5,-312 178.5,-312 178.5,-318 172.5,-324 166.5,-324"/>
<text text-anchor="middle" x="123.5" y="-303.5" font-family="sans" font-size="10.00" fill="#000000">preview_projection</text>
</g>
<!-- 4&#45;&gt;12 -->
<g id="edge20" class="edge">
<title>4&#45;&gt;12</title>
<path fill="none" stroke="#c0c0c0" stroke-width="2" d="M154.154,-359.8314C149.5763,-351.7925 144.0948,-342.1666 139.0412,-333.2918"/>
<polygon fill="#c0c0c0" stroke="#c0c0c0" stroke-width="2" points="141.9752,-331.3712 133.9853,-324.4133 135.8923,-334.8351 141.9752,-331.3712"/>
</g>
<!-- 5 -->
<g id="node5" class="node">
<title>5</title>
<path fill="none" stroke="#5682d8" stroke-width="2" d="M95,-612C95,-612 12,-612 12,-612 6,-612 0,-606 0,-600 0,-600 0,-588 0,-588 0,-582 6,-576 12,-576 12,-576 95,-576 95,-576 101,-576 107,-582 107,-588 107,-588 107,-600 107,-600 107,-606 101,-612 95,-612"/>
<text text-anchor="middle" x="53.5" y="-591.5" font-family="sans" font-size="10.00" fill="#000000">generate_whitelist</text>
</g>
<!-- 5&#45;&gt;3 -->
<g id="edge3" class="edge">
<title>5&#45;&gt;3</title>
<path fill="none" stroke="#c0c0c0" stroke-width="2" d="M50.8064,-575.862C46.9986,-548.6061 40.5,-495.434 40.5,-450 40.5,-450 40.5,-450 40.5,-306 40.5,-263.3959 51.2604,-252.3389 73.5,-216 79.6276,-205.9877 87.7969,-196.2068 95.7533,-187.7807"/>
<polygon fill="#c0c0c0" stroke="#c0c0c0" stroke-width="2" points="98.4335,-190.0464 102.9356,-180.4557 93.4353,-185.1456 98.4335,-190.0464"/>
</g>
<!-- 7 -->
<g id="node7" class="node">
<title>7</title>
<path fill="none" stroke="#56d87b" stroke-width="2" d="M240.5,-540C240.5,-540 142.5,-540 142.5,-540 136.5,-540 130.5,-534 130.5,-528 130.5,-528 130.5,-516 130.5,-516 130.5,-510 136.5,-504 142.5,-504 142.5,-504 240.5,-504 240.5,-504 246.5,-504 252.5,-510 252.5,-516 252.5,-516 252.5,-528 252.5,-528 252.5,-534 246.5,-540 240.5,-540"/>
<text text-anchor="middle" x="191.5" y="-519.5" font-family="sans" font-size="10.00" fill="#000000">filter_populations_vcf</text>
</g>
<!-- 5&#45;&gt;7 -->
<g id="edge13" class="edge">
<title>5&#45;&gt;7</title>
<path fill="none" stroke="#c0c0c0" stroke-width="2" d="M88.3232,-575.8314C106.3011,-566.4516 128.4203,-554.9112 147.5616,-544.9244"/>
<polygon fill="#c0c0c0" stroke="#c0c0c0" stroke-width="2" points="149.4411,-547.8916 156.6879,-540.1628 146.2031,-541.6855 149.4411,-547.8916"/>
</g>
<!-- 5&#45;&gt;12 -->
<g id="edge19" class="edge">
<title>5&#45;&gt;12</title>
<path fill="none" stroke="#c0c0c0" stroke-width="2" d="M57.8788,-575.9843C69.7133,-527.2939 102.4037,-392.7961 116.6805,-334.0573"/>
<polygon fill="#c0c0c0" stroke="#c0c0c0" stroke-width="2" points="120.162,-334.5526 119.1228,-324.0089 113.36,-332.8993 120.162,-334.5526"/>
</g>
<!-- 6 -->
<g id="node6" class="node">
<title>6</title>
<path fill="none" stroke="#97d856" stroke-width="2" d="M153,-252C153,-252 94,-252 94,-252 88,-252 82,-246 82,-240 82,-240 82,-228 82,-228 82,-222 88,-216 94,-216 94,-216 153,-216 153,-216 159,-216 165,-222 165,-228 165,-228 165,-240 165,-240 165,-246 159,-252 153,-252"/>
<text text-anchor="middle" x="123.5" y="-231.5" font-family="sans" font-size="10.00" fill="#000000">get_best_proj</text>
</g>
<!-- 6&#45;&gt;3 -->
<g id="edge5" class="edge">
<title>6&#45;&gt;3</title>
<path fill="none" stroke="#c0c0c0" stroke-width="2" d="M123.5,-215.8314C123.5,-208.131 123.5,-198.9743 123.5,-190.4166"/>
<polygon fill="#c0c0c0" stroke="#c0c0c0" stroke-width="2" points="127.0001,-190.4132 123.5,-180.4133 120.0001,-190.4133 127.0001,-190.4132"/>
</g>
<!-- 7&#45;&gt;4 -->
<g id="edge6" class="edge">
<title>7&#45;&gt;4</title>
<path fill="none" stroke="#c0c0c0" stroke-width="2" d="M179.3183,-503.882C173.2685,-493.7891 166.6022,-480.7221 163.5,-468 158.5719,-447.7901 159.0397,-424.2615 160.624,-406.3309"/>
<polygon fill="#c0c0c0" stroke="#c0c0c0" stroke-width="2" points="164.1212,-406.5402 161.6849,-396.2293 157.1595,-405.809 164.1212,-406.5402"/>
</g>
<!-- 8 -->
<g id="node8" class="node">
<title>8</title>
<path fill="none" stroke="#d8a456" stroke-width="2" d="M258.5,-468C258.5,-468 184.5,-468 184.5,-468 178.5,-468 172.5,-462 172.5,-456 172.5,-456 172.5,-444 172.5,-444 172.5,-438 178.5,-432 184.5,-432 184.5,-432 258.5,-432 258.5,-432 264.5,-432 270.5,-438 270.5,-444 270.5,-444 270.5,-456 270.5,-456 270.5,-462 264.5,-468 258.5,-468"/>
<text text-anchor="middle" x="221.5" y="-447.5" font-family="sans" font-size="10.00" fill="#000000">list_pruned_snps</text>
</g>
<!-- 7&#45;&gt;8 -->
<g id="edge15" class="edge">
<title>7&#45;&gt;8</title>
<path fill="none" stroke="#c0c0c0" stroke-width="2" d="M199.0703,-503.8314C202.3493,-495.9617 206.262,-486.5712 209.8945,-477.8533"/>
<polygon fill="#c0c0c0" stroke="#c0c0c0" stroke-width="2" points="213.2124,-478.9902 213.8278,-468.4133 206.7508,-476.2979 213.2124,-478.9902"/>
</g>
<!-- 8&#45;&gt;4 -->
<g id="edge7" class="edge">
<title>8&#45;&gt;4</title>
<path fill="none" stroke="#c0c0c0" stroke-width="2" d="M207.1165,-431.8314C200.5514,-423.5386 192.6493,-413.557 185.4422,-404.4533"/>
<polygon fill="#c0c0c0" stroke="#c0c0c0" stroke-width="2" points="188.0284,-402.0813 179.0772,-396.4133 182.5401,-406.4262 188.0284,-402.0813"/>
</g>
<!-- 9 -->
<g id="node9" class="node">
<title>9</title>
<path fill="none" stroke="#61d856" stroke-width="2" d="M134,-756C134,-756 93,-756 93,-756 87,-756 81,-750 81,-744 81,-744 81,-732 81,-732 81,-726 87,-720 93,-720 93,-720 134,-720 134,-720 140,-720 146,-726 146,-732 146,-732 146,-744 146,-744 146,-750 140,-756 134,-756"/>
<text text-anchor="middle" x="113.5" y="-735.5" font-family="sans" font-size="10.00" fill="#000000">locusfilter</text>
</g>
<!-- 9&#45;&gt;5 -->
<g id="edge10" class="edge">
<title>9&#45;&gt;5</title>
<path fill="none" stroke="#c0c0c0" stroke-width="2" d="M91.8071,-719.9259C81.7986,-710.3293 70.7698,-697.6979 64.5,-684 55.6279,-664.6169 53.0642,-640.5559 52.6174,-622.1901"/>
<polygon fill="#c0c0c0" stroke="#c0c0c0" stroke-width="2" points="56.1171,-622.0956 52.5673,-612.1132 49.1172,-622.1305 56.1171,-622.0956"/>
</g>
<!-- 10 -->
<g id="node10" class="node">
<title>10</title>
<path fill="none" stroke="#56c1d8" stroke-width="2" d="M151.5,-684C151.5,-684 85.5,-684 85.5,-684 79.5,-684 73.5,-678 73.5,-672 73.5,-672 73.5,-660 73.5,-660 73.5,-654 79.5,-648 85.5,-648 85.5,-648 151.5,-648 151.5,-648 157.5,-648 163.5,-654 163.5,-660 163.5,-660 163.5,-672 163.5,-672 163.5,-678 157.5,-684 151.5,-684"/>
<text text-anchor="middle" x="118.5" y="-663.5" font-family="sans" font-size="10.00" fill="#000000">stats_postfilter</text>
</g>
<!-- 9&#45;&gt;10 -->
<g id="edge18" class="edge">
<title>9&#45;&gt;10</title>
<path fill="none" stroke="#c0c0c0" stroke-width="2" d="M114.7617,-719.8314C115.2965,-712.131 115.9323,-702.9743 116.5266,-694.4166"/>
<polygon fill="#c0c0c0" stroke="#c0c0c0" stroke-width="2" points="120.02,-694.6317 117.2213,-684.4133 113.0368,-694.1467 120.02,-694.6317"/>
</g>
<!-- 10&#45;&gt;5 -->
<g id="edge8" class="edge">
<title>10&#45;&gt;5</title>
<path fill="none" stroke="#c0c0c0" stroke-width="2" d="M102.0978,-647.8314C94.4585,-639.3694 85.2317,-629.1489 76.8793,-619.8971"/>
<polygon fill="#c0c0c0" stroke="#c0c0c0" stroke-width="2" points="79.4221,-617.4906 70.1231,-612.4133 74.2262,-622.1813 79.4221,-617.4906"/>
</g>
<!-- 11 -->
<g id="node11" class="node">
<title>11</title>
<path fill="none" stroke="#5663d8" stroke-width="2" d="M77,-1116C77,-1116 12,-1116 12,-1116 6,-1116 0,-1110 0,-1104 0,-1104 0,-1092 0,-1092 0,-1086 6,-1080 12,-1080 12,-1080 77,-1080 77,-1080 83,-1080 89,-1086 89,-1092 89,-1092 89,-1104 89,-1104 89,-1110 83,-1116 77,-1116"/>
<text text-anchor="middle" x="44.5" y="-1095.5" font-family="sans" font-size="10.00" fill="#000000">index_genome</text>
</g>
<!-- 11&#45;&gt;5 -->
<g id="edge9" class="edge">
<title>11&#45;&gt;5</title>
<path fill="none" stroke="#c0c0c0" stroke-width="2" d="M36.6533,-1079.746C25.7922,-1052.7781 7.5,-1000.4617 7.5,-954 7.5,-954 7.5,-954 7.5,-738 7.5,-695.7421 25.6976,-649.6755 39.2014,-621.3085"/>
<polygon fill="#c0c0c0" stroke="#c0c0c0" stroke-width="2" points="42.4822,-622.5675 43.7446,-612.0482 36.1978,-619.4843 42.4822,-622.5675"/>
</g>
<!-- 16 -->
<g id="node16" class="node">
<title>16</title>
<path fill="none" stroke="#88d856" stroke-width="2" d="M145.5,-1044C145.5,-1044 75.5,-1044 75.5,-1044 69.5,-1044 63.5,-1038 63.5,-1032 63.5,-1032 63.5,-1020 63.5,-1020 63.5,-1014 69.5,-1008 75.5,-1008 75.5,-1008 145.5,-1008 145.5,-1008 151.5,-1008 157.5,-1014 157.5,-1020 157.5,-1020 157.5,-1032 157.5,-1032 157.5,-1038 151.5,-1044 145.5,-1044"/>
<text text-anchor="middle" x="110.5" y="-1023.5" font-family="sans" font-size="10.00" fill="#000000">add_vcf_header</text>
</g>
<!-- 11&#45;&gt;16 -->
<g id="edge24" class="edge">
<title>11&#45;&gt;16</title>
<path fill="none" stroke="#c0c0c0" stroke-width="2" d="M61.1546,-1079.8314C68.9114,-1071.3694 78.2802,-1061.1489 86.761,-1051.8971"/>
<polygon fill="#c0c0c0" stroke="#c0c0c0" stroke-width="2" points="89.4439,-1054.1499 93.6212,-1044.4133 84.2838,-1049.4198 89.4439,-1054.1499"/>
</g>
<!-- 12&#45;&gt;6 -->
<g id="edge11" class="edge">
<title>12&#45;&gt;6</title>
<path fill="none" stroke="#c0c0c0" stroke-width="2" d="M123.5,-287.8314C123.5,-280.131 123.5,-270.9743 123.5,-262.4166"/>
<polygon fill="#c0c0c0" stroke="#c0c0c0" stroke-width="2" points="127.0001,-262.4132 123.5,-252.4133 120.0001,-262.4133 127.0001,-262.4132"/>
</g>
<!-- 13 -->
<g id="node13" class="node">
<title>13</title>
<path fill="none" stroke="#56d88a" stroke-width="2" d="M159,-900C159,-900 120,-900 120,-900 114,-900 108,-894 108,-888 108,-888 108,-876 108,-876 108,-870 114,-864 120,-864 120,-864 159,-864 159,-864 165,-864 171,-870 171,-876 171,-876 171,-888 171,-888 171,-894 165,-900 159,-900"/>
<text text-anchor="middle" x="139.5" y="-879.5" font-family="sans" font-size="10.00" fill="#000000">bgzip_vcf</text>
</g>
<!-- 13&#45;&gt;7 -->
<g id="edge12" class="edge">
<title>13&#45;&gt;7</title>
<path fill="none" stroke="#c0c0c0" stroke-width="2" d="M171.3572,-864.8331C185.4134,-855.6895 200.8921,-843.179 210.5,-828 232.3649,-793.4568 229.5,-778.8816 229.5,-738 229.5,-738 229.5,-738 229.5,-666 229.5,-624.3681 214.4672,-578.14 203.3119,-549.567"/>
<polygon fill="#c0c0c0" stroke="#c0c0c0" stroke-width="2" points="206.5368,-548.2055 199.5588,-540.2332 200.0422,-550.817 206.5368,-548.2055"/>
</g>
<!-- 13&#45;&gt;9 -->
<g id="edge16" class="edge">
<title>13&#45;&gt;9</title>
<path fill="none" stroke="#c0c0c0" stroke-width="2" d="M135.5687,-863.5375C133.3934,-853.1203 130.6944,-839.8537 128.5,-828 124.7033,-807.491 120.844,-784.2699 117.9909,-766.5522"/>
<polygon fill="#c0c0c0" stroke="#c0c0c0" stroke-width="2" points="121.3877,-765.6278 116.354,-756.3052 114.4753,-766.7321 121.3877,-765.6278"/>
</g>
<!-- 14 -->
<g id="node14" class="node">
<title>14</title>
<path fill="none" stroke="#d8ac56" stroke-width="2" d="M189.5,-828C189.5,-828 149.5,-828 149.5,-828 143.5,-828 137.5,-822 137.5,-816 137.5,-816 137.5,-804 137.5,-804 137.5,-798 143.5,-792 149.5,-792 149.5,-792 189.5,-792 189.5,-792 195.5,-792 201.5,-798 201.5,-804 201.5,-804 201.5,-816 201.5,-816 201.5,-822 195.5,-828 189.5,-828"/>
<text text-anchor="middle" x="169.5" y="-807.5" font-family="sans" font-size="10.00" fill="#000000">index_vcf</text>
</g>
<!-- 13&#45;&gt;14 -->
<g id="edge22" class="edge">
<title>13&#45;&gt;14</title>
<path fill="none" stroke="#c0c0c0" stroke-width="2" d="M147.0703,-863.8314C150.3493,-855.9617 154.262,-846.5712 157.8945,-837.8533"/>
<polygon fill="#c0c0c0" stroke="#c0c0c0" stroke-width="2" points="161.2124,-838.9902 161.8278,-828.4133 154.7508,-836.2979 161.2124,-838.9902"/>
</g>
<!-- 14&#45;&gt;7 -->
<g id="edge14" class="edge">
<title>14&#45;&gt;7</title>
<path fill="none" stroke="#c0c0c0" stroke-width="2" d="M170.8762,-791.9843C174.5956,-743.2939 184.8697,-608.7961 189.3567,-550.0573"/>
<polygon fill="#c0c0c0" stroke="#c0c0c0" stroke-width="2" points="192.8524,-550.2464 190.1243,-540.0089 185.8727,-549.7132 192.8524,-550.2464"/>
</g>
<!-- 14&#45;&gt;9 -->
<g id="edge17" class="edge">
<title>14&#45;&gt;9</title>
<path fill="none" stroke="#c0c0c0" stroke-width="2" d="M155.3688,-791.8314C148.9189,-783.5386 141.1555,-773.557 134.0748,-764.4533"/>
<polygon fill="#c0c0c0" stroke="#c0c0c0" stroke-width="2" points="136.7236,-762.158 127.8214,-756.4133 131.1981,-766.4556 136.7236,-762.158"/>
</g>
<!-- 15 -->
<g id="node15" class="node">
<title>15</title>
<path fill="none" stroke="#d86656" stroke-width="2" d="M140.5,-972C140.5,-972 108.5,-972 108.5,-972 102.5,-972 96.5,-966 96.5,-960 96.5,-960 96.5,-948 96.5,-948 96.5,-942 102.5,-936 108.5,-936 108.5,-936 140.5,-936 140.5,-936 146.5,-936 152.5,-942 152.5,-948 152.5,-948 152.5,-960 152.5,-960 152.5,-966 146.5,-972 140.5,-972"/>
<text text-anchor="middle" x="124.5" y="-951.5" font-family="sans" font-size="10.00" fill="#000000">sort_vcf</text>
</g>
<!-- 15&#45;&gt;13 -->
<g id="edge21" class="edge">
<title>15&#45;&gt;13</title>
<path fill="none" stroke="#c0c0c0" stroke-width="2" d="M128.2851,-935.8314C129.8894,-928.131 131.797,-918.9743 133.5799,-910.4166"/>
<polygon fill="#c0c0c0" stroke="#c0c0c0" stroke-width="2" points="137.0507,-910.9169 135.6639,-900.4133 130.1979,-909.4892 137.0507,-910.9169"/>
</g>
<!-- 16&#45;&gt;15 -->
<g id="edge23" class="edge">
<title>16&#45;&gt;15</title>
<path fill="none" stroke="#c0c0c0" stroke-width="2" d="M114.0328,-1007.8314C115.5301,-1000.131 117.3105,-990.9743 118.9745,-982.4166"/>
<polygon fill="#c0c0c0" stroke="#c0c0c0" stroke-width="2" points="122.4465,-982.8975 120.9196,-972.4133 115.5752,-981.5614 122.4465,-982.8975"/>
</g>
</g>
</svg>
