<?xml version="1.0" encoding="UTF-8" standalone="no"?>
<!DOCTYPE svg PUBLIC "-//W3C//DTD SVG 1.1//EN"
 "http://www.w3.org/Graphics/SVG/1.1/DTD/svg11.dtd">
<!-- Generated by graphviz version 2.40.1 (20161225.0304)
 -->
<!-- Title: snakemake_dag Pages: 1 -->
<svg width="144pt" height="332pt"
 viewBox="0.00 0.00 144.00 332.00" xmlns="http://www.w3.org/2000/svg" xmlns:xlink="http://www.w3.org/1999/xlink">
<g id="graph0" class="graph" transform="scale(1 1) rotate(0) translate(4 328)">
<title>snakemake_dag</title>
<polygon fill="#ffffff" stroke="transparent" points="-4,4 -4,-328 140,-328 140,4 -4,4"/>
<!-- 0 -->
<g id="node1" class="node">
<title>0</title>
<path fill="none" stroke="#d85656" stroke-width="2" d="M67,-36C67,-36 37,-36 37,-36 31,-36 25,-30 25,-24 25,-24 25,-12 25,-12 25,-6 31,0 37,0 37,0 67,0 67,0 73,0 79,-6 79,-12 79,-12 79,-24 79,-24 79,-30 73,-36 67,-36"/>
<text text-anchor="middle" x="52" y="-15.5" font-family="sans" font-size="10.00" fill="#000000">target</text>
</g>
<!-- 1 -->
<g id="node2" class="node">
<title>1</title>
<path fill="none" stroke="#d8bc56" stroke-width="2" d="M92,-108C92,-108 12,-108 12,-108 6,-108 0,-102 0,-96 0,-96 0,-84 0,-84 0,-78 6,-72 12,-72 12,-72 92,-72 92,-72 98,-72 104,-78 104,-84 104,-84 104,-96 104,-96 104,-102 98,-108 92,-108"/>
<text text-anchor="middle" x="52" y="-87.5" font-family="sans" font-size="10.00" fill="#000000">compare_defaults</text>
</g>
<!-- 1&#45;&gt;0 -->
<g id="edge1" class="edge">
<title>1&#45;&gt;0</title>
<path fill="none" stroke="#c0c0c0" stroke-width="2" d="M52,-71.8314C52,-64.131 52,-54.9743 52,-46.4166"/>
<polygon fill="#c0c0c0" stroke="#c0c0c0" stroke-width="2" points="55.5001,-46.4132 52,-36.4133 48.5001,-46.4133 55.5001,-46.4132"/>
</g>
<!-- 2 -->
<g id="node3" class="node">
<title>2</title>
<path fill="none" stroke="#88d856" stroke-width="2" d="M90.5,-324C90.5,-324 37.5,-324 37.5,-324 31.5,-324 25.5,-318 25.5,-312 25.5,-312 25.5,-300 25.5,-300 25.5,-294 31.5,-288 37.5,-288 37.5,-288 90.5,-288 90.5,-288 96.5,-288 102.5,-294 102.5,-300 102.5,-300 102.5,-312 102.5,-312 102.5,-318 96.5,-324 90.5,-324"/>
<text text-anchor="middle" x="64" y="-303.5" font-family="sans" font-size="10.00" fill="#000000">optim_setup</text>
</g>
<!-- 2&#45;&gt;1 -->
<g id="edge2" class="edge">
<title>2&#45;&gt;1</title>
<path fill="none" stroke="#c0c0c0" stroke-width="2" d="M44.5044,-287.9663C35.4897,-278.2894 25.7449,-265.5757 21,-252 5.0744,-206.4345 23.5612,-150.6384 38.0476,-117.8394"/>
<polygon fill="#c0c0c0" stroke="#c0c0c0" stroke-width="2" points="41.3739,-118.9832 42.3724,-108.4355 35.0142,-116.0583 41.3739,-118.9832"/>
</g>
<!-- 3 -->
<g id="node4" class="node">
<title>3</title>
<path fill="none" stroke="#56c1d8" stroke-width="2" d="M86,-252C86,-252 42,-252 42,-252 36,-252 30,-246 30,-240 30,-240 30,-228 30,-228 30,-222 36,-216 42,-216 42,-216 86,-216 86,-216 92,-216 98,-222 98,-228 98,-228 98,-240 98,-240 98,-246 92,-252 86,-252"/>
<text text-anchor="middle" x="64" y="-231.5" font-family="sans" font-size="10.00" fill="#000000">optim_mM</text>
</g>
<!-- 2&#45;&gt;3 -->
<g id="edge5" class="edge">
<title>2&#45;&gt;3</title>
<path fill="none" stroke="#c0c0c0" stroke-width="2" d="M64,-287.8314C64,-280.131 64,-270.9743 64,-262.4166"/>
<polygon fill="#c0c0c0" stroke="#c0c0c0" stroke-width="2" points="67.5001,-262.4132 64,-252.4133 60.5001,-262.4133 67.5001,-262.4132"/>
</g>
<!-- 4 -->
<g id="node5" class="node">
<title>4</title>
<path fill="none" stroke="#56d88a" stroke-width="2" d="M124,-180C124,-180 92,-180 92,-180 86,-180 80,-174 80,-168 80,-168 80,-156 80,-156 80,-150 86,-144 92,-144 92,-144 124,-144 124,-144 130,-144 136,-150 136,-156 136,-156 136,-168 136,-168 136,-174 130,-180 124,-180"/>
<text text-anchor="middle" x="108" y="-159.5" font-family="sans" font-size="10.00" fill="#000000">optim_n</text>
</g>
<!-- 2&#45;&gt;4 -->
<g id="edge6" class="edge">
<title>2&#45;&gt;4</title>
<path fill="none" stroke="#c0c0c0" stroke-width="2" d="M83.4318,-287.9438C92.4303,-278.2612 102.1798,-265.5492 107,-252 114.0489,-232.1862 113.9626,-208.3307 112.2952,-190.1595"/>
<polygon fill="#c0c0c0" stroke="#c0c0c0" stroke-width="2" points="115.7698,-189.7365 111.1727,-180.1909 108.8137,-190.5198 115.7698,-189.7365"/>
</g>
<!-- 3&#45;&gt;1 -->
<g id="edge3" class="edge">
<title>3&#45;&gt;1</title>
<path fill="none" stroke="#c0c0c0" stroke-width="2" d="M62.4802,-215.7623C60.4334,-191.201 56.7706,-147.2474 54.3628,-118.3541"/>
<polygon fill="#c0c0c0" stroke="#c0c0c0" stroke-width="2" points="57.8259,-117.7644 53.5075,-108.0896 50.8501,-118.3458 57.8259,-117.7644"/>
</g>
<!-- 3&#45;&gt;4 -->
<g id="edge7" class="edge">
<title>3&#45;&gt;4</title>
<path fill="none" stroke="#c0c0c0" stroke-width="2" d="M75.1031,-215.8314C80.0674,-207.7079 86.0222,-197.9637 91.4928,-189.0118"/>
<polygon fill="#c0c0c0" stroke="#c0c0c0" stroke-width="2" points="94.5194,-190.7712 96.7474,-180.4133 88.5464,-187.121 94.5194,-190.7712"/>
</g>
<!-- 4&#45;&gt;1 -->
<g id="edge4" class="edge">
<title>4&#45;&gt;1</title>
<path fill="none" stroke="#c0c0c0" stroke-width="2" d="M93.8688,-143.8314C87.4189,-135.5386 79.6555,-125.557 72.5748,-116.4533"/>
<polygon fill="#c0c0c0" stroke="#c0c0c0" stroke-width="2" points="75.2236,-114.158 66.3214,-108.4133 69.6981,-118.4556 75.2236,-114.158"/>
</g>
</g>
</svg>
