<?xml version="1.0" encoding="UTF-8" standalone="no"?>
<!DOCTYPE svg PUBLIC "-//W3C//DTD SVG 1.1//EN"
 "http://www.w3.org/Graphics/SVG/1.1/DTD/svg11.dtd">
<!-- Generated by graphviz version 2.40.1 (20161225.0304)
 -->
<!-- Title: snakemake_dag Pages: 1 -->
<svg width="707pt" height="1196pt"
 viewBox="0.00 0.00 707.00 1196.00" xmlns="http://www.w3.org/2000/svg" xmlns:xlink="http://www.w3.org/1999/xlink">
<g id="graph0" class="graph" transform="scale(1 1) rotate(0) translate(4 1192)">
<title>snakemake_dag</title>
<polygon fill="#ffffff" stroke="transparent" points="-4,4 -4,-1192 703,-1192 703,4 -4,4"/>
<!-- 0 -->
<g id="node1" class="node">
<title>0</title>
<path fill="none" stroke="#566bd8" stroke-width="2" d="M295,-36C295,-36 265,-36 265,-36 259,-36 253,-30 253,-24 253,-24 253,-12 253,-12 253,-6 259,0 265,0 265,0 295,0 295,0 301,0 307,-6 307,-12 307,-12 307,-24 307,-24 307,-30 301,-36 295,-36"/>
<text text-anchor="middle" x="280" y="-15.5" font-family="sans" font-size="10.00" fill="#000000">target</text>
</g>
<!-- 1 -->
<g id="node2" class="node">
<title>1</title>
<path fill="none" stroke="#59d856" stroke-width="2" d="M259,-252C259,-252 229,-252 229,-252 223,-252 217,-246 217,-240 217,-240 217,-228 217,-228 217,-222 223,-216 229,-216 229,-216 259,-216 259,-216 265,-216 271,-222 271,-228 271,-228 271,-240 271,-240 271,-246 265,-252 259,-252"/>
<text text-anchor="middle" x="244" y="-231.5" font-family="sans" font-size="10.00" fill="#000000">dapc</text>
</g>
<!-- 1&#45;&gt;0 -->
<g id="edge2" class="edge">
<title>1&#45;&gt;0</title>
<path fill="none" stroke="#c0c0c0" stroke-width="2" d="M245.012,-215.8393C246.9409,-185.6851 251.9753,-123.5043 263,-72 264.8428,-63.3908 267.4775,-54.1947 270.1242,-45.8767"/>
<polygon fill="#c0c0c0" stroke="#c0c0c0" stroke-width="2" points="273.4862,-46.8577 273.3061,-36.2644 266.8408,-44.6579 273.4862,-46.8577"/>
</g>
<!-- 2 -->
<g id="node3" class="node">
<title>2</title>
<path fill="none" stroke="#56d8a9" stroke-width="2" d="M347.5,-108C347.5,-108 284.5,-108 284.5,-108 278.5,-108 272.5,-102 272.5,-96 272.5,-96 272.5,-84 272.5,-84 272.5,-78 278.5,-72 284.5,-72 284.5,-72 347.5,-72 347.5,-72 353.5,-72 359.5,-78 359.5,-84 359.5,-84 359.5,-96 359.5,-96 359.5,-102 353.5,-108 347.5,-108"/>
<text text-anchor="middle" x="316" y="-87.5" font-family="sans" font-size="10.00" fill="#000000">plot_bayescan</text>
</g>
<!-- 2&#45;&gt;0 -->
<g id="edge1" class="edge">
<title>2&#45;&gt;0</title>
<path fill="none" stroke="#c0c0c0" stroke-width="2" d="M306.9157,-71.8314C302.9385,-63.8771 298.1845,-54.369 293.7861,-45.5723"/>
<polygon fill="#c0c0c0" stroke="#c0c0c0" stroke-width="2" points="296.8093,-43.7923 289.2066,-36.4133 290.5483,-46.9228 296.8093,-43.7923"/>
</g>
<!-- 3 -->
<g id="node4" class="node">
<title>3</title>
<path fill="none" stroke="#d88d56" stroke-width="2" d="M606,-108C606,-108 550,-108 550,-108 544,-108 538,-102 538,-96 538,-96 538,-84 538,-84 538,-78 544,-72 550,-72 550,-72 606,-72 606,-72 612,-72 618,-78 618,-84 618,-84 618,-96 618,-96 618,-102 612,-108 606,-108"/>
<text text-anchor="middle" x="578" y="-87.5" font-family="sans" font-size="10.00" fill="#000000">generate_sfs</text>
</g>
<!-- 3&#45;&gt;0 -->
<g id="edge3" class="edge">
<title>3&#45;&gt;0</title>
<path fill="none" stroke="#c0c0c0" stroke-width="2" d="M537.8104,-80.2898C479.7808,-66.2692 373.3355,-40.5509 317.0893,-26.9612"/>
<polygon fill="#c0c0c0" stroke="#c0c0c0" stroke-width="2" points="317.7364,-23.5169 307.1941,-24.5704 316.0924,-30.3211 317.7364,-23.5169"/>
</g>
<!-- 4 -->
<g id="node5" class="node">
<title>4</title>
<path fill="none" stroke="#ced856" stroke-width="2" d="M75.5,-324C75.5,-324 40.5,-324 40.5,-324 34.5,-324 28.5,-318 28.5,-312 28.5,-312 28.5,-300 28.5,-300 28.5,-294 34.5,-288 40.5,-288 40.5,-288 75.5,-288 75.5,-288 81.5,-288 87.5,-294 87.5,-300 87.5,-300 87.5,-312 87.5,-312 87.5,-318 81.5,-324 75.5,-324"/>
<text text-anchor="middle" x="58" y="-303.5" font-family="sans" font-size="10.00" fill="#000000">run_rehh</text>
</g>
<!-- 4&#45;&gt;0 -->
<g id="edge4" class="edge">
<title>4&#45;&gt;0</title>
<path fill="none" stroke="#c0c0c0" stroke-width="2" d="M59.2699,-287.8059C62.285,-255.956 72.2058,-189.1944 104,-144 140.0312,-92.7829 203.7293,-54.8553 243.8081,-34.6176"/>
<polygon fill="#c0c0c0" stroke="#c0c0c0" stroke-width="2" points="245.5501,-37.6609 252.9655,-30.0937 242.4496,-31.385 245.5501,-37.6609"/>
</g>
<!-- 5 -->
<g id="node6" class="node">
<title>5</title>
<path fill="none" stroke="#56d0d8" stroke-width="2" d="M425,-468C425,-468 327,-468 327,-468 321,-468 315,-462 315,-456 315,-456 315,-444 315,-444 315,-438 321,-432 327,-432 327,-432 425,-432 425,-432 431,-432 437,-438 437,-444 437,-444 437,-456 437,-456 437,-462 431,-468 425,-468"/>
<text text-anchor="middle" x="376" y="-447.5" font-family="sans" font-size="10.00" fill="#000000">filter_populations_vcf</text>
</g>
<!-- 5&#45;&gt;1 -->
<g id="edge6" class="edge">
<title>5&#45;&gt;1</title>
<path fill="none" stroke="#c0c0c0" stroke-width="2" d="M330.417,-431.931C313.9266,-423.3151 296.5436,-411.4539 285,-396 255.312,-356.2556 246.9918,-297.3288 244.7396,-262.5773"/>
<polygon fill="#c0c0c0" stroke="#c0c0c0" stroke-width="2" points="248.2147,-262.0044 244.2022,-252.1988 241.2241,-262.3664 248.2147,-262.0044"/>
</g>
<!-- 5&#45;&gt;2 -->
<g id="edge9" class="edge">
<title>5&#45;&gt;2</title>
<path fill="none" stroke="#c0c0c0" stroke-width="2" d="M350.2778,-431.9213C338.7181,-422.496 325.9224,-410.0124 318,-396 297.8794,-360.4125 299,-346.8816 299,-306 299,-306 299,-306 299,-234 299,-193.5973 305.6819,-147.2552 310.6674,-118.3013"/>
<polygon fill="#c0c0c0" stroke="#c0c0c0" stroke-width="2" points="314.1757,-118.5623 312.4776,-108.1045 307.2835,-117.3387 314.1757,-118.5623"/>
</g>
<!-- 5&#45;&gt;3 -->
<g id="edge12" class="edge">
<title>5&#45;&gt;3</title>
<path fill="none" stroke="#c0c0c0" stroke-width="2" d="M428.5261,-431.9897C451.2259,-422.9592 477.4612,-410.7762 499,-396 573.3764,-344.9759 607.6287,-335.3902 642,-252 652.2562,-227.1168 629.6678,-145.3222 629,-144 623.7029,-133.5131 615.7165,-123.651 607.6259,-115.2972"/>
<polygon fill="#c0c0c0" stroke="#c0c0c0" stroke-width="2" points="609.8373,-112.5643 600.2407,-108.0747 604.943,-117.5689 609.8373,-112.5643"/>
</g>
<!-- 6 -->
<g id="node7" class="node">
<title>6</title>
<path fill="none" stroke="#68d856" stroke-width="2" d="M396.5,-324C396.5,-324 355.5,-324 355.5,-324 349.5,-324 343.5,-318 343.5,-312 343.5,-312 343.5,-300 343.5,-300 343.5,-294 349.5,-288 355.5,-288 355.5,-288 396.5,-288 396.5,-288 402.5,-288 408.5,-294 408.5,-300 408.5,-300 408.5,-312 408.5,-312 408.5,-318 402.5,-324 396.5,-324"/>
<text text-anchor="middle" x="376" y="-303.5" font-family="sans" font-size="10.00" fill="#000000">prune_vcf</text>
</g>
<!-- 5&#45;&gt;6 -->
<g id="edge22" class="edge">
<title>5&#45;&gt;6</title>
<path fill="none" stroke="#c0c0c0" stroke-width="2" d="M403.9609,-431.862C415.554,-422.6621 427.7402,-410.3809 434,-396 440.3858,-381.3296 440.3858,-374.6704 434,-360 429.1585,-348.8773 420.7717,-339.0106 411.8561,-330.8541"/>
<polygon fill="#c0c0c0" stroke="#c0c0c0" stroke-width="2" points="413.8456,-327.9515 403.9609,-324.138 409.31,-333.2833 413.8456,-327.9515"/>
</g>
<!-- 11 -->
<g id="node12" class="node">
<title>11</title>
<path fill="none" stroke="#88d856" stroke-width="2" d="M199.5,-396C199.5,-396 118.5,-396 118.5,-396 112.5,-396 106.5,-390 106.5,-384 106.5,-384 106.5,-372 106.5,-372 106.5,-366 112.5,-360 118.5,-360 118.5,-360 199.5,-360 199.5,-360 205.5,-360 211.5,-366 211.5,-372 211.5,-372 211.5,-384 211.5,-384 211.5,-390 205.5,-396 199.5,-396"/>
<text text-anchor="middle" x="159" y="-375.5" font-family="sans" font-size="10.00" fill="#000000">generic_index_vcf</text>
</g>
<!-- 5&#45;&gt;11 -->
<g id="edge30" class="edge">
<title>5&#45;&gt;11</title>
<path fill="none" stroke="#c0c0c0" stroke-width="2" d="M321.5218,-431.9243C291.0298,-421.8071 252.8955,-409.1543 221.2307,-398.648"/>
<polygon fill="#c0c0c0" stroke="#c0c0c0" stroke-width="2" points="222.2204,-395.2888 211.627,-395.4615 220.016,-401.9326 222.2204,-395.2888"/>
</g>
<!-- 14 -->
<g id="node15" class="node">
<title>14</title>
<path fill="none" stroke="#d86656" stroke-width="2" d="M413,-396C413,-396 339,-396 339,-396 333,-396 327,-390 327,-384 327,-384 327,-372 327,-372 327,-366 333,-360 339,-360 339,-360 413,-360 413,-360 419,-360 425,-366 425,-372 425,-372 425,-384 425,-384 425,-390 419,-396 413,-396"/>
<text text-anchor="middle" x="376" y="-375.5" font-family="sans" font-size="10.00" fill="#000000">list_pruned_snps</text>
</g>
<!-- 5&#45;&gt;14 -->
<g id="edge33" class="edge">
<title>5&#45;&gt;14</title>
<path fill="none" stroke="#c0c0c0" stroke-width="2" d="M376,-431.8314C376,-424.131 376,-414.9743 376,-406.4166"/>
<polygon fill="#c0c0c0" stroke="#c0c0c0" stroke-width="2" points="379.5001,-406.4132 376,-396.4133 372.5001,-406.4133 379.5001,-406.4132"/>
</g>
<!-- 16 -->
<g id="node17" class="node">
<title>16</title>
<path fill="none" stroke="#56d87b" stroke-width="2" d="M492.5,-252C492.5,-252 415.5,-252 415.5,-252 409.5,-252 403.5,-246 403.5,-240 403.5,-240 403.5,-228 403.5,-228 403.5,-222 409.5,-216 415.5,-216 415.5,-216 492.5,-216 492.5,-216 498.5,-216 504.5,-222 504.5,-228 504.5,-228 504.5,-240 504.5,-240 504.5,-246 498.5,-252 492.5,-252"/>
<text text-anchor="middle" x="454" y="-231.5" font-family="sans" font-size="10.00" fill="#000000">convert_to_geste</text>
</g>
<!-- 5&#45;&gt;16 -->
<g id="edge37" class="edge">
<title>5&#45;&gt;16</title>
<path fill="none" stroke="#c0c0c0" stroke-width="2" d="M413.6095,-431.9795C427.6138,-423.2035 442.0296,-411.2152 450,-396 472.1463,-353.7234 466.6982,-296.3399 460.5022,-262.4352"/>
<polygon fill="#c0c0c0" stroke="#c0c0c0" stroke-width="2" points="463.8717,-261.4322 458.4983,-252.3011 457.0047,-262.7901 463.8717,-261.4322"/>
</g>
<!-- 20 -->
<g id="node21" class="node">
<title>20</title>
<path fill="none" stroke="#d8ac56" stroke-width="2" d="M621,-252C621,-252 535,-252 535,-252 529,-252 523,-246 523,-240 523,-240 523,-228 523,-228 523,-222 529,-216 535,-216 535,-216 621,-216 621,-216 627,-216 633,-222 633,-228 633,-228 633,-240 633,-240 633,-246 627,-252 621,-252"/>
<text text-anchor="middle" x="578" y="-231.5" font-family="sans" font-size="10.00" fill="#000000">preview_projection</text>
</g>
<!-- 5&#45;&gt;20 -->
<g id="edge43" class="edge">
<title>5&#45;&gt;20</title>
<path fill="none" stroke="#c0c0c0" stroke-width="2" d="M416.6862,-431.8764C434.3348,-422.7535 454.4697,-410.5295 470,-396 512.8688,-355.8939 547.2781,-295.6463 564.9761,-261.0435"/>
<polygon fill="#c0c0c0" stroke="#c0c0c0" stroke-width="2" points="568.1567,-262.509 569.5178,-252.0019 561.9015,-259.3668 568.1567,-262.509"/>
</g>
<!-- 6&#45;&gt;1 -->
<g id="edge5" class="edge">
<title>6&#45;&gt;1</title>
<path fill="none" stroke="#c0c0c0" stroke-width="2" d="M343.3708,-288.2022C324.2575,-277.7768 300.0773,-264.5876 280.355,-253.83"/>
<polygon fill="#c0c0c0" stroke="#c0c0c0" stroke-width="2" points="281.813,-250.6385 271.358,-248.9225 278.461,-256.7838 281.813,-250.6385"/>
</g>
<!-- 6&#45;&gt;2 -->
<g id="edge7" class="edge">
<title>6&#45;&gt;2</title>
<path fill="none" stroke="#c0c0c0" stroke-width="2" d="M370.9876,-287.9555C360.5097,-250.235 336.2275,-162.8188 323.7333,-117.8399"/>
<polygon fill="#c0c0c0" stroke="#c0c0c0" stroke-width="2" points="327.0891,-116.8435 321.0403,-108.1451 320.3445,-118.717 327.0891,-116.8435"/>
</g>
<!-- 6&#45;&gt;3 -->
<g id="edge11" class="edge">
<title>6&#45;&gt;3</title>
<path fill="none" stroke="#c0c0c0" stroke-width="2" d="M375.7217,-287.9315C376.2586,-268.6071 379.5942,-237.8032 394,-216 403.533,-201.5718 489.3812,-145.9114 540.3796,-113.5989"/>
<polygon fill="#c0c0c0" stroke="#c0c0c0" stroke-width="2" points="542.2771,-116.5401 548.8592,-108.2378 538.5364,-110.6234 542.2771,-116.5401"/>
</g>
<!-- 6&#45;&gt;16 -->
<g id="edge35" class="edge">
<title>6&#45;&gt;16</title>
<path fill="none" stroke="#c0c0c0" stroke-width="2" d="M395.6827,-287.8314C405.1051,-279.1337 416.5401,-268.5783 426.7796,-259.1265"/>
<polygon fill="#c0c0c0" stroke="#c0c0c0" stroke-width="2" points="429.3495,-261.5175 434.3236,-252.1628 424.6016,-256.3738 429.3495,-261.5175"/>
</g>
<!-- 6&#45;&gt;20 -->
<g id="edge42" class="edge">
<title>6&#45;&gt;20</title>
<path fill="none" stroke="#c0c0c0" stroke-width="2" d="M408.9044,-294.2717C438.2322,-283.8182 481.8987,-268.2539 517.5109,-255.5605"/>
<polygon fill="#c0c0c0" stroke="#c0c0c0" stroke-width="2" points="519.0788,-258.7174 527.3232,-252.063 516.7286,-252.1237 519.0788,-258.7174"/>
</g>
<!-- 7 -->
<g id="node8" class="node">
<title>7</title>
<path fill="none" stroke="#56d88a" stroke-width="2" d="M416.5,-180C416.5,-180 377.5,-180 377.5,-180 371.5,-180 365.5,-174 365.5,-168 365.5,-168 365.5,-156 365.5,-156 365.5,-150 371.5,-144 377.5,-144 377.5,-144 416.5,-144 416.5,-144 422.5,-144 428.5,-150 428.5,-156 428.5,-156 428.5,-168 428.5,-168 428.5,-174 422.5,-180 416.5,-180"/>
<text text-anchor="middle" x="397" y="-159.5" font-family="sans" font-size="10.00" fill="#000000">bayescan</text>
</g>
<!-- 7&#45;&gt;2 -->
<g id="edge10" class="edge">
<title>7&#45;&gt;2</title>
<path fill="none" stroke="#c0c0c0" stroke-width="2" d="M376.5603,-143.8314C366.6795,-135.0485 354.6676,-124.3712 343.955,-114.8489"/>
<polygon fill="#c0c0c0" stroke="#c0c0c0" stroke-width="2" points="346.2326,-112.1906 336.4332,-108.1628 341.582,-117.4224 346.2326,-112.1906"/>
</g>
<!-- 8 -->
<g id="node9" class="node">
<title>8</title>
<path fill="none" stroke="#56d8d0" stroke-width="2" d="M217.5,-1188C217.5,-1188 152.5,-1188 152.5,-1188 146.5,-1188 140.5,-1182 140.5,-1176 140.5,-1176 140.5,-1164 140.5,-1164 140.5,-1158 146.5,-1152 152.5,-1152 152.5,-1152 217.5,-1152 217.5,-1152 223.5,-1152 229.5,-1158 229.5,-1164 229.5,-1164 229.5,-1176 229.5,-1176 229.5,-1182 223.5,-1188 217.5,-1188"/>
<text text-anchor="middle" x="185" y="-1167.5" font-family="sans" font-size="10.00" fill="#000000">index_genome</text>
</g>
<!-- 8&#45;&gt;2 -->
<g id="edge8" class="edge">
<title>8&#45;&gt;2</title>
<path fill="none" stroke="#c0c0c0" stroke-width="2" d="M158.6141,-1151.9342C126.3553,-1127.4749 76,-1080.5568 76,-1026 76,-1026 76,-1026 76,-666 76,-564.231 0,-551.769 0,-450 0,-450 0,-450 0,-234 0,-172.8731 49.8199,-172.3022 104,-144 154.2829,-117.7335 218.0596,-103.735 262.4665,-96.6304"/>
<polygon fill="#c0c0c0" stroke="#c0c0c0" stroke-width="2" points="263.1229,-100.0707 272.4756,-95.0931 262.0601,-93.1519 263.1229,-100.0707"/>
</g>
<!-- 8&#45;&gt;4 -->
<g id="edge15" class="edge">
<title>8&#45;&gt;4</title>
<path fill="none" stroke="#c0c0c0" stroke-width="2" d="M140.4868,-1160.7134C114.1152,-1152.9953 82.0395,-1139.3686 62,-1116 35.0515,-1084.5746 38,-1067.3978 38,-1026 38,-1026 38,-1026 38,-450 38,-409.3124 45.9304,-362.7676 51.8037,-333.8757"/>
<polygon fill="#c0c0c0" stroke="#c0c0c0" stroke-width="2" points="55.2324,-334.5786 53.856,-324.0735 48.3809,-333.144 55.2324,-334.5786"/>
</g>
<!-- 9 -->
<g id="node10" class="node">
<title>9</title>
<path fill="none" stroke="#567bd8" stroke-width="2" d="M536.5,-684C536.5,-684 453.5,-684 453.5,-684 447.5,-684 441.5,-678 441.5,-672 441.5,-672 441.5,-660 441.5,-660 441.5,-654 447.5,-648 453.5,-648 453.5,-648 536.5,-648 536.5,-648 542.5,-648 548.5,-654 548.5,-660 548.5,-660 548.5,-672 548.5,-672 548.5,-678 542.5,-684 536.5,-684"/>
<text text-anchor="middle" x="495" y="-663.5" font-family="sans" font-size="10.00" fill="#000000">generate_whitelist</text>
</g>
<!-- 8&#45;&gt;9 -->
<g id="edge25" class="edge">
<title>8&#45;&gt;9</title>
<path fill="none" stroke="#c0c0c0" stroke-width="2" d="M229.6049,-1159.548C316.7105,-1137.8348 501,-1084.9323 501,-1026 501,-1026 501,-1026 501,-810 501,-769.8412 498.6417,-723.4372 496.8821,-694.4031"/>
<polygon fill="#c0c0c0" stroke="#c0c0c0" stroke-width="2" points="500.3599,-693.9376 496.2432,-684.1753 493.3736,-694.3741 500.3599,-693.9376"/>
</g>
<!-- 25 -->
<g id="node26" class="node">
<title>25</title>
<path fill="none" stroke="#d87556" stroke-width="2" d="M276,-1116C276,-1116 206,-1116 206,-1116 200,-1116 194,-1110 194,-1104 194,-1104 194,-1092 194,-1092 194,-1086 200,-1080 206,-1080 206,-1080 276,-1080 276,-1080 282,-1080 288,-1086 288,-1092 288,-1092 288,-1104 288,-1104 288,-1110 282,-1116 276,-1116"/>
<text text-anchor="middle" x="241" y="-1095.5" font-family="sans" font-size="10.00" fill="#000000">add_vcf_header</text>
</g>
<!-- 8&#45;&gt;25 -->
<g id="edge51" class="edge">
<title>8&#45;&gt;25</title>
<path fill="none" stroke="#c0c0c0" stroke-width="2" d="M199.1312,-1151.8314C205.5811,-1143.5386 213.3445,-1133.557 220.4252,-1124.4533"/>
<polygon fill="#c0c0c0" stroke="#c0c0c0" stroke-width="2" points="223.3019,-1126.4556 226.6786,-1116.4133 217.7764,-1122.158 223.3019,-1126.4556"/>
</g>
<!-- 9&#45;&gt;3 -->
<g id="edge14" class="edge">
<title>9&#45;&gt;3</title>
<path fill="none" stroke="#c0c0c0" stroke-width="2" d="M548.5986,-653.1168C609.0403,-635.0164 699,-595.6973 699,-522 699,-522 699,-522 699,-234 699,-182.0034 652.1856,-138.9786 616.7949,-113.8817"/>
<polygon fill="#c0c0c0" stroke="#c0c0c0" stroke-width="2" points="618.7554,-110.9822 608.5334,-108.1961 614.7868,-116.7486 618.7554,-110.9822"/>
</g>
<!-- 9&#45;&gt;5 -->
<g id="edge19" class="edge">
<title>9&#45;&gt;5</title>
<path fill="none" stroke="#c0c0c0" stroke-width="2" d="M451.2362,-647.9649C435.1357,-639.3003 418.1346,-627.3959 407,-612 378.3057,-572.324 374.1132,-513.3743 374.4927,-478.6"/>
<polygon fill="#c0c0c0" stroke="#c0c0c0" stroke-width="2" points="378.0012,-478.2982 374.7513,-468.2141 371.0034,-478.1239 378.0012,-478.2982"/>
</g>
<!-- 15 -->
<g id="node16" class="node">
<title>15</title>
<path fill="none" stroke="#d8bc56" stroke-width="2" d="M542.5,-612C542.5,-612 427.5,-612 427.5,-612 421.5,-612 415.5,-606 415.5,-600 415.5,-600 415.5,-588 415.5,-588 415.5,-582 421.5,-576 427.5,-576 427.5,-576 542.5,-576 542.5,-576 548.5,-576 554.5,-582 554.5,-588 554.5,-588 554.5,-600 554.5,-600 554.5,-606 548.5,-612 542.5,-612"/>
<text text-anchor="middle" x="485" y="-591.5" font-family="sans" font-size="10.00" fill="#000000">generate_rlpara_popmap</text>
</g>
<!-- 9&#45;&gt;15 -->
<g id="edge34" class="edge">
<title>9&#45;&gt;15</title>
<path fill="none" stroke="#c0c0c0" stroke-width="2" d="M492.4766,-647.8314C491.4071,-640.131 490.1353,-630.9743 488.9468,-622.4166"/>
<polygon fill="#c0c0c0" stroke="#c0c0c0" stroke-width="2" points="492.3999,-621.8367 487.5574,-612.4133 485.4664,-622.7997 492.3999,-621.8367"/>
</g>
<!-- 9&#45;&gt;20 -->
<g id="edge44" class="edge">
<title>9&#45;&gt;20</title>
<path fill="none" stroke="#c0c0c0" stroke-width="2" d="M543.9076,-647.8165C592.8735,-626.0691 661,-584.569 661,-522 661,-522 661,-522 661,-378 661,-331.5145 628.1317,-286.51 603.7624,-259.5311"/>
<polygon fill="#c0c0c0" stroke="#c0c0c0" stroke-width="2" points="606.2082,-257.0215 596.834,-252.0844 601.0833,-261.7898 606.2082,-257.0215"/>
</g>
<!-- 23 -->
<g id="node24" class="node">
<title>23</title>
<path fill="none" stroke="#9fd856" stroke-width="2" d="M583.5,-468C583.5,-468 540.5,-468 540.5,-468 534.5,-468 528.5,-462 528.5,-456 528.5,-456 528.5,-444 528.5,-444 528.5,-438 534.5,-432 540.5,-432 540.5,-432 583.5,-432 583.5,-432 589.5,-432 595.5,-438 595.5,-444 595.5,-444 595.5,-456 595.5,-456 595.5,-462 589.5,-468 583.5,-468"/>
<text text-anchor="middle" x="562" y="-447.5" font-family="sans" font-size="10.00" fill="#000000">write_spid</text>
</g>
<!-- 9&#45;&gt;23 -->
<g id="edge49" class="edge">
<title>9&#45;&gt;23</title>
<path fill="none" stroke="#c0c0c0" stroke-width="2" d="M529.274,-647.8679C542.5454,-638.9499 556.3595,-626.8864 564,-612 585.7878,-569.5498 577.8216,-512.2227 569.9675,-478.3759"/>
<polygon fill="#c0c0c0" stroke="#c0c0c0" stroke-width="2" points="573.2632,-477.1241 567.4593,-468.2604 566.469,-478.8088 573.2632,-477.1241"/>
</g>
<!-- 10 -->
<g id="node11" class="node">
<title>10</title>
<path fill="none" stroke="#56a9d8" stroke-width="2" d="M607.5,-180C607.5,-180 548.5,-180 548.5,-180 542.5,-180 536.5,-174 536.5,-168 536.5,-168 536.5,-156 536.5,-156 536.5,-150 542.5,-144 548.5,-144 548.5,-144 607.5,-144 607.5,-144 613.5,-144 619.5,-150 619.5,-156 619.5,-156 619.5,-168 619.5,-168 619.5,-174 613.5,-180 607.5,-180"/>
<text text-anchor="middle" x="578" y="-159.5" font-family="sans" font-size="10.00" fill="#000000">get_best_proj</text>
</g>
<!-- 10&#45;&gt;3 -->
<g id="edge13" class="edge">
<title>10&#45;&gt;3</title>
<path fill="none" stroke="#c0c0c0" stroke-width="2" d="M578,-143.8314C578,-136.131 578,-126.9743 578,-118.4166"/>
<polygon fill="#c0c0c0" stroke="#c0c0c0" stroke-width="2" points="581.5001,-118.4132 578,-108.4133 574.5001,-118.4133 581.5001,-118.4132"/>
</g>
<!-- 11&#45;&gt;4 -->
<g id="edge16" class="edge">
<title>11&#45;&gt;4</title>
<path fill="none" stroke="#c0c0c0" stroke-width="2" d="M133.5134,-359.8314C120.8341,-350.7927 105.3404,-339.7476 91.6945,-330.0198"/>
<polygon fill="#c0c0c0" stroke="#c0c0c0" stroke-width="2" points="93.6529,-327.1176 83.4784,-324.1628 89.5895,-332.8176 93.6529,-327.1176"/>
</g>
<!-- 26 -->
<g id="node27" class="node">
<title>26</title>
<path fill="none" stroke="#bed856" stroke-width="2" d="M162,-324C162,-324 118,-324 118,-324 112,-324 106,-318 106,-312 106,-312 106,-300 106,-300 106,-294 112,-288 118,-288 118,-288 162,-288 162,-288 168,-288 174,-294 174,-300 174,-300 174,-312 174,-312 174,-318 168,-324 162,-324"/>
<text text-anchor="middle" x="140" y="-303.5" font-family="sans" font-size="10.00" fill="#000000">rmdup_vcf</text>
</g>
<!-- 11&#45;&gt;26 -->
<g id="edge52" class="edge">
<title>11&#45;&gt;26</title>
<path fill="none" stroke="#c0c0c0" stroke-width="2" d="M154.2055,-359.8314C152.1511,-352.0463 149.704,-342.7729 147.4244,-334.1347"/>
<polygon fill="#c0c0c0" stroke="#c0c0c0" stroke-width="2" points="150.7948,-333.1892 144.8591,-324.4133 144.0265,-334.9753 150.7948,-333.1892"/>
</g>
<!-- 12 -->
<g id="node13" class="node">
<title>12</title>
<path fill="none" stroke="#afd856" stroke-width="2" d="M319.5,-972C319.5,-972 280.5,-972 280.5,-972 274.5,-972 268.5,-966 268.5,-960 268.5,-960 268.5,-948 268.5,-948 268.5,-942 274.5,-936 280.5,-936 280.5,-936 319.5,-936 319.5,-936 325.5,-936 331.5,-942 331.5,-948 331.5,-948 331.5,-960 331.5,-960 331.5,-966 325.5,-972 319.5,-972"/>
<text text-anchor="middle" x="300" y="-951.5" font-family="sans" font-size="10.00" fill="#000000">bgzip_vcf</text>
</g>
<!-- 12&#45;&gt;5 -->
<g id="edge17" class="edge">
<title>12&#45;&gt;5</title>
<path fill="none" stroke="#c0c0c0" stroke-width="2" d="M293.6378,-935.615C284.8315,-908.4838 270,-855.9662 270,-810 270,-810 270,-810 270,-594 270,-544.2737 311.5023,-500.3969 342.5689,-474.5185"/>
<polygon fill="#c0c0c0" stroke="#c0c0c0" stroke-width="2" points="345.032,-477.0282 350.6104,-468.0208 340.6325,-471.5835 345.032,-477.0282"/>
</g>
<!-- 13 -->
<g id="node14" class="node">
<title>13</title>
<path fill="none" stroke="#d8d356" stroke-width="2" d="M350,-900C350,-900 310,-900 310,-900 304,-900 298,-894 298,-888 298,-888 298,-876 298,-876 298,-870 304,-864 310,-864 310,-864 350,-864 350,-864 356,-864 362,-870 362,-876 362,-876 362,-888 362,-888 362,-894 356,-900 350,-900"/>
<text text-anchor="middle" x="330" y="-879.5" font-family="sans" font-size="10.00" fill="#000000">index_vcf</text>
</g>
<!-- 12&#45;&gt;13 -->
<g id="edge32" class="edge">
<title>12&#45;&gt;13</title>
<path fill="none" stroke="#c0c0c0" stroke-width="2" d="M307.5703,-935.8314C310.8493,-927.9617 314.762,-918.5712 318.3945,-909.8533"/>
<polygon fill="#c0c0c0" stroke="#c0c0c0" stroke-width="2" points="321.7124,-910.9902 322.3278,-900.4133 315.2508,-908.2979 321.7124,-910.9902"/>
</g>
<!-- 18 -->
<g id="node19" class="node">
<title>18</title>
<path fill="none" stroke="#78d856" stroke-width="2" d="M410.5,-828C410.5,-828 369.5,-828 369.5,-828 363.5,-828 357.5,-822 357.5,-816 357.5,-816 357.5,-804 357.5,-804 357.5,-798 363.5,-792 369.5,-792 369.5,-792 410.5,-792 410.5,-792 416.5,-792 422.5,-798 422.5,-804 422.5,-804 422.5,-816 422.5,-816 422.5,-822 416.5,-828 410.5,-828"/>
<text text-anchor="middle" x="390" y="-807.5" font-family="sans" font-size="10.00" fill="#000000">locusfilter</text>
</g>
<!-- 12&#45;&gt;18 -->
<g id="edge39" class="edge">
<title>12&#45;&gt;18</title>
<path fill="none" stroke="#c0c0c0" stroke-width="2" d="M331.8572,-936.8331C345.9134,-927.6895 361.3921,-915.179 371,-900 382.6921,-881.5282 387.3128,-857.0762 389.0814,-838.3217"/>
<polygon fill="#c0c0c0" stroke="#c0c0c0" stroke-width="2" points="392.5759,-838.5227 389.8113,-828.295 385.5944,-838.0144 392.5759,-838.5227"/>
</g>
<!-- 13&#45;&gt;5 -->
<g id="edge21" class="edge">
<title>13&#45;&gt;5</title>
<path fill="none" stroke="#c0c0c0" stroke-width="2" d="M327.3064,-863.862C323.4986,-836.6061 317,-783.434 317,-738 317,-738 317,-738 317,-594 317,-550.5511 340.2838,-504.8635 357.5974,-476.8967"/>
<polygon fill="#c0c0c0" stroke="#c0c0c0" stroke-width="2" points="360.7689,-478.4331 363.1979,-468.1204 354.868,-474.6675 360.7689,-478.4331"/>
</g>
<!-- 13&#45;&gt;18 -->
<g id="edge40" class="edge">
<title>13&#45;&gt;18</title>
<path fill="none" stroke="#c0c0c0" stroke-width="2" d="M345.1405,-863.8314C352.1217,-855.454 360.5391,-845.3531 368.1876,-836.1749"/>
<polygon fill="#c0c0c0" stroke="#c0c0c0" stroke-width="2" points="370.9425,-838.3362 374.6556,-828.4133 365.5649,-833.8548 370.9425,-838.3362"/>
</g>
<!-- 14&#45;&gt;6 -->
<g id="edge23" class="edge">
<title>14&#45;&gt;6</title>
<path fill="none" stroke="#c0c0c0" stroke-width="2" d="M376,-359.8314C376,-352.131 376,-342.9743 376,-334.4166"/>
<polygon fill="#c0c0c0" stroke="#c0c0c0" stroke-width="2" points="379.5001,-334.4132 376,-324.4133 372.5001,-334.4133 379.5001,-334.4132"/>
</g>
<!-- 15&#45;&gt;5 -->
<g id="edge20" class="edge">
<title>15&#45;&gt;5</title>
<path fill="none" stroke="#c0c0c0" stroke-width="2" d="M453.5436,-575.8329C439.6445,-566.55 423.9981,-554.2098 413,-540 398.6918,-521.5134 389.0412,-496.7165 383.1936,-477.8324"/>
<polygon fill="#c0c0c0" stroke="#c0c0c0" stroke-width="2" points="386.4932,-476.6454 380.3307,-468.0271 379.7738,-478.6073 386.4932,-476.6454"/>
</g>
<!-- 17 -->
<g id="node18" class="node">
<title>17</title>
<path fill="none" stroke="#56d89a" stroke-width="2" d="M526.5,-540C526.5,-540 433.5,-540 433.5,-540 427.5,-540 421.5,-534 421.5,-528 421.5,-528 421.5,-516 421.5,-516 421.5,-510 427.5,-504 433.5,-504 433.5,-504 526.5,-504 526.5,-504 532.5,-504 538.5,-510 538.5,-516 538.5,-516 538.5,-528 538.5,-528 538.5,-534 532.5,-540 526.5,-540"/>
<text text-anchor="middle" x="480" y="-519.5" font-family="sans" font-size="10.00" fill="#000000">generate_rl_popmap</text>
</g>
<!-- 15&#45;&gt;17 -->
<g id="edge38" class="edge">
<title>15&#45;&gt;17</title>
<path fill="none" stroke="#c0c0c0" stroke-width="2" d="M483.7383,-575.8314C483.2035,-568.131 482.5677,-558.9743 481.9734,-550.4166"/>
<polygon fill="#c0c0c0" stroke="#c0c0c0" stroke-width="2" points="485.4632,-550.1467 481.2787,-540.4133 478.48,-550.6317 485.4632,-550.1467"/>
</g>
<!-- 15&#45;&gt;23 -->
<g id="edge47" class="edge">
<title>15&#45;&gt;23</title>
<path fill="none" stroke="#c0c0c0" stroke-width="2" d="M514.2706,-575.8303C526.641,-566.6241 540.0082,-554.3465 548,-540 558.4854,-521.1771 561.7751,-496.8947 562.5586,-478.2969"/>
<polygon fill="#c0c0c0" stroke="#c0c0c0" stroke-width="2" points="566.062,-478.157 562.7657,-468.088 559.0635,-478.0149 566.062,-478.157"/>
</g>
<!-- 16&#45;&gt;7 -->
<g id="edge24" class="edge">
<title>16&#45;&gt;7</title>
<path fill="none" stroke="#c0c0c0" stroke-width="2" d="M439.6165,-215.8314C433.0514,-207.5386 425.1493,-197.557 417.9422,-188.4533"/>
<polygon fill="#c0c0c0" stroke="#c0c0c0" stroke-width="2" points="420.5284,-186.0813 411.5772,-180.4133 415.0401,-190.4262 420.5284,-186.0813"/>
</g>
<!-- 17&#45;&gt;5 -->
<g id="edge18" class="edge">
<title>17&#45;&gt;5</title>
<path fill="none" stroke="#c0c0c0" stroke-width="2" d="M453.7564,-503.8314C440.7005,-494.7927 424.7465,-483.7476 410.6953,-474.0198"/>
<polygon fill="#c0c0c0" stroke="#c0c0c0" stroke-width="2" points="412.4494,-470.9773 402.2352,-468.1628 408.4649,-476.7326 412.4494,-470.9773"/>
</g>
<!-- 17&#45;&gt;23 -->
<g id="edge48" class="edge">
<title>17&#45;&gt;23</title>
<path fill="none" stroke="#c0c0c0" stroke-width="2" d="M500.6921,-503.8314C510.6948,-495.0485 522.855,-484.3712 533.6999,-474.8489"/>
<polygon fill="#c0c0c0" stroke="#c0c0c0" stroke-width="2" points="536.1094,-477.3909 541.3146,-468.1628 531.4908,-472.1308 536.1094,-477.3909"/>
</g>
<!-- 18&#45;&gt;9 -->
<g id="edge27" class="edge">
<title>18&#45;&gt;9</title>
<path fill="none" stroke="#c0c0c0" stroke-width="2" d="M410.1343,-791.8342C420.605,-781.8311 433.222,-768.8627 443,-756 458.0655,-736.1818 471.9943,-711.5876 481.6367,-693.1199"/>
<polygon fill="#c0c0c0" stroke="#c0c0c0" stroke-width="2" points="484.8242,-694.5741 486.2716,-684.0786 478.5951,-691.3808 484.8242,-694.5741"/>
</g>
<!-- 19 -->
<g id="node20" class="node">
<title>19</title>
<path fill="none" stroke="#568ad8" stroke-width="2" d="M422.5,-756C422.5,-756 357.5,-756 357.5,-756 351.5,-756 345.5,-750 345.5,-744 345.5,-744 345.5,-732 345.5,-732 345.5,-726 351.5,-720 357.5,-720 357.5,-720 422.5,-720 422.5,-720 428.5,-720 434.5,-726 434.5,-732 434.5,-732 434.5,-744 434.5,-744 434.5,-750 428.5,-756 422.5,-756"/>
<text text-anchor="middle" x="390" y="-735.5" font-family="sans" font-size="10.00" fill="#000000">stats_postfilter</text>
</g>
<!-- 18&#45;&gt;19 -->
<g id="edge41" class="edge">
<title>18&#45;&gt;19</title>
<path fill="none" stroke="#c0c0c0" stroke-width="2" d="M390,-791.8314C390,-784.131 390,-774.9743 390,-766.4166"/>
<polygon fill="#c0c0c0" stroke="#c0c0c0" stroke-width="2" points="393.5001,-766.4132 390,-756.4133 386.5001,-766.4133 393.5001,-766.4132"/>
</g>
<!-- 19&#45;&gt;9 -->
<g id="edge26" class="edge">
<title>19&#45;&gt;9</title>
<path fill="none" stroke="#c0c0c0" stroke-width="2" d="M416.4959,-719.8314C429.6774,-710.7927 445.7847,-699.7476 459.9711,-690.0198"/>
<polygon fill="#c0c0c0" stroke="#c0c0c0" stroke-width="2" points="462.2446,-692.7047 468.5125,-684.1628 458.2859,-686.9316 462.2446,-692.7047"/>
</g>
<!-- 20&#45;&gt;10 -->
<g id="edge28" class="edge">
<title>20&#45;&gt;10</title>
<path fill="none" stroke="#c0c0c0" stroke-width="2" d="M578,-215.8314C578,-208.131 578,-198.9743 578,-190.4166"/>
<polygon fill="#c0c0c0" stroke="#c0c0c0" stroke-width="2" points="581.5001,-190.4132 578,-180.4133 574.5001,-190.4133 581.5001,-190.4132"/>
</g>
<!-- 21 -->
<g id="node22" class="node">
<title>21</title>
<path fill="none" stroke="#d89c56" stroke-width="2" d="M182.5,-180C182.5,-180 125.5,-180 125.5,-180 119.5,-180 113.5,-174 113.5,-168 113.5,-168 113.5,-156 113.5,-156 113.5,-150 119.5,-144 125.5,-144 125.5,-144 182.5,-144 182.5,-144 188.5,-144 194.5,-150 194.5,-156 194.5,-156 194.5,-168 194.5,-168 194.5,-174 188.5,-180 182.5,-180"/>
<text text-anchor="middle" x="154" y="-159.5" font-family="sans" font-size="10.00" fill="#000000">shapeit_haps</text>
</g>
<!-- 21&#45;&gt;11 -->
<g id="edge29" class="edge">
<title>21&#45;&gt;11</title>
<path fill="none" stroke="#c0c0c0" stroke-width="2" d="M161.7936,-180.0525C173.7244,-210.0513 194.0323,-272.0136 183,-324 181.1019,-332.9443 177.6165,-342.2059 173.8791,-350.4797"/>
<polygon fill="#c0c0c0" stroke="#c0c0c0" stroke-width="2" points="170.6432,-349.1324 169.4559,-359.6605 176.9495,-352.1706 170.6432,-349.1324"/>
</g>
<!-- 22 -->
<g id="node23" class="node">
<title>22</title>
<path fill="none" stroke="#56d8c1" stroke-width="2" d="M277,-1044C277,-1044 245,-1044 245,-1044 239,-1044 233,-1038 233,-1032 233,-1032 233,-1020 233,-1020 233,-1014 239,-1008 245,-1008 245,-1008 277,-1008 277,-1008 283,-1008 289,-1014 289,-1020 289,-1020 289,-1032 289,-1032 289,-1038 283,-1044 277,-1044"/>
<text text-anchor="middle" x="261" y="-1023.5" font-family="sans" font-size="10.00" fill="#000000">sort_vcf</text>
</g>
<!-- 22&#45;&gt;12 -->
<g id="edge31" class="edge">
<title>22&#45;&gt;12</title>
<path fill="none" stroke="#c0c0c0" stroke-width="2" d="M270.8413,-1007.8314C275.1957,-999.7925 280.4098,-990.1666 285.2169,-981.2918"/>
<polygon fill="#c0c0c0" stroke="#c0c0c0" stroke-width="2" points="288.3408,-982.8732 290.0261,-972.4133 282.1857,-979.5392 288.3408,-982.8732"/>
</g>
<!-- 23&#45;&gt;16 -->
<g id="edge36" class="edge">
<title>23&#45;&gt;16</title>
<path fill="none" stroke="#c0c0c0" stroke-width="2" d="M552.9777,-431.9555C534.0381,-394.0762 490.0409,-306.0818 467.637,-261.274"/>
<polygon fill="#c0c0c0" stroke="#c0c0c0" stroke-width="2" points="470.6752,-259.5241 463.0725,-252.1451 464.4142,-262.6546 470.6752,-259.5241"/>
</g>
<!-- 24 -->
<g id="node25" class="node">
<title>24</title>
<path fill="none" stroke="#569ad8" stroke-width="2" d="M148.5,-252C148.5,-252 117.5,-252 117.5,-252 111.5,-252 105.5,-246 105.5,-240 105.5,-240 105.5,-228 105.5,-228 105.5,-222 111.5,-216 117.5,-216 117.5,-216 148.5,-216 148.5,-216 154.5,-216 160.5,-222 160.5,-228 160.5,-228 160.5,-240 160.5,-240 160.5,-246 154.5,-252 148.5,-252"/>
<text text-anchor="middle" x="133" y="-231.5" font-family="sans" font-size="10.00" fill="#000000">pop_vcf</text>
</g>
<!-- 24&#45;&gt;21 -->
<g id="edge45" class="edge">
<title>24&#45;&gt;21</title>
<path fill="none" stroke="#c0c0c0" stroke-width="2" d="M138.2992,-215.8314C140.5698,-208.0463 143.2746,-198.7729 145.794,-190.1347"/>
<polygon fill="#c0c0c0" stroke="#c0c0c0" stroke-width="2" points="149.1894,-190.9933 148.6295,-180.4133 142.4694,-189.0332 149.1894,-190.9933"/>
</g>
<!-- 25&#45;&gt;22 -->
<g id="edge46" class="edge">
<title>25&#45;&gt;22</title>
<path fill="none" stroke="#c0c0c0" stroke-width="2" d="M246.0468,-1079.8314C248.2094,-1072.0463 250.7853,-1062.7729 253.1848,-1054.1347"/>
<polygon fill="#c0c0c0" stroke="#c0c0c0" stroke-width="2" points="256.581,-1054.9852 255.8852,-1044.4133 249.8364,-1053.1117 256.581,-1054.9852"/>
</g>
<!-- 26&#45;&gt;24 -->
<g id="edge50" class="edge">
<title>26&#45;&gt;24</title>
<path fill="none" stroke="#c0c0c0" stroke-width="2" d="M138.2336,-287.8314C137.485,-280.131 136.5947,-270.9743 135.7627,-262.4166"/>
<polygon fill="#c0c0c0" stroke="#c0c0c0" stroke-width="2" points="139.2415,-262.0276 134.7902,-252.4133 132.2744,-262.7051 139.2415,-262.0276"/>
</g>
</g>
</svg>
