<?xml version="1.0" encoding="UTF-8" standalone="no"?>
<!DOCTYPE svg PUBLIC "-//W3C//DTD SVG 1.1//EN"
 "http://www.w3.org/Graphics/SVG/1.1/DTD/svg11.dtd">
<!-- Generated by graphviz version 2.40.1 (20161225.0304)
 -->
<!-- Title: snakemake_dag Pages: 1 -->
<svg width="518pt" height="1196pt"
 viewBox="0.00 0.00 518.00 1196.00" xmlns="http://www.w3.org/2000/svg" xmlns:xlink="http://www.w3.org/1999/xlink">
<g id="graph0" class="graph" transform="scale(1 1) rotate(0) translate(4 1192)">
<title>snakemake_dag</title>
<polygon fill="#ffffff" stroke="transparent" points="-4,4 -4,-1192 514,-1192 514,4 -4,4"/>
<!-- 0 -->
<g id="node1" class="node">
<title>0</title>
<path fill="none" stroke="#56a2d8" stroke-width="2" d="M312,-36C312,-36 282,-36 282,-36 276,-36 270,-30 270,-24 270,-24 270,-12 270,-12 270,-6 276,0 282,0 282,0 312,0 312,0 318,0 324,-6 324,-12 324,-12 324,-24 324,-24 324,-30 318,-36 312,-36"/>
<text text-anchor="middle" x="297" y="-15.5" font-family="sans" font-size="10.00" fill="#000000">target</text>
</g>
<!-- 1 -->
<g id="node2" class="node">
<title>1</title>
<path fill="none" stroke="#5663d8" stroke-width="2" d="M312,-252C312,-252 282,-252 282,-252 276,-252 270,-246 270,-240 270,-240 270,-228 270,-228 270,-222 276,-216 282,-216 282,-216 312,-216 312,-216 318,-216 324,-222 324,-228 324,-228 324,-240 324,-240 324,-246 318,-252 312,-252"/>
<text text-anchor="middle" x="297" y="-231.5" font-family="sans" font-size="10.00" fill="#000000">dapc</text>
</g>
<!-- 1&#45;&gt;0 -->
<g id="edge1" class="edge">
<title>1&#45;&gt;0</title>
<path fill="none" stroke="#c0c0c0" stroke-width="2" d="M297,-215.9555C297,-178.3938 297,-91.5541 297,-46.4103"/>
<polygon fill="#c0c0c0" stroke="#c0c0c0" stroke-width="2" points="300.5001,-46.145 297,-36.1451 293.5001,-46.1451 300.5001,-46.145"/>
</g>
<!-- 2 -->
<g id="node3" class="node">
<title>2</title>
<path fill="none" stroke="#56d89a" stroke-width="2" d="M424.5,-108C424.5,-108 361.5,-108 361.5,-108 355.5,-108 349.5,-102 349.5,-96 349.5,-96 349.5,-84 349.5,-84 349.5,-78 355.5,-72 361.5,-72 361.5,-72 424.5,-72 424.5,-72 430.5,-72 436.5,-78 436.5,-84 436.5,-84 436.5,-96 436.5,-96 436.5,-102 430.5,-108 424.5,-108"/>
<text text-anchor="middle" x="393" y="-87.5" font-family="sans" font-size="10.00" fill="#000000">plot_bayescan</text>
</g>
<!-- 2&#45;&gt;0 -->
<g id="edge2" class="edge">
<title>2&#45;&gt;0</title>
<path fill="none" stroke="#c0c0c0" stroke-width="2" d="M368.7751,-71.8314C356.8372,-62.8779 342.2744,-51.9558 329.394,-42.2955"/>
<polygon fill="#c0c0c0" stroke="#c0c0c0" stroke-width="2" points="331.3171,-39.3629 321.2171,-36.1628 327.1171,-44.9629 331.3171,-39.3629"/>
</g>
<!-- 3 -->
<g id="node4" class="node">
<title>3</title>
<path fill="none" stroke="#d87556" stroke-width="2" d="M194,-108C194,-108 138,-108 138,-108 132,-108 126,-102 126,-96 126,-96 126,-84 126,-84 126,-78 132,-72 138,-72 138,-72 194,-72 194,-72 200,-72 206,-78 206,-84 206,-84 206,-96 206,-96 206,-102 200,-108 194,-108"/>
<text text-anchor="middle" x="166" y="-87.5" font-family="sans" font-size="10.00" fill="#000000">generate_sfs</text>
</g>
<!-- 3&#45;&gt;0 -->
<g id="edge3" class="edge">
<title>3&#45;&gt;0</title>
<path fill="none" stroke="#c0c0c0" stroke-width="2" d="M199.0568,-71.8314C217.9017,-61.4739 241.5399,-48.4819 260.8725,-37.8563"/>
<polygon fill="#c0c0c0" stroke="#c0c0c0" stroke-width="2" points="262.6198,-40.8898 269.6976,-33.0059 259.2481,-34.7553 262.6198,-40.8898"/>
</g>
<!-- 4 -->
<g id="node5" class="node">
<title>4</title>
<path fill="none" stroke="#b6d856" stroke-width="2" d="M253,-468C253,-468 155,-468 155,-468 149,-468 143,-462 143,-456 143,-456 143,-444 143,-444 143,-438 149,-432 155,-432 155,-432 253,-432 253,-432 259,-432 265,-438 265,-444 265,-444 265,-456 265,-456 265,-462 259,-468 253,-468"/>
<text text-anchor="middle" x="204" y="-447.5" font-family="sans" font-size="10.00" fill="#000000">filter_populations_vcf</text>
</g>
<!-- 4&#45;&gt;1 -->
<g id="edge4" class="edge">
<title>4&#45;&gt;1</title>
<path fill="none" stroke="#c0c0c0" stroke-width="2" d="M265.1856,-441.2519C292.5674,-433.9516 322.3715,-420.5609 339,-396 367.2607,-354.2579 337.9251,-294.6875 316.0811,-260.6263"/>
<polygon fill="#c0c0c0" stroke="#c0c0c0" stroke-width="2" points="318.8949,-258.5364 310.451,-252.137 313.0612,-262.4053 318.8949,-258.5364"/>
</g>
<!-- 4&#45;&gt;2 -->
<g id="edge8" class="edge">
<title>4&#45;&gt;2</title>
<path fill="none" stroke="#c0c0c0" stroke-width="2" d="M265.1071,-443.8262C302.4853,-437.2784 349.2505,-423.7886 382,-396 447.5736,-340.3596 464.0634,-301.284 453,-216 448.7424,-183.1796 448.5057,-173.7472 434,-144 429.2793,-134.3192 422.6954,-124.6601 416.1833,-116.2439"/>
<polygon fill="#c0c0c0" stroke="#c0c0c0" stroke-width="2" points="418.7687,-113.8744 409.7667,-108.2873 413.3198,-118.2687 418.7687,-113.8744"/>
</g>
<!-- 4&#45;&gt;3 -->
<g id="edge11" class="edge">
<title>4&#45;&gt;3</title>
<path fill="none" stroke="#c0c0c0" stroke-width="2" d="M195.9412,-431.7668C184.7866,-404.8248 166,-352.5405 166,-306 166,-306 166,-306 166,-234 166,-193.876 166,-147.4631 166,-118.4177"/>
<polygon fill="#c0c0c0" stroke="#c0c0c0" stroke-width="2" points="169.5001,-118.1853 166,-108.1854 162.5001,-118.1854 169.5001,-118.1853"/>
</g>
<!-- 5 -->
<g id="node6" class="node">
<title>5</title>
<path fill="none" stroke="#56d88a" stroke-width="2" d="M262.5,-324C262.5,-324 221.5,-324 221.5,-324 215.5,-324 209.5,-318 209.5,-312 209.5,-312 209.5,-300 209.5,-300 209.5,-294 215.5,-288 221.5,-288 221.5,-288 262.5,-288 262.5,-288 268.5,-288 274.5,-294 274.5,-300 274.5,-300 274.5,-312 274.5,-312 274.5,-318 268.5,-324 262.5,-324"/>
<text text-anchor="middle" x="242" y="-303.5" font-family="sans" font-size="10.00" fill="#000000">prune_vcf</text>
</g>
<!-- 4&#45;&gt;5 -->
<g id="edge20" class="edge">
<title>4&#45;&gt;5</title>
<path fill="none" stroke="#c0c0c0" stroke-width="2" d="M207.1034,-431.903C210.4078,-413.6089 216.1062,-384.6035 223,-360 225.402,-351.4275 228.4493,-342.2426 231.3963,-333.9233"/>
<polygon fill="#c0c0c0" stroke="#c0c0c0" stroke-width="2" points="234.7658,-334.8986 234.8911,-324.3045 228.1866,-332.5081 234.7658,-334.8986"/>
</g>
<!-- 12 -->
<g id="node13" class="node">
<title>12</title>
<path fill="none" stroke="#56d8a9" stroke-width="2" d="M318,-396C318,-396 244,-396 244,-396 238,-396 232,-390 232,-384 232,-384 232,-372 232,-372 232,-366 238,-360 244,-360 244,-360 318,-360 318,-360 324,-360 330,-366 330,-372 330,-372 330,-384 330,-384 330,-390 324,-396 318,-396"/>
<text text-anchor="middle" x="281" y="-375.5" font-family="sans" font-size="10.00" fill="#000000">list_pruned_snps</text>
</g>
<!-- 4&#45;&gt;12 -->
<g id="edge28" class="edge">
<title>4&#45;&gt;12</title>
<path fill="none" stroke="#c0c0c0" stroke-width="2" d="M223.4304,-431.8314C232.732,-423.1337 244.0204,-412.5783 254.1286,-403.1265"/>
<polygon fill="#c0c0c0" stroke="#c0c0c0" stroke-width="2" points="256.6621,-405.5493 261.5759,-396.1628 251.8811,-400.4363 256.6621,-405.5493"/>
</g>
<!-- 14 -->
<g id="node15" class="node">
<title>14</title>
<path fill="none" stroke="#88d856" stroke-width="2" d="M431.5,-252C431.5,-252 354.5,-252 354.5,-252 348.5,-252 342.5,-246 342.5,-240 342.5,-240 342.5,-228 342.5,-228 342.5,-222 348.5,-216 354.5,-216 354.5,-216 431.5,-216 431.5,-216 437.5,-216 443.5,-222 443.5,-228 443.5,-228 443.5,-240 443.5,-240 443.5,-246 437.5,-252 431.5,-252"/>
<text text-anchor="middle" x="393" y="-231.5" font-family="sans" font-size="10.00" fill="#000000">convert_to_geste</text>
</g>
<!-- 4&#45;&gt;14 -->
<g id="edge30" class="edge">
<title>4&#45;&gt;14</title>
<path fill="none" stroke="#c0c0c0" stroke-width="2" d="M265.3865,-435.0491C302.5846,-424.7814 345.2507,-410.444 358,-396 390.9594,-358.6597 395.3491,-297.7521 394.7356,-262.2182"/>
<polygon fill="#c0c0c0" stroke="#c0c0c0" stroke-width="2" points="398.2286,-261.9422 394.4106,-252.0592 391.2322,-262.166 398.2286,-261.9422"/>
</g>
<!-- 18 -->
<g id="node19" class="node">
<title>18</title>
<path fill="none" stroke="#d8ac56" stroke-width="2" d="M126,-252C126,-252 40,-252 40,-252 34,-252 28,-246 28,-240 28,-240 28,-228 28,-228 28,-222 34,-216 40,-216 40,-216 126,-216 126,-216 132,-216 138,-222 138,-228 138,-228 138,-240 138,-240 138,-246 132,-252 126,-252"/>
<text text-anchor="middle" x="83" y="-231.5" font-family="sans" font-size="10.00" fill="#000000">preview_projection</text>
</g>
<!-- 4&#45;&gt;18 -->
<g id="edge37" class="edge">
<title>4&#45;&gt;18</title>
<path fill="none" stroke="#c0c0c0" stroke-width="2" d="M183.3758,-431.987C172.9832,-422.1263 160.7626,-409.2415 152,-396 144.1744,-384.1745 111.4453,-304.3885 94.0234,-261.3688"/>
<polygon fill="#c0c0c0" stroke="#c0c0c0" stroke-width="2" points="97.2428,-259.9938 90.2498,-252.0345 90.7531,-262.6174 97.2428,-259.9938"/>
</g>
<!-- 5&#45;&gt;1 -->
<g id="edge5" class="edge">
<title>5&#45;&gt;1</title>
<path fill="none" stroke="#c0c0c0" stroke-width="2" d="M255.8788,-287.8314C262.2136,-279.5386 269.8384,-269.557 276.7926,-260.4533"/>
<polygon fill="#c0c0c0" stroke="#c0c0c0" stroke-width="2" points="279.6452,-262.4847 282.9343,-252.4133 274.0825,-258.2353 279.6452,-262.4847"/>
</g>
<!-- 5&#45;&gt;2 -->
<g id="edge9" class="edge">
<title>5&#45;&gt;2</title>
<path fill="none" stroke="#c0c0c0" stroke-width="2" d="M242.6844,-287.9997C244.0917,-269.0079 248.3301,-238.7385 261,-216 284.6095,-173.6282 327.1933,-136.8705 357.6108,-114.1674"/>
<polygon fill="#c0c0c0" stroke="#c0c0c0" stroke-width="2" points="359.8389,-116.874 365.8416,-108.1437 355.7048,-111.2252 359.8389,-116.874"/>
</g>
<!-- 5&#45;&gt;3 -->
<g id="edge13" class="edge">
<title>5&#45;&gt;3</title>
<path fill="none" stroke="#c0c0c0" stroke-width="2" d="M235.651,-287.9555C222.379,-250.235 191.6214,-162.8188 175.7955,-117.8399"/>
<polygon fill="#c0c0c0" stroke="#c0c0c0" stroke-width="2" points="179.0051,-116.4165 172.3844,-108.1451 172.4019,-118.7399 179.0051,-116.4165"/>
</g>
<!-- 5&#45;&gt;14 -->
<g id="edge31" class="edge">
<title>5&#45;&gt;14</title>
<path fill="none" stroke="#c0c0c0" stroke-width="2" d="M274.7648,-290.3771C295.577,-280.4533 322.8493,-267.4494 345.956,-256.4316"/>
<polygon fill="#c0c0c0" stroke="#c0c0c0" stroke-width="2" points="347.7218,-259.4672 355.2418,-252.0039 344.709,-253.1487 347.7218,-259.4672"/>
</g>
<!-- 5&#45;&gt;18 -->
<g id="edge39" class="edge">
<title>5&#45;&gt;18</title>
<path fill="none" stroke="#c0c0c0" stroke-width="2" d="M209.4403,-291.256C187.2051,-281.1872 157.3374,-267.6622 132.2141,-256.2856"/>
<polygon fill="#c0c0c0" stroke="#c0c0c0" stroke-width="2" points="133.3969,-252.9791 122.8435,-252.0423 130.5093,-259.3558 133.3969,-252.9791"/>
</g>
<!-- 6 -->
<g id="node7" class="node">
<title>6</title>
<path fill="none" stroke="#56d87b" stroke-width="2" d="M412.5,-180C412.5,-180 373.5,-180 373.5,-180 367.5,-180 361.5,-174 361.5,-168 361.5,-168 361.5,-156 361.5,-156 361.5,-150 367.5,-144 373.5,-144 373.5,-144 412.5,-144 412.5,-144 418.5,-144 424.5,-150 424.5,-156 424.5,-156 424.5,-168 424.5,-168 424.5,-174 418.5,-180 412.5,-180"/>
<text text-anchor="middle" x="393" y="-159.5" font-family="sans" font-size="10.00" fill="#000000">bayescan</text>
</g>
<!-- 6&#45;&gt;2 -->
<g id="edge7" class="edge">
<title>6&#45;&gt;2</title>
<path fill="none" stroke="#c0c0c0" stroke-width="2" d="M393,-143.8314C393,-136.131 393,-126.9743 393,-118.4166"/>
<polygon fill="#c0c0c0" stroke="#c0c0c0" stroke-width="2" points="396.5001,-118.4132 393,-108.4133 389.5001,-118.4133 396.5001,-118.4132"/>
</g>
<!-- 7 -->
<g id="node8" class="node">
<title>7</title>
<path fill="none" stroke="#d89556" stroke-width="2" d="M292.5,-1188C292.5,-1188 227.5,-1188 227.5,-1188 221.5,-1188 215.5,-1182 215.5,-1176 215.5,-1176 215.5,-1164 215.5,-1164 215.5,-1158 221.5,-1152 227.5,-1152 227.5,-1152 292.5,-1152 292.5,-1152 298.5,-1152 304.5,-1158 304.5,-1164 304.5,-1164 304.5,-1176 304.5,-1176 304.5,-1182 298.5,-1188 292.5,-1188"/>
<text text-anchor="middle" x="260" y="-1167.5" font-family="sans" font-size="10.00" fill="#000000">index_genome</text>
</g>
<!-- 7&#45;&gt;2 -->
<g id="edge6" class="edge">
<title>7&#45;&gt;2</title>
<path fill="none" stroke="#c0c0c0" stroke-width="2" d="M304.695,-1164.669C376.6039,-1153.3272 510,-1119.6644 510,-1026 510,-1026 510,-1026 510,-234 510,-182.6273 464.591,-139.3755 430.3513,-114.0645"/>
<polygon fill="#c0c0c0" stroke="#c0c0c0" stroke-width="2" points="432.0881,-111.0032 421.9214,-108.022 428.01,-116.6926 432.0881,-111.0032"/>
</g>
<!-- 8 -->
<g id="node9" class="node">
<title>8</title>
<path fill="none" stroke="#d86656" stroke-width="2" d="M218.5,-684C218.5,-684 135.5,-684 135.5,-684 129.5,-684 123.5,-678 123.5,-672 123.5,-672 123.5,-660 123.5,-660 123.5,-654 129.5,-648 135.5,-648 135.5,-648 218.5,-648 218.5,-648 224.5,-648 230.5,-654 230.5,-660 230.5,-660 230.5,-672 230.5,-672 230.5,-678 224.5,-684 218.5,-684"/>
<text text-anchor="middle" x="177" y="-663.5" font-family="sans" font-size="10.00" fill="#000000">generate_whitelist</text>
</g>
<!-- 7&#45;&gt;8 -->
<g id="edge22" class="edge">
<title>7&#45;&gt;8</title>
<path fill="none" stroke="#c0c0c0" stroke-width="2" d="M260,-1151.8146C260,-1124.4983 260,-1071.25 260,-1026 260,-1026 260,-1026 260,-810 260,-769.1184 261.9836,-755.0856 241,-720 234.2289,-708.6784 224.2168,-698.5982 214.1121,-690.3019"/>
<polygon fill="#c0c0c0" stroke="#c0c0c0" stroke-width="2" points="216.0938,-687.4094 206.0487,-684.0412 211.8009,-692.9385 216.0938,-687.4094"/>
</g>
<!-- 21 -->
<g id="node22" class="node">
<title>21</title>
<path fill="none" stroke="#d6d856" stroke-width="2" d="M198,-1116C198,-1116 128,-1116 128,-1116 122,-1116 116,-1110 116,-1104 116,-1104 116,-1092 116,-1092 116,-1086 122,-1080 128,-1080 128,-1080 198,-1080 198,-1080 204,-1080 210,-1086 210,-1092 210,-1092 210,-1104 210,-1104 210,-1110 204,-1116 198,-1116"/>
<text text-anchor="middle" x="163" y="-1095.5" font-family="sans" font-size="10.00" fill="#000000">add_vcf_header</text>
</g>
<!-- 7&#45;&gt;21 -->
<g id="edge44" class="edge">
<title>7&#45;&gt;21</title>
<path fill="none" stroke="#c0c0c0" stroke-width="2" d="M235.5228,-1151.8314C223.4605,-1142.8779 208.746,-1131.9558 195.7314,-1122.2955"/>
<polygon fill="#c0c0c0" stroke="#c0c0c0" stroke-width="2" points="197.5852,-1119.3127 187.4694,-1116.1628 193.413,-1124.9335 197.5852,-1119.3127"/>
</g>
<!-- 8&#45;&gt;3 -->
<g id="edge12" class="edge">
<title>8&#45;&gt;3</title>
<path fill="none" stroke="#c0c0c0" stroke-width="2" d="M123.4138,-648.1658C71.3181,-627.044 0,-586.373 0,-522 0,-522 0,-522 0,-234 0,-190.4059 8.0686,-174.7196 39,-144 60.0281,-123.1159 90.3863,-109.8062 116.1486,-101.6271"/>
<polygon fill="#c0c0c0" stroke="#c0c0c0" stroke-width="2" points="117.1972,-104.9666 125.7681,-98.7385 115.184,-98.2624 117.1972,-104.9666"/>
</g>
<!-- 8&#45;&gt;4 -->
<g id="edge16" class="edge">
<title>8&#45;&gt;4</title>
<path fill="none" stroke="#c0c0c0" stroke-width="2" d="M179.2556,-647.9555C183.9607,-610.3144 194.8517,-523.1867 200.4844,-478.1246"/>
<polygon fill="#c0c0c0" stroke="#c0c0c0" stroke-width="2" points="203.9644,-478.502 201.7319,-468.1451 197.0185,-477.6337 203.9644,-478.502"/>
</g>
<!-- 13 -->
<g id="node14" class="node">
<title>13</title>
<path fill="none" stroke="#56d8b9" stroke-width="2" d="M335.5,-612C335.5,-612 220.5,-612 220.5,-612 214.5,-612 208.5,-606 208.5,-600 208.5,-600 208.5,-588 208.5,-588 208.5,-582 214.5,-576 220.5,-576 220.5,-576 335.5,-576 335.5,-576 341.5,-576 347.5,-582 347.5,-588 347.5,-588 347.5,-600 347.5,-600 347.5,-606 341.5,-612 335.5,-612"/>
<text text-anchor="middle" x="278" y="-591.5" font-family="sans" font-size="10.00" fill="#000000">generate_rlpara_popmap</text>
</g>
<!-- 8&#45;&gt;13 -->
<g id="edge29" class="edge">
<title>8&#45;&gt;13</title>
<path fill="none" stroke="#c0c0c0" stroke-width="2" d="M202.4866,-647.8314C215.1659,-638.7927 230.6596,-627.7476 244.3055,-618.0198"/>
<polygon fill="#c0c0c0" stroke="#c0c0c0" stroke-width="2" points="246.4105,-620.8176 252.5216,-612.1628 242.3471,-615.1176 246.4105,-620.8176"/>
</g>
<!-- 8&#45;&gt;18 -->
<g id="edge38" class="edge">
<title>8&#45;&gt;18</title>
<path fill="none" stroke="#c0c0c0" stroke-width="2" d="M173.0806,-647.9875C158.4491,-580.7447 106.9524,-344.0792 89.1271,-262.1585"/>
<polygon fill="#c0c0c0" stroke="#c0c0c0" stroke-width="2" points="92.4823,-261.1166 86.9361,-252.0894 85.6424,-262.6049 92.4823,-261.1166"/>
</g>
<!-- 20 -->
<g id="node21" class="node">
<title>20</title>
<path fill="none" stroke="#5682d8" stroke-width="2" d="M418.5,-468C418.5,-468 375.5,-468 375.5,-468 369.5,-468 363.5,-462 363.5,-456 363.5,-456 363.5,-444 363.5,-444 363.5,-438 369.5,-432 375.5,-432 375.5,-432 418.5,-432 418.5,-432 424.5,-432 430.5,-438 430.5,-444 430.5,-444 430.5,-456 430.5,-456 430.5,-462 424.5,-468 418.5,-468"/>
<text text-anchor="middle" x="397" y="-447.5" font-family="sans" font-size="10.00" fill="#000000">write_spid</text>
</g>
<!-- 8&#45;&gt;20 -->
<g id="edge41" class="edge">
<title>8&#45;&gt;20</title>
<path fill="none" stroke="#c0c0c0" stroke-width="2" d="M230.8172,-655.435C276.9226,-645.4059 338.6944,-629.3241 357,-612 393.6113,-577.3518 398.9331,-514.9635 398.5861,-478.5509"/>
<polygon fill="#c0c0c0" stroke="#c0c0c0" stroke-width="2" points="402.0748,-478.0529 398.3247,-468.1439 395.077,-478.2286 402.0748,-478.0529"/>
</g>
<!-- 9 -->
<g id="node10" class="node">
<title>9</title>
<path fill="none" stroke="#d85656" stroke-width="2" d="M119.5,-180C119.5,-180 60.5,-180 60.5,-180 54.5,-180 48.5,-174 48.5,-168 48.5,-168 48.5,-156 48.5,-156 48.5,-150 54.5,-144 60.5,-144 60.5,-144 119.5,-144 119.5,-144 125.5,-144 131.5,-150 131.5,-156 131.5,-156 131.5,-168 131.5,-168 131.5,-174 125.5,-180 119.5,-180"/>
<text text-anchor="middle" x="90" y="-159.5" font-family="sans" font-size="10.00" fill="#000000">get_best_proj</text>
</g>
<!-- 9&#45;&gt;3 -->
<g id="edge10" class="edge">
<title>9&#45;&gt;3</title>
<path fill="none" stroke="#c0c0c0" stroke-width="2" d="M109.178,-143.8314C118.3588,-135.1337 129.5006,-124.5783 139.4776,-115.1265"/>
<polygon fill="#c0c0c0" stroke="#c0c0c0" stroke-width="2" points="141.9757,-117.5811 146.8281,-108.1628 137.1615,-112.4995 141.9757,-117.5811"/>
</g>
<!-- 10 -->
<g id="node11" class="node">
<title>10</title>
<path fill="none" stroke="#56c1d8" stroke-width="2" d="M128.5,-972C128.5,-972 89.5,-972 89.5,-972 83.5,-972 77.5,-966 77.5,-960 77.5,-960 77.5,-948 77.5,-948 77.5,-942 83.5,-936 89.5,-936 89.5,-936 128.5,-936 128.5,-936 134.5,-936 140.5,-942 140.5,-948 140.5,-948 140.5,-960 140.5,-960 140.5,-966 134.5,-972 128.5,-972"/>
<text text-anchor="middle" x="109" y="-951.5" font-family="sans" font-size="10.00" fill="#000000">bgzip_vcf</text>
</g>
<!-- 10&#45;&gt;4 -->
<g id="edge14" class="edge">
<title>10&#45;&gt;4</title>
<path fill="none" stroke="#c0c0c0" stroke-width="2" d="M86.4931,-935.915C75.9981,-926.3157 64.252,-913.6852 57,-900 37.8577,-863.8769 38,-850.8816 38,-810 38,-810 38,-810 38,-594 38,-547.5795 56.7885,-535.3758 91,-504 105.1966,-490.9801 123.1005,-480.5045 140.4455,-472.3716"/>
<polygon fill="#c0c0c0" stroke="#c0c0c0" stroke-width="2" points="142.3017,-475.3753 149.9971,-468.093 139.44,-468.9869 142.3017,-475.3753"/>
</g>
<!-- 11 -->
<g id="node12" class="node">
<title>11</title>
<path fill="none" stroke="#5692d8" stroke-width="2" d="M118,-900C118,-900 78,-900 78,-900 72,-900 66,-894 66,-888 66,-888 66,-876 66,-876 66,-870 72,-864 78,-864 78,-864 118,-864 118,-864 124,-864 130,-870 130,-876 130,-876 130,-888 130,-888 130,-894 124,-900 118,-900"/>
<text text-anchor="middle" x="98" y="-879.5" font-family="sans" font-size="10.00" fill="#000000">index_vcf</text>
</g>
<!-- 10&#45;&gt;11 -->
<g id="edge27" class="edge">
<title>10&#45;&gt;11</title>
<path fill="none" stroke="#c0c0c0" stroke-width="2" d="M106.2242,-935.8314C105.0478,-928.131 103.6489,-918.9743 102.3414,-910.4166"/>
<polygon fill="#c0c0c0" stroke="#c0c0c0" stroke-width="2" points="105.7833,-909.7699 100.8131,-900.4133 98.8636,-910.8272 105.7833,-909.7699"/>
</g>
<!-- 16 -->
<g id="node17" class="node">
<title>16</title>
<path fill="none" stroke="#56d0d8" stroke-width="2" d="M168.5,-828C168.5,-828 127.5,-828 127.5,-828 121.5,-828 115.5,-822 115.5,-816 115.5,-816 115.5,-804 115.5,-804 115.5,-798 121.5,-792 127.5,-792 127.5,-792 168.5,-792 168.5,-792 174.5,-792 180.5,-798 180.5,-804 180.5,-804 180.5,-816 180.5,-816 180.5,-822 174.5,-828 168.5,-828"/>
<text text-anchor="middle" x="148" y="-807.5" font-family="sans" font-size="10.00" fill="#000000">locusfilter</text>
</g>
<!-- 10&#45;&gt;16 -->
<g id="edge35" class="edge">
<title>10&#45;&gt;16</title>
<path fill="none" stroke="#c0c0c0" stroke-width="2" d="M121.534,-935.8574C127.8643,-925.7572 135.0271,-912.6912 139,-900 145.2843,-879.9255 147.4561,-856.2167 148.0986,-838.1737"/>
<polygon fill="#c0c0c0" stroke="#c0c0c0" stroke-width="2" points="151.6012,-838.0901 148.322,-828.0155 144.6029,-837.9361 151.6012,-838.0901"/>
</g>
<!-- 11&#45;&gt;4 -->
<g id="edge15" class="edge">
<title>11&#45;&gt;4</title>
<path fill="none" stroke="#c0c0c0" stroke-width="2" d="M93.4416,-863.9498C86.9977,-836.8059 76,-783.775 76,-738 76,-738 76,-738 76,-594 76,-541.0476 124.9485,-498.5189 162.3066,-473.7716"/>
<polygon fill="#c0c0c0" stroke="#c0c0c0" stroke-width="2" points="164.5129,-476.5144 171.0368,-468.1664 160.731,-470.624 164.5129,-476.5144"/>
</g>
<!-- 11&#45;&gt;16 -->
<g id="edge34" class="edge">
<title>11&#45;&gt;16</title>
<path fill="none" stroke="#c0c0c0" stroke-width="2" d="M110.6171,-863.8314C116.3172,-855.6232 123.1663,-845.7606 129.4359,-836.7323"/>
<polygon fill="#c0c0c0" stroke="#c0c0c0" stroke-width="2" points="132.3838,-838.6234 135.213,-828.4133 126.6342,-834.6306 132.3838,-838.6234"/>
</g>
<!-- 12&#45;&gt;5 -->
<g id="edge19" class="edge">
<title>12&#45;&gt;5</title>
<path fill="none" stroke="#c0c0c0" stroke-width="2" d="M271.1587,-359.8314C266.8043,-351.7925 261.5902,-342.1666 256.7831,-333.2918"/>
<polygon fill="#c0c0c0" stroke="#c0c0c0" stroke-width="2" points="259.8143,-331.5392 251.9739,-324.4133 253.6592,-334.8732 259.8143,-331.5392"/>
</g>
<!-- 13&#45;&gt;4 -->
<g id="edge17" class="edge">
<title>13&#45;&gt;4</title>
<path fill="none" stroke="#c0c0c0" stroke-width="2" d="M254.4054,-575.798C243.5896,-566.2587 231.5284,-553.7143 224,-540 213.5694,-520.9988 208.5775,-496.9157 206.1892,-478.4444"/>
<polygon fill="#c0c0c0" stroke="#c0c0c0" stroke-width="2" points="209.6448,-477.8506 205.0623,-468.298 202.6876,-478.6233 209.6448,-477.8506"/>
</g>
<!-- 15 -->
<g id="node16" class="node">
<title>15</title>
<path fill="none" stroke="#56d8c9" stroke-width="2" d="M337.5,-540C337.5,-540 244.5,-540 244.5,-540 238.5,-540 232.5,-534 232.5,-528 232.5,-528 232.5,-516 232.5,-516 232.5,-510 238.5,-504 244.5,-504 244.5,-504 337.5,-504 337.5,-504 343.5,-504 349.5,-510 349.5,-516 349.5,-516 349.5,-528 349.5,-528 349.5,-534 343.5,-540 337.5,-540"/>
<text text-anchor="middle" x="291" y="-519.5" font-family="sans" font-size="10.00" fill="#000000">generate_rl_popmap</text>
</g>
<!-- 13&#45;&gt;15 -->
<g id="edge33" class="edge">
<title>13&#45;&gt;15</title>
<path fill="none" stroke="#c0c0c0" stroke-width="2" d="M281.2804,-575.8314C282.6708,-568.131 284.3241,-558.9743 285.8692,-550.4166"/>
<polygon fill="#c0c0c0" stroke="#c0c0c0" stroke-width="2" points="289.3428,-550.8761 287.6754,-540.4133 282.4542,-549.6322 289.3428,-550.8761"/>
</g>
<!-- 13&#45;&gt;20 -->
<g id="edge43" class="edge">
<title>13&#45;&gt;20</title>
<path fill="none" stroke="#c0c0c0" stroke-width="2" d="M314.601,-575.8083C329.9219,-566.7442 346.934,-554.5851 359,-540 374.0292,-521.8329 383.9413,-496.8571 389.8619,-477.8243"/>
<polygon fill="#c0c0c0" stroke="#c0c0c0" stroke-width="2" points="393.2252,-478.7928 392.6739,-468.2123 386.5068,-476.8273 393.2252,-478.7928"/>
</g>
<!-- 14&#45;&gt;6 -->
<g id="edge21" class="edge">
<title>14&#45;&gt;6</title>
<path fill="none" stroke="#c0c0c0" stroke-width="2" d="M393,-215.8314C393,-208.131 393,-198.9743 393,-190.4166"/>
<polygon fill="#c0c0c0" stroke="#c0c0c0" stroke-width="2" points="396.5001,-190.4132 393,-180.4133 389.5001,-190.4133 396.5001,-190.4132"/>
</g>
<!-- 15&#45;&gt;4 -->
<g id="edge18" class="edge">
<title>15&#45;&gt;4</title>
<path fill="none" stroke="#c0c0c0" stroke-width="2" d="M269.0462,-503.8314C258.3305,-494.9632 245.2811,-484.1637 233.691,-474.5718"/>
<polygon fill="#c0c0c0" stroke="#c0c0c0" stroke-width="2" points="235.8822,-471.8422 225.9467,-468.1628 231.4192,-477.2349 235.8822,-471.8422"/>
</g>
<!-- 15&#45;&gt;20 -->
<g id="edge42" class="edge">
<title>15&#45;&gt;20</title>
<path fill="none" stroke="#c0c0c0" stroke-width="2" d="M317.7483,-503.8314C331.0553,-494.7927 347.316,-483.7476 361.6375,-474.0198"/>
<polygon fill="#c0c0c0" stroke="#c0c0c0" stroke-width="2" points="363.9547,-476.677 370.2603,-468.1628 360.0215,-470.8864 363.9547,-476.677"/>
</g>
<!-- 16&#45;&gt;8 -->
<g id="edge24" class="edge">
<title>16&#45;&gt;8</title>
<path fill="none" stroke="#c0c0c0" stroke-width="2" d="M139.804,-791.9433C132.5875,-773.43 124.4504,-744.0275 133,-720 136.5878,-709.9169 142.9535,-700.3517 149.7476,-692.1515"/>
<polygon fill="#c0c0c0" stroke="#c0c0c0" stroke-width="2" points="152.5747,-694.2389 156.5974,-684.4375 147.3404,-689.591 152.5747,-694.2389"/>
</g>
<!-- 17 -->
<g id="node18" class="node">
<title>17</title>
<path fill="none" stroke="#78d856" stroke-width="2" d="M220,-756C220,-756 154,-756 154,-756 148,-756 142,-750 142,-744 142,-744 142,-732 142,-732 142,-726 148,-720 154,-720 154,-720 220,-720 220,-720 226,-720 232,-726 232,-732 232,-732 232,-744 232,-744 232,-750 226,-756 220,-756"/>
<text text-anchor="middle" x="187" y="-735.5" font-family="sans" font-size="10.00" fill="#000000">stats_postfilter</text>
</g>
<!-- 16&#45;&gt;17 -->
<g id="edge36" class="edge">
<title>16&#45;&gt;17</title>
<path fill="none" stroke="#c0c0c0" stroke-width="2" d="M157.8413,-791.8314C162.1957,-783.7925 167.4098,-774.1666 172.2169,-765.2918"/>
<polygon fill="#c0c0c0" stroke="#c0c0c0" stroke-width="2" points="175.3408,-766.8732 177.0261,-756.4133 169.1857,-763.5392 175.3408,-766.8732"/>
</g>
<!-- 17&#45;&gt;8 -->
<g id="edge23" class="edge">
<title>17&#45;&gt;8</title>
<path fill="none" stroke="#c0c0c0" stroke-width="2" d="M184.4766,-719.8314C183.4071,-712.131 182.1353,-702.9743 180.9468,-694.4166"/>
<polygon fill="#c0c0c0" stroke="#c0c0c0" stroke-width="2" points="184.3999,-693.8367 179.5574,-684.4133 177.4664,-694.7997 184.3999,-693.8367"/>
</g>
<!-- 18&#45;&gt;9 -->
<g id="edge25" class="edge">
<title>18&#45;&gt;9</title>
<path fill="none" stroke="#c0c0c0" stroke-width="2" d="M84.7664,-215.8314C85.515,-208.131 86.4053,-198.9743 87.2373,-190.4166"/>
<polygon fill="#c0c0c0" stroke="#c0c0c0" stroke-width="2" points="90.7256,-190.7051 88.2098,-180.4133 83.7585,-190.0276 90.7256,-190.7051"/>
</g>
<!-- 19 -->
<g id="node20" class="node">
<title>19</title>
<path fill="none" stroke="#70d856" stroke-width="2" d="M136,-1044C136,-1044 104,-1044 104,-1044 98,-1044 92,-1038 92,-1032 92,-1032 92,-1020 92,-1020 92,-1014 98,-1008 104,-1008 104,-1008 136,-1008 136,-1008 142,-1008 148,-1014 148,-1020 148,-1020 148,-1032 148,-1032 148,-1038 142,-1044 136,-1044"/>
<text text-anchor="middle" x="120" y="-1023.5" font-family="sans" font-size="10.00" fill="#000000">sort_vcf</text>
</g>
<!-- 19&#45;&gt;10 -->
<g id="edge26" class="edge">
<title>19&#45;&gt;10</title>
<path fill="none" stroke="#c0c0c0" stroke-width="2" d="M117.2242,-1007.8314C116.0478,-1000.131 114.6489,-990.9743 113.3414,-982.4166"/>
<polygon fill="#c0c0c0" stroke="#c0c0c0" stroke-width="2" points="116.7833,-981.7699 111.8131,-972.4133 109.8636,-982.8272 116.7833,-981.7699"/>
</g>
<!-- 20&#45;&gt;14 -->
<g id="edge32" class="edge">
<title>20&#45;&gt;14</title>
<path fill="none" stroke="#c0c0c0" stroke-width="2" d="M402.5446,-431.7012C405.3965,-421.3353 408.5681,-408.0653 410,-396 415.6567,-348.3345 417.2915,-335.443 410,-288 408.6626,-279.2979 406.1796,-270.074 403.5166,-261.759"/>
<polygon fill="#c0c0c0" stroke="#c0c0c0" stroke-width="2" points="406.7846,-260.4982 400.2439,-252.1634 400.1594,-262.7579 406.7846,-260.4982"/>
</g>
<!-- 21&#45;&gt;19 -->
<g id="edge40" class="edge">
<title>21&#45;&gt;19</title>
<path fill="none" stroke="#c0c0c0" stroke-width="2" d="M152.1493,-1079.8314C147.2977,-1071.7079 141.4783,-1061.9637 136.132,-1053.0118"/>
<polygon fill="#c0c0c0" stroke="#c0c0c0" stroke-width="2" points="139.1292,-1051.2041 130.9968,-1044.4133 133.1194,-1054.7933 139.1292,-1051.2041"/>
</g>
</g>
</svg>
