<?xml version="1.0" encoding="UTF-8" standalone="no"?>
<!DOCTYPE svg PUBLIC "-//W3C//DTD SVG 1.1//EN"
 "http://www.w3.org/Graphics/SVG/1.1/DTD/svg11.dtd">
<!-- Generated by graphviz version 2.40.1 (20161225.0304)
 -->
<!-- Title: snakemake_dag Pages: 1 -->
<svg width="369pt" height="764pt"
 viewBox="0.00 0.00 368.74 764.00" xmlns="http://www.w3.org/2000/svg" xmlns:xlink="http://www.w3.org/1999/xlink">
<g id="graph0" class="graph" transform="scale(1 1) rotate(0) translate(4 760)">
<title>snakemake_dag</title>
<polygon fill="#ffffff" stroke="transparent" points="-4,4 -4,-760 364.7392,-760 364.7392,4 -4,4"/>
<!-- 0 -->
<g id="node1" class="node">
<title>0</title>
<path fill="none" stroke="#56d8a9" stroke-width="2" d="M183.7392,-36C183.7392,-36 153.7392,-36 153.7392,-36 147.7392,-36 141.7392,-30 141.7392,-24 141.7392,-24 141.7392,-12 141.7392,-12 141.7392,-6 147.7392,0 153.7392,0 153.7392,0 183.7392,0 183.7392,0 189.7392,0 195.7392,-6 195.7392,-12 195.7392,-12 195.7392,-24 195.7392,-24 195.7392,-30 189.7392,-36 183.7392,-36"/>
<text text-anchor="middle" x="168.7392" y="-15.5" font-family="sans" font-size="10.00" fill="#000000">target</text>
</g>
<!-- 1 -->
<g id="node2" class="node">
<title>1</title>
<path fill="none" stroke="#d85656" stroke-width="2" d="M83.7392,-180C83.7392,-180 33.7392,-180 33.7392,-180 27.7392,-180 21.7392,-174 21.7392,-168 21.7392,-168 21.7392,-156 21.7392,-156 21.7392,-150 27.7392,-144 33.7392,-144 33.7392,-144 83.7392,-144 83.7392,-144 89.7392,-144 95.7392,-150 95.7392,-156 95.7392,-156 95.7392,-168 95.7392,-168 95.7392,-174 89.7392,-180 83.7392,-180"/>
<text text-anchor="middle" x="58.7392" y="-165" font-family="sans" font-size="10.00" fill="#000000">populations</text>
<text text-anchor="middle" x="58.7392" y="-154" font-family="sans" font-size="10.00" fill="#000000">popset: geo</text>
</g>
<!-- 1&#45;&gt;0 -->
<g id="edge1" class="edge">
<title>1&#45;&gt;0</title>
<path fill="none" stroke="#c0c0c0" stroke-width="2" d="M35.199,-143.7947C14.0166,-125.163 -11.3527,-95.6678 5.7392,-72 20.6448,-51.3598 88.2233,-34.223 131.551,-25.1031"/>
<polygon fill="#c0c0c0" stroke="#c0c0c0" stroke-width="2" points="132.3732,-28.5074 141.4644,-23.0666 130.9646,-21.6506 132.3732,-28.5074"/>
</g>
<!-- 4 -->
<g id="node5" class="node">
<title>4</title>
<path fill="none" stroke="#5682d8" stroke-width="2" d="M56.7392,-108C56.7392,-108 26.7392,-108 26.7392,-108 20.7392,-108 14.7392,-102 14.7392,-96 14.7392,-96 14.7392,-84 14.7392,-84 14.7392,-78 20.7392,-72 26.7392,-72 26.7392,-72 56.7392,-72 56.7392,-72 62.7392,-72 68.7392,-78 68.7392,-84 68.7392,-84 68.7392,-96 68.7392,-96 68.7392,-102 62.7392,-108 56.7392,-108"/>
<text text-anchor="middle" x="41.7392" y="-87.5" font-family="sans" font-size="10.00" fill="#000000">dapc</text>
</g>
<!-- 1&#45;&gt;4 -->
<g id="edge11" class="edge">
<title>1&#45;&gt;4</title>
<path fill="none" stroke="#c0c0c0" stroke-width="2" d="M54.4494,-143.8314C52.6313,-136.131 50.4693,-126.9743 48.4487,-118.4166"/>
<polygon fill="#c0c0c0" stroke="#c0c0c0" stroke-width="2" points="51.7912,-117.3414 46.0868,-108.4133 44.9785,-118.95 51.7912,-117.3414"/>
</g>
<!-- 6 -->
<g id="node7" class="node">
<title>6</title>
<path fill="none" stroke="#80d856" stroke-width="2" d="M128.7392,-108C128.7392,-108 98.7392,-108 98.7392,-108 92.7392,-108 86.7392,-102 86.7392,-96 86.7392,-96 86.7392,-84 86.7392,-84 86.7392,-78 92.7392,-72 98.7392,-72 98.7392,-72 128.7392,-72 128.7392,-72 134.7392,-72 140.7392,-78 140.7392,-84 140.7392,-84 140.7392,-96 140.7392,-96 140.7392,-102 134.7392,-108 128.7392,-108"/>
<text text-anchor="middle" x="113.7392" y="-87.5" font-family="sans" font-size="10.00" fill="#000000">plot_fst</text>
</g>
<!-- 1&#45;&gt;6 -->
<g id="edge13" class="edge">
<title>1&#45;&gt;6</title>
<path fill="none" stroke="#c0c0c0" stroke-width="2" d="M72.6181,-143.8314C78.9528,-135.5386 86.5776,-125.557 93.5318,-116.4533"/>
<polygon fill="#c0c0c0" stroke="#c0c0c0" stroke-width="2" points="96.3845,-118.4847 99.6736,-108.4133 90.8218,-114.2353 96.3845,-118.4847"/>
</g>
<!-- 2 -->
<g id="node3" class="node">
<title>2</title>
<path fill="none" stroke="#d85656" stroke-width="2" d="M192.7392,-180C192.7392,-180 142.7392,-180 142.7392,-180 136.7392,-180 130.7392,-174 130.7392,-168 130.7392,-168 130.7392,-156 130.7392,-156 130.7392,-150 136.7392,-144 142.7392,-144 142.7392,-144 192.7392,-144 192.7392,-144 198.7392,-144 204.7392,-150 204.7392,-156 204.7392,-156 204.7392,-168 204.7392,-168 204.7392,-174 198.7392,-180 192.7392,-180"/>
<text text-anchor="middle" x="167.7392" y="-165" font-family="sans" font-size="10.00" fill="#000000">populations</text>
<text text-anchor="middle" x="167.7392" y="-154" font-family="sans" font-size="10.00" fill="#000000">popset: ns</text>
</g>
<!-- 2&#45;&gt;0 -->
<g id="edge2" class="edge">
<title>2&#45;&gt;0</title>
<path fill="none" stroke="#c0c0c0" stroke-width="2" d="M167.8659,-143.7623C168.0365,-119.201 168.3417,-75.2474 168.5423,-46.3541"/>
<polygon fill="#c0c0c0" stroke="#c0c0c0" stroke-width="2" points="172.044,-46.1137 168.6136,-36.0896 165.0442,-46.065 172.044,-46.1137"/>
</g>
<!-- 3 -->
<g id="node4" class="node">
<title>3</title>
<path fill="none" stroke="#d85656" stroke-width="2" d="M288.2392,-180C288.2392,-180 235.2392,-180 235.2392,-180 229.2392,-180 223.2392,-174 223.2392,-168 223.2392,-168 223.2392,-156 223.2392,-156 223.2392,-150 229.2392,-144 235.2392,-144 235.2392,-144 288.2392,-144 288.2392,-144 294.2392,-144 300.2392,-150 300.2392,-156 300.2392,-156 300.2392,-168 300.2392,-168 300.2392,-174 294.2392,-180 288.2392,-180"/>
<text text-anchor="middle" x="261.7392" y="-165" font-family="sans" font-size="10.00" fill="#000000">populations</text>
<text text-anchor="middle" x="261.7392" y="-154" font-family="sans" font-size="10.00" fill="#000000">popset: para</text>
</g>
<!-- 3&#45;&gt;0 -->
<g id="edge3" class="edge">
<title>3&#45;&gt;0</title>
<path fill="none" stroke="#c0c0c0" stroke-width="2" d="M249.3022,-143.5764C242.3171,-133.1714 233.4753,-119.904 225.7392,-108 212.0077,-86.8704 196.7466,-62.7384 185.4738,-44.7852"/>
<polygon fill="#c0c0c0" stroke="#c0c0c0" stroke-width="2" points="188.2488,-42.6222 179.9716,-36.0087 182.3179,-46.3405 188.2488,-42.6222"/>
</g>
<!-- 5 -->
<g id="node6" class="node">
<title>5</title>
<path fill="none" stroke="#5682d8" stroke-width="2" d="M276.7392,-108C276.7392,-108 246.7392,-108 246.7392,-108 240.7392,-108 234.7392,-102 234.7392,-96 234.7392,-96 234.7392,-84 234.7392,-84 234.7392,-78 240.7392,-72 246.7392,-72 246.7392,-72 276.7392,-72 276.7392,-72 282.7392,-72 288.7392,-78 288.7392,-84 288.7392,-84 288.7392,-96 288.7392,-96 288.7392,-102 282.7392,-108 276.7392,-108"/>
<text text-anchor="middle" x="261.7392" y="-87.5" font-family="sans" font-size="10.00" fill="#000000">dapc</text>
</g>
<!-- 3&#45;&gt;5 -->
<g id="edge12" class="edge">
<title>3&#45;&gt;5</title>
<path fill="none" stroke="#c0c0c0" stroke-width="2" d="M261.7392,-143.8314C261.7392,-136.131 261.7392,-126.9743 261.7392,-118.4166"/>
<polygon fill="#c0c0c0" stroke="#c0c0c0" stroke-width="2" points="265.2393,-118.4132 261.7392,-108.4133 258.2393,-118.4133 265.2393,-118.4132"/>
</g>
<!-- 7 -->
<g id="node8" class="node">
<title>7</title>
<path fill="none" stroke="#80d856" stroke-width="2" d="M348.7392,-108C348.7392,-108 318.7392,-108 318.7392,-108 312.7392,-108 306.7392,-102 306.7392,-96 306.7392,-96 306.7392,-84 306.7392,-84 306.7392,-78 312.7392,-72 318.7392,-72 318.7392,-72 348.7392,-72 348.7392,-72 354.7392,-72 360.7392,-78 360.7392,-84 360.7392,-84 360.7392,-96 360.7392,-96 360.7392,-102 354.7392,-108 348.7392,-108"/>
<text text-anchor="middle" x="333.7392" y="-87.5" font-family="sans" font-size="10.00" fill="#000000">plot_fst</text>
</g>
<!-- 3&#45;&gt;7 -->
<g id="edge14" class="edge">
<title>3&#45;&gt;7</title>
<path fill="none" stroke="#c0c0c0" stroke-width="2" d="M279.9079,-143.8314C288.4545,-135.2848 298.7949,-124.9443 308.1194,-115.6198"/>
<polygon fill="#c0c0c0" stroke="#c0c0c0" stroke-width="2" points="310.7298,-117.9592 315.326,-108.4133 305.78,-113.0095 310.7298,-117.9592"/>
</g>
<!-- 4&#45;&gt;0 -->
<g id="edge4" class="edge">
<title>4&#45;&gt;0</title>
<path fill="none" stroke="#c0c0c0" stroke-width="2" d="M68.9839,-74.5542C87.566,-64.0195 112.3773,-49.9532 132.6064,-38.4848"/>
<polygon fill="#c0c0c0" stroke="#c0c0c0" stroke-width="2" points="134.5665,-41.3969 141.5396,-33.4203 131.1142,-35.3074 134.5665,-41.3969"/>
</g>
<!-- 5&#45;&gt;0 -->
<g id="edge5" class="edge">
<title>5&#45;&gt;0</title>
<path fill="none" stroke="#c0c0c0" stroke-width="2" d="M238.2714,-71.8314C226.7066,-62.8779 212.5989,-51.9558 200.1209,-42.2955"/>
<polygon fill="#c0c0c0" stroke="#c0c0c0" stroke-width="2" points="202.2494,-39.5171 192.1996,-36.1628 197.9642,-45.0521 202.2494,-39.5171"/>
</g>
<!-- 6&#45;&gt;0 -->
<g id="edge6" class="edge">
<title>6&#45;&gt;0</title>
<path fill="none" stroke="#c0c0c0" stroke-width="2" d="M127.6181,-71.8314C133.9528,-63.5386 141.5776,-53.557 148.5318,-44.4533"/>
<polygon fill="#c0c0c0" stroke="#c0c0c0" stroke-width="2" points="151.3845,-46.4847 154.6736,-36.4133 145.8218,-42.2353 151.3845,-46.4847"/>
</g>
<!-- 7&#45;&gt;0 -->
<g id="edge7" class="edge">
<title>7&#45;&gt;0</title>
<path fill="none" stroke="#c0c0c0" stroke-width="2" d="M306.7067,-76.24C303.695,-74.7798 300.6609,-73.3401 297.7392,-72 266.9192,-57.8636 231.3341,-43.08 205.3555,-32.5625"/>
<polygon fill="#c0c0c0" stroke="#c0c0c0" stroke-width="2" points="206.4826,-29.2433 195.8992,-28.7507 203.8655,-35.7357 206.4826,-29.2433"/>
</g>
<!-- 8 -->
<g id="node9" class="node">
<title>8</title>
<path fill="none" stroke="#56a9d8" stroke-width="2" d="M209.2392,-252C209.2392,-252 126.2392,-252 126.2392,-252 120.2392,-252 114.2392,-246 114.2392,-240 114.2392,-240 114.2392,-228 114.2392,-228 114.2392,-222 120.2392,-216 126.2392,-216 126.2392,-216 209.2392,-216 209.2392,-216 215.2392,-216 221.2392,-222 221.2392,-228 221.2392,-228 221.2392,-240 221.2392,-240 221.2392,-246 215.2392,-252 209.2392,-252"/>
<text text-anchor="middle" x="167.7392" y="-231.5" font-family="sans" font-size="10.00" fill="#000000">generate_whitelist</text>
</g>
<!-- 8&#45;&gt;1 -->
<g id="edge8" class="edge">
<title>8&#45;&gt;1</title>
<path fill="none" stroke="#c0c0c0" stroke-width="2" d="M140.2339,-215.8314C126.4213,-206.7074 109.5136,-195.539 94.6863,-185.7449"/>
<polygon fill="#c0c0c0" stroke="#c0c0c0" stroke-width="2" points="96.5088,-182.7541 86.2357,-180.1628 92.6507,-188.5949 96.5088,-182.7541"/>
</g>
<!-- 8&#45;&gt;2 -->
<g id="edge9" class="edge">
<title>8&#45;&gt;2</title>
<path fill="none" stroke="#c0c0c0" stroke-width="2" d="M167.7392,-215.8314C167.7392,-208.131 167.7392,-198.9743 167.7392,-190.4166"/>
<polygon fill="#c0c0c0" stroke="#c0c0c0" stroke-width="2" points="171.2393,-190.4132 167.7392,-180.4133 164.2393,-190.4133 171.2393,-190.4132"/>
</g>
<!-- 8&#45;&gt;3 -->
<g id="edge10" class="edge">
<title>8&#45;&gt;3</title>
<path fill="none" stroke="#c0c0c0" stroke-width="2" d="M191.4594,-215.8314C203.1486,-206.8779 217.408,-195.9558 230.0201,-186.2955"/>
<polygon fill="#c0c0c0" stroke="#c0c0c0" stroke-width="2" points="232.2161,-189.0222 238.0267,-180.1628 227.9596,-183.4651 232.2161,-189.0222"/>
</g>
<!-- 9 -->
<g id="node10" class="node">
<title>9</title>
<path fill="none" stroke="#d8ac56" stroke-width="2" stroke-dasharray="5,2" d="M235.2392,-396C235.2392,-396 194.2392,-396 194.2392,-396 188.2392,-396 182.2392,-390 182.2392,-384 182.2392,-384 182.2392,-372 182.2392,-372 182.2392,-366 188.2392,-360 194.2392,-360 194.2392,-360 235.2392,-360 235.2392,-360 241.2392,-360 247.2392,-366 247.2392,-372 247.2392,-372 247.2392,-384 247.2392,-384 247.2392,-390 241.2392,-396 235.2392,-396"/>
<text text-anchor="middle" x="214.7392" y="-375.5" font-family="sans" font-size="10.00" fill="#000000">locusfilter</text>
</g>
<!-- 9&#45;&gt;8 -->
<g id="edge15" class="edge">
<title>9&#45;&gt;8</title>
<path fill="none" stroke="#c0c0c0" stroke-width="2" d="M203.5979,-359.5702C197.8528,-349.3859 191.1457,-336.3312 186.7392,-324 179.5518,-303.8866 174.6883,-280.2232 171.6824,-262.2096"/>
<polygon fill="#c0c0c0" stroke="#c0c0c0" stroke-width="2" points="175.1388,-261.6585 170.1236,-252.3259 168.2243,-262.749 175.1388,-261.6585"/>
</g>
<!-- 10 -->
<g id="node11" class="node">
<title>10</title>
<path fill="none" stroke="#afd856" stroke-width="2" stroke-dasharray="5,2" d="M273.7392,-324C273.7392,-324 207.7392,-324 207.7392,-324 201.7392,-324 195.7392,-318 195.7392,-312 195.7392,-312 195.7392,-300 195.7392,-300 195.7392,-294 201.7392,-288 207.7392,-288 207.7392,-288 273.7392,-288 273.7392,-288 279.7392,-288 285.7392,-294 285.7392,-300 285.7392,-300 285.7392,-312 285.7392,-312 285.7392,-318 279.7392,-324 273.7392,-324"/>
<text text-anchor="middle" x="240.7392" y="-309" font-family="sans" font-size="10.00" fill="#000000">stats_postfilter</text>
<text text-anchor="middle" x="240.7392" y="-298" font-family="sans" font-size="10.00" fill="#000000">ext: imiss</text>
</g>
<!-- 9&#45;&gt;10 -->
<g id="edge20" class="edge">
<title>9&#45;&gt;10</title>
<path fill="none" stroke="#c0c0c0" stroke-width="2" d="M221.3001,-359.8314C224.142,-351.9617 227.533,-342.5712 230.6811,-333.8533"/>
<polygon fill="#c0c0c0" stroke="#c0c0c0" stroke-width="2" points="233.9854,-335.0076 234.09,-324.4133 227.4016,-332.63 233.9854,-335.0076"/>
</g>
<!-- 10&#45;&gt;8 -->
<g id="edge16" class="edge">
<title>10&#45;&gt;8</title>
<path fill="none" stroke="#c0c0c0" stroke-width="2" d="M222.3183,-287.8314C213.5863,-279.219 203.0075,-268.7851 193.4969,-259.4048"/>
<polygon fill="#c0c0c0" stroke="#c0c0c0" stroke-width="2" points="195.7318,-256.6931 186.1543,-252.1628 190.8163,-261.6769 195.7318,-256.6931"/>
</g>
<!-- 11 -->
<g id="node12" class="node">
<title>11</title>
<path fill="none" stroke="#d88556" stroke-width="2" stroke-dasharray="5,2" d="M199.2392,-756C199.2392,-756 134.2392,-756 134.2392,-756 128.2392,-756 122.2392,-750 122.2392,-744 122.2392,-744 122.2392,-732 122.2392,-732 122.2392,-726 128.2392,-720 134.2392,-720 134.2392,-720 199.2392,-720 199.2392,-720 205.2392,-720 211.2392,-726 211.2392,-732 211.2392,-732 211.2392,-744 211.2392,-744 211.2392,-750 205.2392,-756 199.2392,-756"/>
<text text-anchor="middle" x="166.7392" y="-735.5" font-family="sans" font-size="10.00" fill="#000000">index_genome</text>
</g>
<!-- 11&#45;&gt;8 -->
<g id="edge17" class="edge">
<title>11&#45;&gt;8</title>
<path fill="none" stroke="#c0c0c0" stroke-width="2" d="M158.8925,-719.746C148.0315,-692.7781 129.7392,-640.4617 129.7392,-594 129.7392,-594 129.7392,-594 129.7392,-378 129.7392,-336.3681 144.772,-290.14 155.9274,-261.567"/>
<polygon fill="#c0c0c0" stroke="#c0c0c0" stroke-width="2" points="159.197,-262.817 159.6804,-252.2332 152.7024,-260.2055 159.197,-262.817"/>
</g>
<!-- 15 -->
<g id="node16" class="node">
<title>15</title>
<path fill="none" stroke="#56d882" stroke-width="2" stroke-dasharray="5,2" d="M239.7392,-684C239.7392,-684 169.7392,-684 169.7392,-684 163.7392,-684 157.7392,-678 157.7392,-672 157.7392,-672 157.7392,-660 157.7392,-660 157.7392,-654 163.7392,-648 169.7392,-648 169.7392,-648 239.7392,-648 239.7392,-648 245.7392,-648 251.7392,-654 251.7392,-660 251.7392,-660 251.7392,-672 251.7392,-672 251.7392,-678 245.7392,-684 239.7392,-684"/>
<text text-anchor="middle" x="204.7392" y="-663.5" font-family="sans" font-size="10.00" fill="#000000">add_vcf_header</text>
</g>
<!-- 11&#45;&gt;15 -->
<g id="edge24" class="edge">
<title>11&#45;&gt;15</title>
<path fill="none" stroke="#c0c0c0" stroke-width="2" d="M176.3282,-719.8314C180.571,-711.7925 185.6513,-702.1666 190.3352,-693.2918"/>
<polygon fill="#c0c0c0" stroke="#c0c0c0" stroke-width="2" points="193.4488,-694.8908 195.0211,-684.4133 187.2581,-691.6235 193.4488,-694.8908"/>
</g>
<!-- 12 -->
<g id="node13" class="node">
<title>12</title>
<path fill="none" stroke="#59d856" stroke-width="2" stroke-dasharray="5,2" d="M224.2392,-540C224.2392,-540 185.2392,-540 185.2392,-540 179.2392,-540 173.2392,-534 173.2392,-528 173.2392,-528 173.2392,-516 173.2392,-516 173.2392,-510 179.2392,-504 185.2392,-504 185.2392,-504 224.2392,-504 224.2392,-504 230.2392,-504 236.2392,-510 236.2392,-516 236.2392,-516 236.2392,-528 236.2392,-528 236.2392,-534 230.2392,-540 224.2392,-540"/>
<text text-anchor="middle" x="204.7392" y="-519.5" font-family="sans" font-size="10.00" fill="#000000">bgzip_vcf</text>
</g>
<!-- 12&#45;&gt;9 -->
<g id="edge18" class="edge">
<title>12&#45;&gt;9</title>
<path fill="none" stroke="#c0c0c0" stroke-width="2" d="M200.9174,-503.9794C197.6168,-485.7446 193.9301,-456.7845 197.7392,-432 199.0767,-423.2979 201.5596,-414.074 204.2226,-405.759"/>
<polygon fill="#c0c0c0" stroke="#c0c0c0" stroke-width="2" points="207.5799,-406.7579 207.4954,-396.1634 200.9546,-404.4982 207.5799,-406.7579"/>
</g>
<!-- 13 -->
<g id="node14" class="node">
<title>13</title>
<path fill="none" stroke="#56d8d8" stroke-width="2" stroke-dasharray="5,2" d="M258.7392,-468C258.7392,-468 218.7392,-468 218.7392,-468 212.7392,-468 206.7392,-462 206.7392,-456 206.7392,-456 206.7392,-444 206.7392,-444 206.7392,-438 212.7392,-432 218.7392,-432 218.7392,-432 258.7392,-432 258.7392,-432 264.7392,-432 270.7392,-438 270.7392,-444 270.7392,-444 270.7392,-456 270.7392,-456 270.7392,-462 264.7392,-468 258.7392,-468"/>
<text text-anchor="middle" x="238.7392" y="-447.5" font-family="sans" font-size="10.00" fill="#000000">index_vcf</text>
</g>
<!-- 12&#45;&gt;13 -->
<g id="edge22" class="edge">
<title>12&#45;&gt;13</title>
<path fill="none" stroke="#c0c0c0" stroke-width="2" d="M213.3189,-503.8314C217.0751,-495.8771 221.565,-486.369 225.719,-477.5723"/>
<polygon fill="#c0c0c0" stroke="#c0c0c0" stroke-width="2" points="228.9388,-478.9503 230.0441,-468.4133 222.6091,-475.9612 228.9388,-478.9503"/>
</g>
<!-- 13&#45;&gt;9 -->
<g id="edge19" class="edge">
<title>13&#45;&gt;9</title>
<path fill="none" stroke="#c0c0c0" stroke-width="2" d="M232.683,-431.8314C230.088,-424.0463 226.9969,-414.7729 224.1175,-406.1347"/>
<polygon fill="#c0c0c0" stroke="#c0c0c0" stroke-width="2" points="227.3597,-404.7933 220.877,-396.4133 220.719,-407.0069 227.3597,-404.7933"/>
</g>
<!-- 14 -->
<g id="node15" class="node">
<title>14</title>
<path fill="none" stroke="#d6d856" stroke-width="2" stroke-dasharray="5,2" d="M220.7392,-612C220.7392,-612 188.7392,-612 188.7392,-612 182.7392,-612 176.7392,-606 176.7392,-600 176.7392,-600 176.7392,-588 176.7392,-588 176.7392,-582 182.7392,-576 188.7392,-576 188.7392,-576 220.7392,-576 220.7392,-576 226.7392,-576 232.7392,-582 232.7392,-588 232.7392,-588 232.7392,-600 232.7392,-600 232.7392,-606 226.7392,-612 220.7392,-612"/>
<text text-anchor="middle" x="204.7392" y="-591.5" font-family="sans" font-size="10.00" fill="#000000">sort_vcf</text>
</g>
<!-- 14&#45;&gt;12 -->
<g id="edge21" class="edge">
<title>14&#45;&gt;12</title>
<path fill="none" stroke="#c0c0c0" stroke-width="2" d="M204.7392,-575.8314C204.7392,-568.131 204.7392,-558.9743 204.7392,-550.4166"/>
<polygon fill="#c0c0c0" stroke="#c0c0c0" stroke-width="2" points="208.2393,-550.4132 204.7392,-540.4133 201.2393,-550.4133 208.2393,-550.4132"/>
</g>
<!-- 15&#45;&gt;14 -->
<g id="edge23" class="edge">
<title>15&#45;&gt;14</title>
<path fill="none" stroke="#c0c0c0" stroke-width="2" d="M204.7392,-647.8314C204.7392,-640.131 204.7392,-630.9743 204.7392,-622.4166"/>
<polygon fill="#c0c0c0" stroke="#c0c0c0" stroke-width="2" points="208.2393,-622.4132 204.7392,-612.4133 201.2393,-622.4133 208.2393,-622.4132"/>
</g>
</g>
</svg>
