<?xml version="1.0" encoding="UTF-8" standalone="no"?>
<!DOCTYPE svg PUBLIC "-//W3C//DTD SVG 1.1//EN"
 "http://www.w3.org/Graphics/SVG/1.1/DTD/svg11.dtd">
<!-- Generated by graphviz version 2.40.1 (20161225.0304)
 -->
<!-- Title: snakemake_dag Pages: 1 -->
<svg width="180pt" height="764pt"
 viewBox="0.00 0.00 179.50 764.00" xmlns="http://www.w3.org/2000/svg" xmlns:xlink="http://www.w3.org/1999/xlink">
<g id="graph0" class="graph" transform="scale(1 1) rotate(0) translate(4 760)">
<title>snakemake_dag</title>
<polygon fill="#ffffff" stroke="transparent" points="-4,4 -4,-760 175.5,-760 175.5,4 -4,4"/>
<!-- 0 -->
<g id="node1" class="node">
<title>0</title>
<path fill="none" stroke="#d8ac56" stroke-width="2" d="M68.5,-36C68.5,-36 38.5,-36 38.5,-36 32.5,-36 26.5,-30 26.5,-24 26.5,-24 26.5,-12 26.5,-12 26.5,-6 32.5,0 38.5,0 38.5,0 68.5,0 68.5,0 74.5,0 80.5,-6 80.5,-12 80.5,-12 80.5,-24 80.5,-24 80.5,-30 74.5,-36 68.5,-36"/>
<text text-anchor="middle" x="53.5" y="-15.5" font-family="sans" font-size="10.00" fill="#000000">target</text>
</g>
<!-- 1 -->
<g id="node2" class="node">
<title>1</title>
<path fill="none" stroke="#56a9d8" stroke-width="2" d="M68.5,-108C68.5,-108 38.5,-108 38.5,-108 32.5,-108 26.5,-102 26.5,-96 26.5,-96 26.5,-84 26.5,-84 26.5,-78 32.5,-72 38.5,-72 38.5,-72 68.5,-72 68.5,-72 74.5,-72 80.5,-78 80.5,-84 80.5,-84 80.5,-96 80.5,-96 80.5,-102 74.5,-108 68.5,-108"/>
<text text-anchor="middle" x="53.5" y="-87.5" font-family="sans" font-size="10.00" fill="#000000">dapc</text>
</g>
<!-- 1&#45;&gt;0 -->
<g id="edge2" class="edge">
<title>1&#45;&gt;0</title>
<path fill="none" stroke="#c0c0c0" stroke-width="2" d="M53.5,-71.8314C53.5,-64.131 53.5,-54.9743 53.5,-46.4166"/>
<polygon fill="#c0c0c0" stroke="#c0c0c0" stroke-width="2" points="57.0001,-46.4132 53.5,-36.4133 50.0001,-46.4133 57.0001,-46.4132"/>
</g>
<!-- 2 -->
<g id="node3" class="node">
<title>2</title>
<path fill="none" stroke="#afd856" stroke-width="2" d="M78.5,-180C78.5,-180 28.5,-180 28.5,-180 22.5,-180 16.5,-174 16.5,-168 16.5,-168 16.5,-156 16.5,-156 16.5,-150 22.5,-144 28.5,-144 28.5,-144 78.5,-144 78.5,-144 84.5,-144 90.5,-150 90.5,-156 90.5,-156 90.5,-168 90.5,-168 90.5,-174 84.5,-180 78.5,-180"/>
<text text-anchor="middle" x="53.5" y="-159.5" font-family="sans" font-size="10.00" fill="#000000">populations</text>
</g>
<!-- 2&#45;&gt;0 -->
<g id="edge3" class="edge">
<title>2&#45;&gt;0</title>
<path fill="none" stroke="#c0c0c0" stroke-width="2" d="M37.5095,-143.9169C29.8462,-134.0371 21.4834,-121.1563 17.5,-108 12.8635,-92.6865 12.8635,-87.3135 17.5,-72 20.4564,-62.2355 25.8252,-52.6229 31.53,-44.2762"/>
<polygon fill="#c0c0c0" stroke="#c0c0c0" stroke-width="2" points="34.4414,-46.2239 37.5095,-36.0831 28.7871,-42.0973 34.4414,-46.2239"/>
</g>
<!-- 2&#45;&gt;1 -->
<g id="edge4" class="edge">
<title>2&#45;&gt;1</title>
<path fill="none" stroke="#c0c0c0" stroke-width="2" d="M53.5,-143.8314C53.5,-136.131 53.5,-126.9743 53.5,-118.4166"/>
<polygon fill="#c0c0c0" stroke="#c0c0c0" stroke-width="2" points="57.0001,-118.4132 53.5,-108.4133 50.0001,-118.4133 57.0001,-118.4132"/>
</g>
<!-- 3 -->
<g id="node4" class="node">
<title>3</title>
<path fill="none" stroke="#80d856" stroke-width="2" d="M140.5,-108C140.5,-108 110.5,-108 110.5,-108 104.5,-108 98.5,-102 98.5,-96 98.5,-96 98.5,-84 98.5,-84 98.5,-78 104.5,-72 110.5,-72 110.5,-72 140.5,-72 140.5,-72 146.5,-72 152.5,-78 152.5,-84 152.5,-84 152.5,-96 152.5,-96 152.5,-102 146.5,-108 140.5,-108"/>
<text text-anchor="middle" x="125.5" y="-87.5" font-family="sans" font-size="10.00" fill="#000000">plot_fst</text>
</g>
<!-- 2&#45;&gt;3 -->
<g id="edge6" class="edge">
<title>2&#45;&gt;3</title>
<path fill="none" stroke="#c0c0c0" stroke-width="2" d="M71.6686,-143.8314C80.2152,-135.2848 90.5557,-124.9443 99.8802,-115.6198"/>
<polygon fill="#c0c0c0" stroke="#c0c0c0" stroke-width="2" points="102.4905,-117.9592 107.0867,-108.4133 97.5408,-113.0095 102.4905,-117.9592"/>
</g>
<!-- 3&#45;&gt;0 -->
<g id="edge1" class="edge">
<title>3&#45;&gt;0</title>
<path fill="none" stroke="#c0c0c0" stroke-width="2" d="M107.3314,-71.8314C98.7848,-63.2848 88.4443,-52.9443 79.1198,-43.6198"/>
<polygon fill="#c0c0c0" stroke="#c0c0c0" stroke-width="2" points="81.4592,-41.0095 71.9133,-36.4133 76.5095,-45.9592 81.4592,-41.0095"/>
</g>
<!-- 4 -->
<g id="node5" class="node">
<title>4</title>
<path fill="none" stroke="#d6d856" stroke-width="2" d="M95,-252C95,-252 12,-252 12,-252 6,-252 0,-246 0,-240 0,-240 0,-228 0,-228 0,-222 6,-216 12,-216 12,-216 95,-216 95,-216 101,-216 107,-222 107,-228 107,-228 107,-240 107,-240 107,-246 101,-252 95,-252"/>
<text text-anchor="middle" x="53.5" y="-231.5" font-family="sans" font-size="10.00" fill="#000000">generate_whitelist</text>
</g>
<!-- 4&#45;&gt;2 -->
<g id="edge5" class="edge">
<title>4&#45;&gt;2</title>
<path fill="none" stroke="#c0c0c0" stroke-width="2" d="M53.5,-215.8314C53.5,-208.131 53.5,-198.9743 53.5,-190.4166"/>
<polygon fill="#c0c0c0" stroke="#c0c0c0" stroke-width="2" points="57.0001,-190.4132 53.5,-180.4133 50.0001,-190.4133 57.0001,-190.4132"/>
</g>
<!-- 5 -->
<g id="node6" class="node">
<title>5</title>
<path fill="none" stroke="#d88556" stroke-width="2" d="M121,-396C121,-396 80,-396 80,-396 74,-396 68,-390 68,-384 68,-384 68,-372 68,-372 68,-366 74,-360 80,-360 80,-360 121,-360 121,-360 127,-360 133,-366 133,-372 133,-372 133,-384 133,-384 133,-390 127,-396 121,-396"/>
<text text-anchor="middle" x="100.5" y="-375.5" font-family="sans" font-size="10.00" fill="#000000">locusfilter</text>
</g>
<!-- 5&#45;&gt;4 -->
<g id="edge8" class="edge">
<title>5&#45;&gt;4</title>
<path fill="none" stroke="#c0c0c0" stroke-width="2" d="M89.3586,-359.5702C83.6135,-349.3859 76.9065,-336.3312 72.5,-324 65.3125,-303.8866 60.4491,-280.2232 57.4431,-262.2096"/>
<polygon fill="#c0c0c0" stroke="#c0c0c0" stroke-width="2" points="60.8996,-261.6585 55.8844,-252.3259 53.985,-262.749 60.8996,-261.6585"/>
</g>
<!-- 6 -->
<g id="node7" class="node">
<title>6</title>
<path fill="none" stroke="#59d856" stroke-width="2" d="M159.5,-324C159.5,-324 93.5,-324 93.5,-324 87.5,-324 81.5,-318 81.5,-312 81.5,-312 81.5,-300 81.5,-300 81.5,-294 87.5,-288 93.5,-288 93.5,-288 159.5,-288 159.5,-288 165.5,-288 171.5,-294 171.5,-300 171.5,-300 171.5,-312 171.5,-312 171.5,-318 165.5,-324 159.5,-324"/>
<text text-anchor="middle" x="126.5" y="-303.5" font-family="sans" font-size="10.00" fill="#000000">stats_postfilter</text>
</g>
<!-- 5&#45;&gt;6 -->
<g id="edge12" class="edge">
<title>5&#45;&gt;6</title>
<path fill="none" stroke="#c0c0c0" stroke-width="2" d="M107.0609,-359.8314C109.9027,-351.9617 113.2937,-342.5712 116.4419,-333.8533"/>
<polygon fill="#c0c0c0" stroke="#c0c0c0" stroke-width="2" points="119.7462,-335.0076 119.8508,-324.4133 113.1623,-332.63 119.7462,-335.0076"/>
</g>
<!-- 6&#45;&gt;4 -->
<g id="edge7" class="edge">
<title>6&#45;&gt;4</title>
<path fill="none" stroke="#c0c0c0" stroke-width="2" d="M108.079,-287.8314C99.3471,-279.219 88.7683,-268.7851 79.2577,-259.4048"/>
<polygon fill="#c0c0c0" stroke="#c0c0c0" stroke-width="2" points="81.4925,-256.6931 71.9151,-252.1628 76.577,-261.6769 81.4925,-256.6931"/>
</g>
<!-- 7 -->
<g id="node8" class="node">
<title>7</title>
<path fill="none" stroke="#5682d8" stroke-width="2" d="M85,-756C85,-756 20,-756 20,-756 14,-756 8,-750 8,-744 8,-744 8,-732 8,-732 8,-726 14,-720 20,-720 20,-720 85,-720 85,-720 91,-720 97,-726 97,-732 97,-732 97,-744 97,-744 97,-750 91,-756 85,-756"/>
<text text-anchor="middle" x="52.5" y="-735.5" font-family="sans" font-size="10.00" fill="#000000">index_genome</text>
</g>
<!-- 7&#45;&gt;4 -->
<g id="edge9" class="edge">
<title>7&#45;&gt;4</title>
<path fill="none" stroke="#c0c0c0" stroke-width="2" d="M44.6533,-719.746C33.7922,-692.7781 15.5,-640.4617 15.5,-594 15.5,-594 15.5,-594 15.5,-378 15.5,-336.3681 30.5328,-290.14 41.6881,-261.567"/>
<polygon fill="#c0c0c0" stroke="#c0c0c0" stroke-width="2" points="44.9578,-262.817 45.4412,-252.2332 38.4632,-260.2055 44.9578,-262.817"/>
</g>
<!-- 11 -->
<g id="node12" class="node">
<title>11</title>
<path fill="none" stroke="#56d8d8" stroke-width="2" d="M125.5,-684C125.5,-684 55.5,-684 55.5,-684 49.5,-684 43.5,-678 43.5,-672 43.5,-672 43.5,-660 43.5,-660 43.5,-654 49.5,-648 55.5,-648 55.5,-648 125.5,-648 125.5,-648 131.5,-648 137.5,-654 137.5,-660 137.5,-660 137.5,-672 137.5,-672 137.5,-678 131.5,-684 125.5,-684"/>
<text text-anchor="middle" x="90.5" y="-663.5" font-family="sans" font-size="10.00" fill="#000000">add_vcf_header</text>
</g>
<!-- 7&#45;&gt;11 -->
<g id="edge16" class="edge">
<title>7&#45;&gt;11</title>
<path fill="none" stroke="#c0c0c0" stroke-width="2" d="M62.089,-719.8314C66.3317,-711.7925 71.4121,-702.1666 76.096,-693.2918"/>
<polygon fill="#c0c0c0" stroke="#c0c0c0" stroke-width="2" points="79.2096,-694.8908 80.7819,-684.4133 73.0189,-691.6235 79.2096,-694.8908"/>
</g>
<!-- 8 -->
<g id="node9" class="node">
<title>8</title>
<path fill="none" stroke="#56d8a9" stroke-width="2" d="M110,-540C110,-540 71,-540 71,-540 65,-540 59,-534 59,-528 59,-528 59,-516 59,-516 59,-510 65,-504 71,-504 71,-504 110,-504 110,-504 116,-504 122,-510 122,-516 122,-516 122,-528 122,-528 122,-534 116,-540 110,-540"/>
<text text-anchor="middle" x="90.5" y="-519.5" font-family="sans" font-size="10.00" fill="#000000">bgzip_vcf</text>
</g>
<!-- 8&#45;&gt;5 -->
<g id="edge10" class="edge">
<title>8&#45;&gt;5</title>
<path fill="none" stroke="#c0c0c0" stroke-width="2" d="M86.6782,-503.9794C83.3775,-485.7446 79.6909,-456.7845 83.5,-432 84.8374,-423.2979 87.3204,-414.074 89.9834,-405.759"/>
<polygon fill="#c0c0c0" stroke="#c0c0c0" stroke-width="2" points="93.3406,-406.7579 93.2561,-396.1634 86.7154,-404.4982 93.3406,-406.7579"/>
</g>
<!-- 9 -->
<g id="node10" class="node">
<title>9</title>
<path fill="none" stroke="#56d882" stroke-width="2" d="M144.5,-468C144.5,-468 104.5,-468 104.5,-468 98.5,-468 92.5,-462 92.5,-456 92.5,-456 92.5,-444 92.5,-444 92.5,-438 98.5,-432 104.5,-432 104.5,-432 144.5,-432 144.5,-432 150.5,-432 156.5,-438 156.5,-444 156.5,-444 156.5,-456 156.5,-456 156.5,-462 150.5,-468 144.5,-468"/>
<text text-anchor="middle" x="124.5" y="-447.5" font-family="sans" font-size="10.00" fill="#000000">index_vcf</text>
</g>
<!-- 8&#45;&gt;9 -->
<g id="edge14" class="edge">
<title>8&#45;&gt;9</title>
<path fill="none" stroke="#c0c0c0" stroke-width="2" d="M99.0796,-503.8314C102.8358,-495.8771 107.3257,-486.369 111.4798,-477.5723"/>
<polygon fill="#c0c0c0" stroke="#c0c0c0" stroke-width="2" points="114.6996,-478.9503 115.8048,-468.4133 108.3699,-475.9612 114.6996,-478.9503"/>
</g>
<!-- 9&#45;&gt;5 -->
<g id="edge11" class="edge">
<title>9&#45;&gt;5</title>
<path fill="none" stroke="#c0c0c0" stroke-width="2" d="M118.4438,-431.8314C115.8488,-424.0463 112.7576,-414.7729 109.8782,-406.1347"/>
<polygon fill="#c0c0c0" stroke="#c0c0c0" stroke-width="2" points="113.1205,-404.7933 106.6378,-396.4133 106.4797,-407.0069 113.1205,-404.7933"/>
</g>
<!-- 10 -->
<g id="node11" class="node">
<title>10</title>
<path fill="none" stroke="#d85656" stroke-width="2" d="M106.5,-612C106.5,-612 74.5,-612 74.5,-612 68.5,-612 62.5,-606 62.5,-600 62.5,-600 62.5,-588 62.5,-588 62.5,-582 68.5,-576 74.5,-576 74.5,-576 106.5,-576 106.5,-576 112.5,-576 118.5,-582 118.5,-588 118.5,-588 118.5,-600 118.5,-600 118.5,-606 112.5,-612 106.5,-612"/>
<text text-anchor="middle" x="90.5" y="-591.5" font-family="sans" font-size="10.00" fill="#000000">sort_vcf</text>
</g>
<!-- 10&#45;&gt;8 -->
<g id="edge13" class="edge">
<title>10&#45;&gt;8</title>
<path fill="none" stroke="#c0c0c0" stroke-width="2" d="M90.5,-575.8314C90.5,-568.131 90.5,-558.9743 90.5,-550.4166"/>
<polygon fill="#c0c0c0" stroke="#c0c0c0" stroke-width="2" points="94.0001,-550.4132 90.5,-540.4133 87.0001,-550.4133 94.0001,-550.4132"/>
</g>
<!-- 11&#45;&gt;10 -->
<g id="edge15" class="edge">
<title>11&#45;&gt;10</title>
<path fill="none" stroke="#c0c0c0" stroke-width="2" d="M90.5,-647.8314C90.5,-640.131 90.5,-630.9743 90.5,-622.4166"/>
<polygon fill="#c0c0c0" stroke="#c0c0c0" stroke-width="2" points="94.0001,-622.4132 90.5,-612.4133 87.0001,-622.4133 94.0001,-622.4132"/>
</g>
</g>
</svg>
