<?xml version="1.0" encoding="UTF-8" standalone="no"?>
<!DOCTYPE svg PUBLIC "-//W3C//DTD SVG 1.1//EN"
 "http://www.w3.org/Graphics/SVG/1.1/DTD/svg11.dtd">
<!-- Generated by graphviz version 2.40.1 (20161225.0304)
 -->
<!-- Title: snakemake_dag Pages: 1 -->
<svg width="556pt" height="1124pt"
 viewBox="0.00 0.00 556.00 1124.00" xmlns="http://www.w3.org/2000/svg" xmlns:xlink="http://www.w3.org/1999/xlink">
<g id="graph0" class="graph" transform="scale(1 1) rotate(0) translate(4 1120)">
<title>snakemake_dag</title>
<polygon fill="#ffffff" stroke="transparent" points="-4,4 -4,-1120 552,-1120 552,4 -4,4"/>
<!-- 1 -->
<g id="node1" class="node">
<title>1</title>
<path fill="none" stroke="#56c1d8" stroke-width="2" d="M304,-180C304,-180 274,-180 274,-180 268,-180 262,-174 262,-168 262,-168 262,-156 262,-156 262,-150 268,-144 274,-144 274,-144 304,-144 304,-144 310,-144 316,-150 316,-156 316,-156 316,-168 316,-168 316,-174 310,-180 304,-180"/>
<text text-anchor="middle" x="289" y="-159.5" font-family="sans" font-size="10.00" fill="#000000">dapc</text>
</g>
<!-- 2 -->
<g id="node2" class="node">
<title>2</title>
<path fill="none" stroke="#5663d8" stroke-width="2" d="M155.5,-36C155.5,-36 92.5,-36 92.5,-36 86.5,-36 80.5,-30 80.5,-24 80.5,-24 80.5,-12 80.5,-12 80.5,-6 86.5,0 92.5,0 92.5,0 155.5,0 155.5,0 161.5,0 167.5,-6 167.5,-12 167.5,-12 167.5,-24 167.5,-24 167.5,-30 161.5,-36 155.5,-36"/>
<text text-anchor="middle" x="124" y="-15.5" font-family="sans" font-size="10.00" fill="#000000">plot_bayescan</text>
</g>
<!-- 3 -->
<g id="node3" class="node">
<title>3</title>
<path fill="none" stroke="#56d8a9" stroke-width="2" d="M461,-36C461,-36 405,-36 405,-36 399,-36 393,-30 393,-24 393,-24 393,-12 393,-12 393,-6 399,0 405,0 405,0 461,0 461,0 467,0 473,-6 473,-12 473,-12 473,-24 473,-24 473,-30 467,-36 461,-36"/>
<text text-anchor="middle" x="433" y="-15.5" font-family="sans" font-size="10.00" fill="#000000">generate_sfs</text>
</g>
<!-- 4 -->
<g id="node4" class="node">
<title>4</title>
<path fill="none" stroke="#56d87b" stroke-width="2" d="M379,-396C379,-396 281,-396 281,-396 275,-396 269,-390 269,-384 269,-384 269,-372 269,-372 269,-366 275,-360 281,-360 281,-360 379,-360 379,-360 385,-360 391,-366 391,-372 391,-372 391,-384 391,-384 391,-390 385,-396 379,-396"/>
<text text-anchor="middle" x="330" y="-375.5" font-family="sans" font-size="10.00" fill="#000000">filter_populations_vcf</text>
</g>
<!-- 4&#45;&gt;1 -->
<g id="edge1" class="edge">
<title>4&#45;&gt;1</title>
<path fill="none" stroke="#c0c0c0" stroke-width="2" d="M330.8542,-359.5103C331.2933,-349.0847 331.7812,-335.8186 332,-324 332.2961,-308.0027 334.6192,-303.7842 332,-288 326.1879,-252.974 311.8689,-214.6163 301.3444,-189.536"/>
<polygon fill="#c0c0c0" stroke="#c0c0c0" stroke-width="2" points="304.5381,-188.1025 297.3827,-180.289 298.1037,-190.8593 304.5381,-188.1025"/>
</g>
<!-- 4&#45;&gt;2 -->
<g id="edge3" class="edge">
<title>4&#45;&gt;2</title>
<path fill="none" stroke="#c0c0c0" stroke-width="2" d="M268.7863,-360.6528C247.0798,-352.2412 223.6791,-340.3309 206,-324 172.6999,-293.2394 158,-279.3333 158,-234 158,-234 158,-234 158,-162 158,-120.8199 144.6668,-74.7455 134.6995,-46.0555"/>
<polygon fill="#c0c0c0" stroke="#c0c0c0" stroke-width="2" points="137.8773,-44.5477 131.2105,-36.3133 131.2871,-46.9079 137.8773,-44.5477"/>
</g>
<!-- 4&#45;&gt;3 -->
<g id="edge8" class="edge">
<title>4&#45;&gt;3</title>
<path fill="none" stroke="#c0c0c0" stroke-width="2" d="M346.3451,-359.7923C374.715,-326.818 432.0436,-253.7675 453,-180 465.9975,-134.2482 453.356,-78.8556 443.1072,-46.1286"/>
<polygon fill="#c0c0c0" stroke="#c0c0c0" stroke-width="2" points="446.3396,-44.753 439.8992,-36.3403 439.6877,-46.9331 446.3396,-44.753"/>
</g>
<!-- 5 -->
<g id="node5" class="node">
<title>5</title>
<path fill="none" stroke="#d8ac56" stroke-width="2" d="M254.5,-252C254.5,-252 213.5,-252 213.5,-252 207.5,-252 201.5,-246 201.5,-240 201.5,-240 201.5,-228 201.5,-228 201.5,-222 207.5,-216 213.5,-216 213.5,-216 254.5,-216 254.5,-216 260.5,-216 266.5,-222 266.5,-228 266.5,-228 266.5,-240 266.5,-240 266.5,-246 260.5,-252 254.5,-252"/>
<text text-anchor="middle" x="234" y="-231.5" font-family="sans" font-size="10.00" fill="#000000">prune_vcf</text>
</g>
<!-- 4&#45;&gt;5 -->
<g id="edge16" class="edge">
<title>4&#45;&gt;5</title>
<path fill="none" stroke="#c0c0c0" stroke-width="2" d="M268.8397,-363.3786C248.4692,-355.2824 227.9451,-342.8757 216,-324 204.1726,-305.3103 210.4627,-280.4291 218.7006,-261.565"/>
<polygon fill="#c0c0c0" stroke="#c0c0c0" stroke-width="2" points="221.9663,-262.8475 223.1004,-252.3135 215.6448,-259.841 221.9663,-262.8475"/>
</g>
<!-- 12 -->
<g id="node12" class="node">
<title>12</title>
<path fill="none" stroke="#70d856" stroke-width="2" d="M311,-324C311,-324 237,-324 237,-324 231,-324 225,-318 225,-312 225,-312 225,-300 225,-300 225,-294 231,-288 237,-288 237,-288 311,-288 311,-288 317,-288 323,-294 323,-300 323,-300 323,-312 323,-312 323,-318 317,-324 311,-324"/>
<text text-anchor="middle" x="274" y="-303.5" font-family="sans" font-size="10.00" fill="#000000">list_pruned_snps</text>
</g>
<!-- 4&#45;&gt;12 -->
<g id="edge25" class="edge">
<title>4&#45;&gt;12</title>
<path fill="none" stroke="#c0c0c0" stroke-width="2" d="M315.8688,-359.8314C309.4189,-351.5386 301.6555,-341.557 294.5748,-332.4533"/>
<polygon fill="#c0c0c0" stroke="#c0c0c0" stroke-width="2" points="297.2236,-330.158 288.3214,-324.4133 291.6981,-334.4556 297.2236,-330.158"/>
</g>
<!-- 14 -->
<g id="node14" class="node">
<title>14</title>
<path fill="none" stroke="#56d8d8" stroke-width="2" d="M117.5,-180C117.5,-180 40.5,-180 40.5,-180 34.5,-180 28.5,-174 28.5,-168 28.5,-168 28.5,-156 28.5,-156 28.5,-150 34.5,-144 40.5,-144 40.5,-144 117.5,-144 117.5,-144 123.5,-144 129.5,-150 129.5,-156 129.5,-156 129.5,-168 129.5,-168 129.5,-174 123.5,-180 117.5,-180"/>
<text text-anchor="middle" x="79" y="-159.5" font-family="sans" font-size="10.00" fill="#000000">convert_to_geste</text>
</g>
<!-- 4&#45;&gt;14 -->
<g id="edge28" class="edge">
<title>4&#45;&gt;14</title>
<path fill="none" stroke="#c0c0c0" stroke-width="2" d="M268.9405,-366.2963C222.1295,-356.2452 162.5061,-340.7588 144,-324 123.4993,-305.4349 99.188,-230.9854 86.9223,-189.7823"/>
<polygon fill="#c0c0c0" stroke="#c0c0c0" stroke-width="2" points="90.2484,-188.6866 84.0731,-180.0775 83.5319,-190.6585 90.2484,-188.6866"/>
</g>
<!-- 18 -->
<g id="node18" class="node">
<title>18</title>
<path fill="none" stroke="#d8cb56" stroke-width="2" d="M432,-180C432,-180 346,-180 346,-180 340,-180 334,-174 334,-168 334,-168 334,-156 334,-156 334,-150 340,-144 346,-144 346,-144 432,-144 432,-144 438,-144 444,-150 444,-156 444,-156 444,-168 444,-168 444,-174 438,-180 432,-180"/>
<text text-anchor="middle" x="389" y="-159.5" font-family="sans" font-size="10.00" fill="#000000">preview_projection</text>
</g>
<!-- 4&#45;&gt;18 -->
<g id="edge35" class="edge">
<title>4&#45;&gt;18</title>
<path fill="none" stroke="#c0c0c0" stroke-width="2" d="M335.6108,-359.5434C338.7413,-349.1281 342.6693,-335.8614 346,-324 359.1461,-277.1837 373.4522,-222.4582 381.8021,-190.0982"/>
<polygon fill="#c0c0c0" stroke="#c0c0c0" stroke-width="2" points="385.2916,-190.582 384.3952,-180.0251 378.5126,-188.8368 385.2916,-190.582"/>
</g>
<!-- 5&#45;&gt;1 -->
<g id="edge2" class="edge">
<title>5&#45;&gt;1</title>
<path fill="none" stroke="#c0c0c0" stroke-width="2" d="M247.8788,-215.8314C254.2136,-207.5386 261.8384,-197.557 268.7926,-188.4533"/>
<polygon fill="#c0c0c0" stroke="#c0c0c0" stroke-width="2" points="271.6452,-190.4847 274.9343,-180.4133 266.0825,-186.2353 271.6452,-190.4847"/>
</g>
<!-- 5&#45;&gt;2 -->
<g id="edge5" class="edge">
<title>5&#45;&gt;2</title>
<path fill="none" stroke="#c0c0c0" stroke-width="2" d="M229.3571,-215.775C220.9525,-184.7263 201.3244,-120.2527 172,-72 165.9153,-61.9877 157.8806,-52.0928 150.129,-43.5625"/>
<polygon fill="#c0c0c0" stroke="#c0c0c0" stroke-width="2" points="152.5551,-41.0334 143.1538,-36.148 147.4566,-45.8298 152.5551,-41.0334"/>
</g>
<!-- 5&#45;&gt;3 -->
<g id="edge10" class="edge">
<title>5&#45;&gt;3</title>
<path fill="none" stroke="#c0c0c0" stroke-width="2" d="M234.249,-215.7429C235.2928,-196.5367 239.2305,-166.09 253,-144 283.7657,-94.6436 341.7335,-59.3844 383.5882,-38.9378"/>
<polygon fill="#c0c0c0" stroke="#c0c0c0" stroke-width="2" points="385.2676,-42.0147 392.7894,-34.5532 382.2563,-35.6955 385.2676,-42.0147"/>
</g>
<!-- 5&#45;&gt;14 -->
<g id="edge29" class="edge">
<title>5&#45;&gt;14</title>
<path fill="none" stroke="#c0c0c0" stroke-width="2" d="M201.1285,-218.7307C179.6329,-208.7456 151.1888,-195.5329 127.1597,-184.371"/>
<polygon fill="#c0c0c0" stroke="#c0c0c0" stroke-width="2" points="128.3943,-181.0853 117.8505,-180.0467 125.4453,-187.4338 128.3943,-181.0853"/>
</g>
<!-- 5&#45;&gt;18 -->
<g id="edge36" class="edge">
<title>5&#45;&gt;18</title>
<path fill="none" stroke="#c0c0c0" stroke-width="2" d="M266.8715,-218.7307C288.3671,-208.7456 316.8112,-195.5329 340.8403,-184.371"/>
<polygon fill="#c0c0c0" stroke="#c0c0c0" stroke-width="2" points="342.5547,-187.4338 350.1495,-180.0467 339.6057,-181.0853 342.5547,-187.4338"/>
</g>
<!-- 6 -->
<g id="node6" class="node">
<title>6</title>
<path fill="none" stroke="#d8bc56" stroke-width="2" d="M108.5,-108C108.5,-108 69.5,-108 69.5,-108 63.5,-108 57.5,-102 57.5,-96 57.5,-96 57.5,-84 57.5,-84 57.5,-78 63.5,-72 69.5,-72 69.5,-72 108.5,-72 108.5,-72 114.5,-72 120.5,-78 120.5,-84 120.5,-84 120.5,-96 120.5,-96 120.5,-102 114.5,-108 108.5,-108"/>
<text text-anchor="middle" x="89" y="-87.5" font-family="sans" font-size="10.00" fill="#000000">bayescan</text>
</g>
<!-- 6&#45;&gt;2 -->
<g id="edge6" class="edge">
<title>6&#45;&gt;2</title>
<path fill="none" stroke="#c0c0c0" stroke-width="2" d="M97.832,-71.8314C101.6986,-63.8771 106.3206,-54.369 110.5968,-45.5723"/>
<polygon fill="#c0c0c0" stroke="#c0c0c0" stroke-width="2" points="113.8249,-46.9371 115.0491,-36.4133 107.5293,-43.8768 113.8249,-46.9371"/>
</g>
<!-- 7 -->
<g id="node7" class="node">
<title>7</title>
<path fill="none" stroke="#d8a456" stroke-width="2" d="M216.5,-1116C216.5,-1116 151.5,-1116 151.5,-1116 145.5,-1116 139.5,-1110 139.5,-1104 139.5,-1104 139.5,-1092 139.5,-1092 139.5,-1086 145.5,-1080 151.5,-1080 151.5,-1080 216.5,-1080 216.5,-1080 222.5,-1080 228.5,-1086 228.5,-1092 228.5,-1092 228.5,-1104 228.5,-1104 228.5,-1110 222.5,-1116 216.5,-1116"/>
<text text-anchor="middle" x="184" y="-1095.5" font-family="sans" font-size="10.00" fill="#000000">index_genome</text>
</g>
<!-- 7&#45;&gt;2 -->
<g id="edge4" class="edge">
<title>7&#45;&gt;2</title>
<path fill="none" stroke="#c0c0c0" stroke-width="2" d="M139.4587,-1084.8666C85.0034,-1065.7407 0,-1024.5816 0,-954 0,-954 0,-954 0,-162 0,-109.466 47.975,-66.5723 84.2433,-41.6514"/>
<polygon fill="#c0c0c0" stroke="#c0c0c0" stroke-width="2" points="86.3296,-44.4671 92.7096,-36.0086 82.4473,-38.6423 86.3296,-44.4671"/>
</g>
<!-- 8 -->
<g id="node8" class="node">
<title>8</title>
<path fill="none" stroke="#56b1d8" stroke-width="2" d="M370.5,-612C370.5,-612 287.5,-612 287.5,-612 281.5,-612 275.5,-606 275.5,-600 275.5,-600 275.5,-588 275.5,-588 275.5,-582 281.5,-576 287.5,-576 287.5,-576 370.5,-576 370.5,-576 376.5,-576 382.5,-582 382.5,-588 382.5,-588 382.5,-600 382.5,-600 382.5,-606 376.5,-612 370.5,-612"/>
<text text-anchor="middle" x="329" y="-591.5" font-family="sans" font-size="10.00" fill="#000000">generate_whitelist</text>
</g>
<!-- 7&#45;&gt;8 -->
<g id="edge20" class="edge">
<title>7&#45;&gt;8</title>
<path fill="none" stroke="#c0c0c0" stroke-width="2" d="M184,-1079.8146C184,-1052.4983 184,-999.25 184,-954 184,-954 184,-954 184,-738 184,-682.1889 238.7525,-640.5941 280.9673,-616.8184"/>
<polygon fill="#c0c0c0" stroke="#c0c0c0" stroke-width="2" points="282.6615,-619.8812 289.7609,-612.0167 279.3067,-613.7374 282.6615,-619.8812"/>
</g>
<!-- 21 -->
<g id="node21" class="node">
<title>21</title>
<path fill="none" stroke="#5673d8" stroke-width="2" d="M294,-1044C294,-1044 224,-1044 224,-1044 218,-1044 212,-1038 212,-1032 212,-1032 212,-1020 212,-1020 212,-1014 218,-1008 224,-1008 224,-1008 294,-1008 294,-1008 300,-1008 306,-1014 306,-1020 306,-1020 306,-1032 306,-1032 306,-1038 300,-1044 294,-1044"/>
<text text-anchor="middle" x="259" y="-1023.5" font-family="sans" font-size="10.00" fill="#000000">add_vcf_header</text>
</g>
<!-- 7&#45;&gt;21 -->
<g id="edge41" class="edge">
<title>7&#45;&gt;21</title>
<path fill="none" stroke="#c0c0c0" stroke-width="2" d="M202.9257,-1079.8314C211.9857,-1071.1337 222.9809,-1060.5783 232.8265,-1051.1265"/>
<polygon fill="#c0c0c0" stroke="#c0c0c0" stroke-width="2" points="235.2904,-1053.613 240.0804,-1044.1628 230.4426,-1048.5633 235.2904,-1053.613"/>
</g>
<!-- 8&#45;&gt;3 -->
<g id="edge7" class="edge">
<title>8&#45;&gt;3</title>
<path fill="none" stroke="#c0c0c0" stroke-width="2" d="M382.8159,-576.9C436.1698,-556.183 510,-515.6538 510,-450 510,-450 510,-450 510,-162 510,-116.5253 479.7689,-71.5023 457.1916,-44.2188"/>
<polygon fill="#c0c0c0" stroke="#c0c0c0" stroke-width="2" points="459.6246,-41.6778 450.4725,-36.3402 454.2984,-46.2201 459.6246,-41.6778"/>
</g>
<!-- 8&#45;&gt;4 -->
<g id="edge13" class="edge">
<title>8&#45;&gt;4</title>
<path fill="none" stroke="#c0c0c0" stroke-width="2" d="M368.5948,-575.8102C382.7476,-567.1243 397.1302,-555.2457 405,-540 416.2129,-518.2777 397.1049,-439.2759 393,-432 386.6327,-420.714 376.9617,-410.6921 367.0947,-402.4394"/>
<polygon fill="#c0c0c0" stroke="#c0c0c0" stroke-width="2" points="369.2177,-399.6562 359.199,-396.2098 364.8818,-405.1517 369.2177,-399.6562"/>
</g>
<!-- 13 -->
<g id="node13" class="node">
<title>13</title>
<path fill="none" stroke="#c6d856" stroke-width="2" d="M383.5,-540C383.5,-540 268.5,-540 268.5,-540 262.5,-540 256.5,-534 256.5,-528 256.5,-528 256.5,-516 256.5,-516 256.5,-510 262.5,-504 268.5,-504 268.5,-504 383.5,-504 383.5,-504 389.5,-504 395.5,-510 395.5,-516 395.5,-516 395.5,-528 395.5,-528 395.5,-534 389.5,-540 383.5,-540"/>
<text text-anchor="middle" x="326" y="-519.5" font-family="sans" font-size="10.00" fill="#000000">generate_rlpara_popmap</text>
</g>
<!-- 8&#45;&gt;13 -->
<g id="edge26" class="edge">
<title>8&#45;&gt;13</title>
<path fill="none" stroke="#c0c0c0" stroke-width="2" d="M328.243,-575.8314C327.9221,-568.131 327.5406,-558.9743 327.184,-550.4166"/>
<polygon fill="#c0c0c0" stroke="#c0c0c0" stroke-width="2" points="330.6806,-550.2589 326.7672,-540.4133 323.6867,-550.5503 330.6806,-550.2589"/>
</g>
<!-- 8&#45;&gt;18 -->
<g id="edge34" class="edge">
<title>8&#45;&gt;18</title>
<path fill="none" stroke="#c0c0c0" stroke-width="2" d="M367.6979,-575.8383C410.0479,-552.9684 472,-509.3673 472,-450 472,-450 472,-450 472,-306 472,-259.5145 439.1317,-214.51 414.7624,-187.5311"/>
<polygon fill="#c0c0c0" stroke="#c0c0c0" stroke-width="2" points="417.2082,-185.0215 407.834,-180.0844 412.0833,-189.7898 417.2082,-185.0215"/>
</g>
<!-- 20 -->
<g id="node20" class="node">
<title>20</title>
<path fill="none" stroke="#d85656" stroke-width="2" d="M186.5,-396C186.5,-396 143.5,-396 143.5,-396 137.5,-396 131.5,-390 131.5,-384 131.5,-384 131.5,-372 131.5,-372 131.5,-366 137.5,-360 143.5,-360 143.5,-360 186.5,-360 186.5,-360 192.5,-360 198.5,-366 198.5,-372 198.5,-372 198.5,-384 198.5,-384 198.5,-390 192.5,-396 186.5,-396"/>
<text text-anchor="middle" x="165" y="-375.5" font-family="sans" font-size="10.00" fill="#000000">write_spid</text>
</g>
<!-- 8&#45;&gt;20 -->
<g id="edge39" class="edge">
<title>8&#45;&gt;20</title>
<path fill="none" stroke="#c0c0c0" stroke-width="2" d="M295.0117,-575.8953C279.4917,-566.5462 261.5868,-554.1337 248,-540 210.1275,-500.603 185.5476,-440.5098 173.5834,-405.6584"/>
<polygon fill="#c0c0c0" stroke="#c0c0c0" stroke-width="2" points="176.8875,-404.5026 170.4085,-396.1197 170.2457,-406.7133 176.8875,-404.5026"/>
</g>
<!-- 9 -->
<g id="node9" class="node">
<title>9</title>
<path fill="none" stroke="#d88556" stroke-width="2" d="M424.5,-108C424.5,-108 365.5,-108 365.5,-108 359.5,-108 353.5,-102 353.5,-96 353.5,-96 353.5,-84 353.5,-84 353.5,-78 359.5,-72 365.5,-72 365.5,-72 424.5,-72 424.5,-72 430.5,-72 436.5,-78 436.5,-84 436.5,-84 436.5,-96 436.5,-96 436.5,-102 430.5,-108 424.5,-108"/>
<text text-anchor="middle" x="395" y="-87.5" font-family="sans" font-size="10.00" fill="#000000">get_best_proj</text>
</g>
<!-- 9&#45;&gt;3 -->
<g id="edge9" class="edge">
<title>9&#45;&gt;3</title>
<path fill="none" stroke="#c0c0c0" stroke-width="2" d="M404.589,-71.8314C408.8317,-63.7925 413.9121,-54.1666 418.596,-45.2918"/>
<polygon fill="#c0c0c0" stroke="#c0c0c0" stroke-width="2" points="421.7096,-46.8908 423.2819,-36.4133 415.5189,-43.6235 421.7096,-46.8908"/>
</g>
<!-- 10 -->
<g id="node10" class="node">
<title>10</title>
<path fill="none" stroke="#56d8c9" stroke-width="2" d="M278.5,-900C278.5,-900 239.5,-900 239.5,-900 233.5,-900 227.5,-894 227.5,-888 227.5,-888 227.5,-876 227.5,-876 227.5,-870 233.5,-864 239.5,-864 239.5,-864 278.5,-864 278.5,-864 284.5,-864 290.5,-870 290.5,-876 290.5,-876 290.5,-888 290.5,-888 290.5,-894 284.5,-900 278.5,-900"/>
<text text-anchor="middle" x="259" y="-879.5" font-family="sans" font-size="10.00" fill="#000000">bgzip_vcf</text>
</g>
<!-- 10&#45;&gt;4 -->
<g id="edge14" class="edge">
<title>10&#45;&gt;4</title>
<path fill="none" stroke="#c0c0c0" stroke-width="2" d="M251.1533,-863.746C240.2922,-836.7781 222,-784.4617 222,-738 222,-738 222,-738 222,-522 222,-481.0242 218.207,-465.3602 242,-432 250.8796,-419.55 263.6139,-409.4008 276.6476,-401.4017"/>
<polygon fill="#c0c0c0" stroke="#c0c0c0" stroke-width="2" points="278.7542,-404.2276 285.675,-396.2055 275.2622,-398.1608 278.7542,-404.2276"/>
</g>
<!-- 11 -->
<g id="node11" class="node">
<title>11</title>
<path fill="none" stroke="#88d856" stroke-width="2" d="M340,-828C340,-828 300,-828 300,-828 294,-828 288,-822 288,-816 288,-816 288,-804 288,-804 288,-798 294,-792 300,-792 300,-792 340,-792 340,-792 346,-792 352,-798 352,-804 352,-804 352,-816 352,-816 352,-822 346,-828 340,-828"/>
<text text-anchor="middle" x="320" y="-807.5" font-family="sans" font-size="10.00" fill="#000000">index_vcf</text>
</g>
<!-- 10&#45;&gt;11 -->
<g id="edge24" class="edge">
<title>10&#45;&gt;11</title>
<path fill="none" stroke="#c0c0c0" stroke-width="2" d="M274.3929,-863.8314C281.4904,-855.454 290.048,-845.3531 297.824,-836.1749"/>
<polygon fill="#c0c0c0" stroke="#c0c0c0" stroke-width="2" points="300.6061,-838.3056 304.3999,-828.4133 295.2652,-833.7807 300.6061,-838.3056"/>
</g>
<!-- 16 -->
<g id="node16" class="node">
<title>16</title>
<path fill="none" stroke="#56d8b9" stroke-width="2" d="M339.5,-756C339.5,-756 298.5,-756 298.5,-756 292.5,-756 286.5,-750 286.5,-744 286.5,-744 286.5,-732 286.5,-732 286.5,-726 292.5,-720 298.5,-720 298.5,-720 339.5,-720 339.5,-720 345.5,-720 351.5,-726 351.5,-732 351.5,-732 351.5,-744 351.5,-744 351.5,-750 345.5,-756 339.5,-756"/>
<text text-anchor="middle" x="319" y="-735.5" font-family="sans" font-size="10.00" fill="#000000">locusfilter</text>
</g>
<!-- 10&#45;&gt;16 -->
<g id="edge31" class="edge">
<title>10&#45;&gt;16</title>
<path fill="none" stroke="#c0c0c0" stroke-width="2" d="M260.7986,-863.7023C263.1493,-844.9971 268.3016,-815.4442 279,-792 283.4318,-782.2882 289.8056,-772.6203 296.167,-764.2056"/>
<polygon fill="#c0c0c0" stroke="#c0c0c0" stroke-width="2" points="298.9971,-766.2692 302.4518,-756.2534 293.5052,-761.9288 298.9971,-766.2692"/>
</g>
<!-- 11&#45;&gt;4 -->
<g id="edge15" class="edge">
<title>11&#45;&gt;4</title>
<path fill="none" stroke="#c0c0c0" stroke-width="2" d="M352.1833,-805.0094C415.0316,-793.241 548,-757.5274 548,-666 548,-666 548,-666 548,-522 548,-450.0575 464.3191,-411.9853 400.6484,-393.4295"/>
<polygon fill="#c0c0c0" stroke="#c0c0c0" stroke-width="2" points="401.5889,-390.0583 391.015,-390.7241 399.6963,-396.7976 401.5889,-390.0583"/>
</g>
<!-- 11&#45;&gt;16 -->
<g id="edge32" class="edge">
<title>11&#45;&gt;16</title>
<path fill="none" stroke="#c0c0c0" stroke-width="2" d="M319.7477,-791.8314C319.6407,-784.131 319.5135,-774.9743 319.3947,-766.4166"/>
<polygon fill="#c0c0c0" stroke="#c0c0c0" stroke-width="2" points="322.8944,-766.3637 319.2557,-756.4133 315.8951,-766.4609 322.8944,-766.3637"/>
</g>
<!-- 12&#45;&gt;5 -->
<g id="edge17" class="edge">
<title>12&#45;&gt;5</title>
<path fill="none" stroke="#c0c0c0" stroke-width="2" d="M263.9063,-287.8314C259.4403,-279.7925 254.0925,-270.1666 249.1621,-261.2918"/>
<polygon fill="#c0c0c0" stroke="#c0c0c0" stroke-width="2" points="252.1456,-259.4551 244.2296,-252.4133 246.0265,-262.8546 252.1456,-259.4551"/>
</g>
<!-- 13&#45;&gt;4 -->
<g id="edge11" class="edge">
<title>13&#45;&gt;4</title>
<path fill="none" stroke="#c0c0c0" stroke-width="2" d="M349.8491,-503.928C360.2942,-494.5042 371.426,-482.02 377,-468 382.9112,-453.132 382.6079,-446.985 377,-432 373.1046,-421.5911 366.1959,-411.8652 358.8544,-403.6152"/>
<polygon fill="#c0c0c0" stroke="#c0c0c0" stroke-width="2" points="361.2014,-401.0048 351.7672,-396.1835 356.1357,-405.8358 361.2014,-401.0048"/>
</g>
<!-- 15 -->
<g id="node15" class="node">
<title>15</title>
<path fill="none" stroke="#56d89a" stroke-width="2" d="M355.5,-468C355.5,-468 262.5,-468 262.5,-468 256.5,-468 250.5,-462 250.5,-456 250.5,-456 250.5,-444 250.5,-444 250.5,-438 256.5,-432 262.5,-432 262.5,-432 355.5,-432 355.5,-432 361.5,-432 367.5,-438 367.5,-444 367.5,-444 367.5,-456 367.5,-456 367.5,-462 361.5,-468 355.5,-468"/>
<text text-anchor="middle" x="309" y="-447.5" font-family="sans" font-size="10.00" fill="#000000">generate_rl_popmap</text>
</g>
<!-- 13&#45;&gt;15 -->
<g id="edge30" class="edge">
<title>13&#45;&gt;15</title>
<path fill="none" stroke="#c0c0c0" stroke-width="2" d="M321.7102,-503.8314C319.892,-496.131 317.7301,-486.9743 315.7095,-478.4166"/>
<polygon fill="#c0c0c0" stroke="#c0c0c0" stroke-width="2" points="319.0519,-477.3414 313.3476,-468.4133 312.2392,-478.95 319.0519,-477.3414"/>
</g>
<!-- 13&#45;&gt;20 -->
<g id="edge40" class="edge">
<title>13&#45;&gt;20</title>
<path fill="none" stroke="#c0c0c0" stroke-width="2" d="M292.9363,-503.8077C276.7921,-494.1821 257.5482,-481.5603 242,-468 220.0943,-448.8951 198.904,-423.4492 184.3174,-404.4893"/>
<polygon fill="#c0c0c0" stroke="#c0c0c0" stroke-width="2" points="186.9286,-402.1398 178.1014,-396.2805 181.348,-406.3656 186.9286,-402.1398"/>
</g>
<!-- 14&#45;&gt;6 -->
<g id="edge18" class="edge">
<title>14&#45;&gt;6</title>
<path fill="none" stroke="#c0c0c0" stroke-width="2" d="M81.5234,-143.8314C82.5929,-136.131 83.8647,-126.9743 85.0532,-118.4166"/>
<polygon fill="#c0c0c0" stroke="#c0c0c0" stroke-width="2" points="88.5336,-118.7997 86.4426,-108.4133 81.6001,-117.8367 88.5336,-118.7997"/>
</g>
<!-- 15&#45;&gt;4 -->
<g id="edge12" class="edge">
<title>15&#45;&gt;4</title>
<path fill="none" stroke="#c0c0c0" stroke-width="2" d="M314.2992,-431.8314C316.5698,-424.0463 319.2746,-414.7729 321.794,-406.1347"/>
<polygon fill="#c0c0c0" stroke="#c0c0c0" stroke-width="2" points="325.1894,-406.9933 324.6295,-396.4133 318.4694,-405.0332 325.1894,-406.9933"/>
</g>
<!-- 15&#45;&gt;20 -->
<g id="edge38" class="edge">
<title>15&#45;&gt;20</title>
<path fill="none" stroke="#c0c0c0" stroke-width="2" d="M272.6627,-431.8314C253.0101,-422.005 228.615,-409.8075 208.0181,-399.509"/>
<polygon fill="#c0c0c0" stroke="#c0c0c0" stroke-width="2" points="209.3621,-396.268 198.8526,-394.9263 206.2316,-402.529 209.3621,-396.268"/>
</g>
<!-- 16&#45;&gt;8 -->
<g id="edge19" class="edge">
<title>16&#45;&gt;8</title>
<path fill="none" stroke="#c0c0c0" stroke-width="2" d="M343.5801,-719.7772C354.1482,-710.4022 365.3543,-698.0021 371,-684 376.9832,-669.1608 376.1926,-663.134 371,-648 367.531,-637.8894 361.3101,-628.2137 354.701,-619.9166"/>
<polygon fill="#c0c0c0" stroke="#c0c0c0" stroke-width="2" points="357.2008,-617.4539 348.05,-612.1141 351.8735,-621.9949 357.2008,-617.4539"/>
</g>
<!-- 17 -->
<g id="node17" class="node">
<title>17</title>
<path fill="none" stroke="#56d0d8" stroke-width="2" d="M350,-684C350,-684 284,-684 284,-684 278,-684 272,-678 272,-672 272,-672 272,-660 272,-660 272,-654 278,-648 284,-648 284,-648 350,-648 350,-648 356,-648 362,-654 362,-660 362,-660 362,-672 362,-672 362,-678 356,-684 350,-684"/>
<text text-anchor="middle" x="317" y="-663.5" font-family="sans" font-size="10.00" fill="#000000">stats_postfilter</text>
</g>
<!-- 16&#45;&gt;17 -->
<g id="edge33" class="edge">
<title>16&#45;&gt;17</title>
<path fill="none" stroke="#c0c0c0" stroke-width="2" d="M318.4953,-719.8314C318.2814,-712.131 318.0271,-702.9743 317.7894,-694.4166"/>
<polygon fill="#c0c0c0" stroke="#c0c0c0" stroke-width="2" points="321.2879,-694.3122 317.5115,-684.4133 314.2906,-694.5066 321.2879,-694.3122"/>
</g>
<!-- 17&#45;&gt;8 -->
<g id="edge21" class="edge">
<title>17&#45;&gt;8</title>
<path fill="none" stroke="#c0c0c0" stroke-width="2" d="M320.0281,-647.8314C321.3115,-640.131 322.8376,-630.9743 324.2639,-622.4166"/>
<polygon fill="#c0c0c0" stroke="#c0c0c0" stroke-width="2" points="327.7394,-622.8526 325.9311,-612.4133 320.8347,-621.7018 327.7394,-622.8526"/>
</g>
<!-- 18&#45;&gt;9 -->
<g id="edge22" class="edge">
<title>18&#45;&gt;9</title>
<path fill="none" stroke="#c0c0c0" stroke-width="2" d="M390.5141,-143.8314C391.1558,-136.131 391.9188,-126.9743 392.6319,-118.4166"/>
<polygon fill="#c0c0c0" stroke="#c0c0c0" stroke-width="2" points="396.1229,-118.6694 393.4656,-108.4133 389.1471,-118.088 396.1229,-118.6694"/>
</g>
<!-- 19 -->
<g id="node19" class="node">
<title>19</title>
<path fill="none" stroke="#d89556" stroke-width="2" d="M275,-972C275,-972 243,-972 243,-972 237,-972 231,-966 231,-960 231,-960 231,-948 231,-948 231,-942 237,-936 243,-936 243,-936 275,-936 275,-936 281,-936 287,-942 287,-948 287,-948 287,-960 287,-960 287,-966 281,-972 275,-972"/>
<text text-anchor="middle" x="259" y="-951.5" font-family="sans" font-size="10.00" fill="#000000">sort_vcf</text>
</g>
<!-- 19&#45;&gt;10 -->
<g id="edge23" class="edge">
<title>19&#45;&gt;10</title>
<path fill="none" stroke="#c0c0c0" stroke-width="2" d="M259,-935.8314C259,-928.131 259,-918.9743 259,-910.4166"/>
<polygon fill="#c0c0c0" stroke="#c0c0c0" stroke-width="2" points="262.5001,-910.4132 259,-900.4133 255.5001,-910.4133 262.5001,-910.4132"/>
</g>
<!-- 20&#45;&gt;14 -->
<g id="edge27" class="edge">
<title>20&#45;&gt;14</title>
<path fill="none" stroke="#c0c0c0" stroke-width="2" d="M137.4586,-359.7826C125.5967,-350.4892 112.7062,-338.1545 105,-324 81.8943,-281.5601 77.994,-224.2297 77.9919,-190.3794"/>
<polygon fill="#c0c0c0" stroke="#c0c0c0" stroke-width="2" points="81.4929,-190.3026 78.1088,-180.2628 74.4934,-190.2216 81.4929,-190.3026"/>
</g>
<!-- 21&#45;&gt;19 -->
<g id="edge37" class="edge">
<title>21&#45;&gt;19</title>
<path fill="none" stroke="#c0c0c0" stroke-width="2" d="M259,-1007.8314C259,-1000.131 259,-990.9743 259,-982.4166"/>
<polygon fill="#c0c0c0" stroke="#c0c0c0" stroke-width="2" points="262.5001,-982.4132 259,-972.4133 255.5001,-982.4133 262.5001,-982.4132"/>
</g>
</g>
</svg>
