<?xml version="1.0" encoding="UTF-8" standalone="no"?>
<!DOCTYPE svg PUBLIC "-//W3C//DTD SVG 1.1//EN"
 "http://www.w3.org/Graphics/SVG/1.1/DTD/svg11.dtd">
<!-- Generated by graphviz version 2.40.1 (20161225.0304)
 -->
<!-- Title: snakemake_dag Pages: 1 -->
<svg width="343pt" height="764pt"
 viewBox="0.00 0.00 342.50 764.00" xmlns="http://www.w3.org/2000/svg" xmlns:xlink="http://www.w3.org/1999/xlink">
<g id="graph0" class="graph" transform="scale(1 1) rotate(0) translate(4 760)">
<title>snakemake_dag</title>
<polygon fill="#ffffff" stroke="transparent" points="-4,4 -4,-760 338.5,-760 338.5,4 -4,4"/>
<!-- 0 -->
<g id="node1" class="node">
<title>0</title>
<path fill="none" stroke="#d6d856" stroke-width="2" d="M167.5,-36C167.5,-36 137.5,-36 137.5,-36 131.5,-36 125.5,-30 125.5,-24 125.5,-24 125.5,-12 125.5,-12 125.5,-6 131.5,0 137.5,0 137.5,0 167.5,0 167.5,0 173.5,0 179.5,-6 179.5,-12 179.5,-12 179.5,-24 179.5,-24 179.5,-30 173.5,-36 167.5,-36"/>
<text text-anchor="middle" x="152.5" y="-15.5" font-family="sans" font-size="10.00" fill="#000000">target</text>
</g>
<!-- 1 -->
<g id="node2" class="node">
<title>1</title>
<path fill="none" stroke="#56a9d8" stroke-width="2" d="M68.5,-108C68.5,-108 38.5,-108 38.5,-108 32.5,-108 26.5,-102 26.5,-96 26.5,-96 26.5,-84 26.5,-84 26.5,-78 32.5,-72 38.5,-72 38.5,-72 68.5,-72 68.5,-72 74.5,-72 80.5,-78 80.5,-84 80.5,-84 80.5,-96 80.5,-96 80.5,-102 74.5,-108 68.5,-108"/>
<text text-anchor="middle" x="53.5" y="-87.5" font-family="sans" font-size="10.00" fill="#000000">dapc</text>
</g>
<!-- 1&#45;&gt;0 -->
<g id="edge1" class="edge">
<title>1&#45;&gt;0</title>
<path fill="none" stroke="#c0c0c0" stroke-width="2" d="M78.4819,-71.8314C90.7928,-62.8779 105.8107,-51.9558 119.0937,-42.2955"/>
<polygon fill="#c0c0c0" stroke="#c0c0c0" stroke-width="2" points="121.4973,-44.8752 127.5261,-36.1628 117.3801,-39.214 121.4973,-44.8752"/>
</g>
<!-- 2 -->
<g id="node3" class="node">
<title>2</title>
<path fill="none" stroke="#56a9d8" stroke-width="2" d="M250.5,-108C250.5,-108 220.5,-108 220.5,-108 214.5,-108 208.5,-102 208.5,-96 208.5,-96 208.5,-84 208.5,-84 208.5,-78 214.5,-72 220.5,-72 220.5,-72 250.5,-72 250.5,-72 256.5,-72 262.5,-78 262.5,-84 262.5,-84 262.5,-96 262.5,-96 262.5,-102 256.5,-108 250.5,-108"/>
<text text-anchor="middle" x="235.5" y="-87.5" font-family="sans" font-size="10.00" fill="#000000">dapc</text>
</g>
<!-- 2&#45;&gt;0 -->
<g id="edge2" class="edge">
<title>2&#45;&gt;0</title>
<path fill="none" stroke="#c0c0c0" stroke-width="2" d="M214.5556,-71.8314C204.4309,-63.0485 192.1223,-52.3712 181.1452,-42.8489"/>
<polygon fill="#c0c0c0" stroke="#c0c0c0" stroke-width="2" points="183.2851,-40.0718 173.4377,-36.1628 178.6981,-45.3595 183.2851,-40.0718"/>
</g>
<!-- 3 -->
<g id="node4" class="node">
<title>3</title>
<path fill="none" stroke="#56d8a9" stroke-width="2" d="M78.5,-180C78.5,-180 28.5,-180 28.5,-180 22.5,-180 16.5,-174 16.5,-168 16.5,-168 16.5,-156 16.5,-156 16.5,-150 22.5,-144 28.5,-144 28.5,-144 78.5,-144 78.5,-144 84.5,-144 90.5,-150 90.5,-156 90.5,-156 90.5,-168 90.5,-168 90.5,-174 84.5,-180 78.5,-180"/>
<text text-anchor="middle" x="53.5" y="-159.5" font-family="sans" font-size="10.00" fill="#000000">populations</text>
</g>
<!-- 3&#45;&gt;0 -->
<g id="edge3" class="edge">
<title>3&#45;&gt;0</title>
<path fill="none" stroke="#c0c0c0" stroke-width="2" d="M36.6102,-143.9901C20.9214,-124.9904 2.1216,-94.7144 17.5,-72 39.1784,-39.9802 83.2501,-26.9453 115.154,-21.6398"/>
<polygon fill="#c0c0c0" stroke="#c0c0c0" stroke-width="2" points="116.0748,-25.042 125.4572,-20.1207 115.0536,-18.1169 116.0748,-25.042"/>
</g>
<!-- 3&#45;&gt;1 -->
<g id="edge7" class="edge">
<title>3&#45;&gt;1</title>
<path fill="none" stroke="#c0c0c0" stroke-width="2" d="M53.5,-143.8314C53.5,-136.131 53.5,-126.9743 53.5,-118.4166"/>
<polygon fill="#c0c0c0" stroke="#c0c0c0" stroke-width="2" points="57.0001,-118.4132 53.5,-108.4133 50.0001,-118.4133 57.0001,-118.4132"/>
</g>
<!-- 5 -->
<g id="node6" class="node">
<title>5</title>
<path fill="none" stroke="#d85656" stroke-width="2" d="M140.5,-108C140.5,-108 110.5,-108 110.5,-108 104.5,-108 98.5,-102 98.5,-96 98.5,-96 98.5,-84 98.5,-84 98.5,-78 104.5,-72 110.5,-72 110.5,-72 140.5,-72 140.5,-72 146.5,-72 152.5,-78 152.5,-84 152.5,-84 152.5,-96 152.5,-96 152.5,-102 146.5,-108 140.5,-108"/>
<text text-anchor="middle" x="125.5" y="-87.5" font-family="sans" font-size="10.00" fill="#000000">plot_fst</text>
</g>
<!-- 3&#45;&gt;5 -->
<g id="edge11" class="edge">
<title>3&#45;&gt;5</title>
<path fill="none" stroke="#c0c0c0" stroke-width="2" d="M71.6686,-143.8314C80.2152,-135.2848 90.5557,-124.9443 99.8802,-115.6198"/>
<polygon fill="#c0c0c0" stroke="#c0c0c0" stroke-width="2" points="102.4905,-117.9592 107.0867,-108.4133 97.5408,-113.0095 102.4905,-117.9592"/>
</g>
<!-- 4 -->
<g id="node5" class="node">
<title>4</title>
<path fill="none" stroke="#56d8a9" stroke-width="2" d="M260.5,-180C260.5,-180 210.5,-180 210.5,-180 204.5,-180 198.5,-174 198.5,-168 198.5,-168 198.5,-156 198.5,-156 198.5,-150 204.5,-144 210.5,-144 210.5,-144 260.5,-144 260.5,-144 266.5,-144 272.5,-150 272.5,-156 272.5,-156 272.5,-168 272.5,-168 272.5,-174 266.5,-180 260.5,-180"/>
<text text-anchor="middle" x="235.5" y="-159.5" font-family="sans" font-size="10.00" fill="#000000">populations</text>
</g>
<!-- 4&#45;&gt;0 -->
<g id="edge4" class="edge">
<title>4&#45;&gt;0</title>
<path fill="none" stroke="#c0c0c0" stroke-width="2" d="M222.6743,-143.8176C215.5677,-133.488 206.7337,-120.2158 199.5,-108 187.3749,-87.5239 174.9677,-63.6154 165.9478,-45.5889"/>
<polygon fill="#c0c0c0" stroke="#c0c0c0" stroke-width="2" points="168.8884,-43.6409 161.3085,-36.2385 162.6178,-46.7521 168.8884,-43.6409"/>
</g>
<!-- 4&#45;&gt;2 -->
<g id="edge8" class="edge">
<title>4&#45;&gt;2</title>
<path fill="none" stroke="#c0c0c0" stroke-width="2" d="M235.5,-143.8314C235.5,-136.131 235.5,-126.9743 235.5,-118.4166"/>
<polygon fill="#c0c0c0" stroke="#c0c0c0" stroke-width="2" points="239.0001,-118.4132 235.5,-108.4133 232.0001,-118.4133 239.0001,-118.4132"/>
</g>
<!-- 6 -->
<g id="node7" class="node">
<title>6</title>
<path fill="none" stroke="#d85656" stroke-width="2" d="M322.5,-108C322.5,-108 292.5,-108 292.5,-108 286.5,-108 280.5,-102 280.5,-96 280.5,-96 280.5,-84 280.5,-84 280.5,-78 286.5,-72 292.5,-72 292.5,-72 322.5,-72 322.5,-72 328.5,-72 334.5,-78 334.5,-84 334.5,-84 334.5,-96 334.5,-96 334.5,-102 328.5,-108 322.5,-108"/>
<text text-anchor="middle" x="307.5" y="-87.5" font-family="sans" font-size="10.00" fill="#000000">plot_fst</text>
</g>
<!-- 4&#45;&gt;6 -->
<g id="edge12" class="edge">
<title>4&#45;&gt;6</title>
<path fill="none" stroke="#c0c0c0" stroke-width="2" d="M253.6686,-143.8314C262.2152,-135.2848 272.5557,-124.9443 281.8802,-115.6198"/>
<polygon fill="#c0c0c0" stroke="#c0c0c0" stroke-width="2" points="284.4905,-117.9592 289.0867,-108.4133 279.5408,-113.0095 284.4905,-117.9592"/>
</g>
<!-- 5&#45;&gt;0 -->
<g id="edge5" class="edge">
<title>5&#45;&gt;0</title>
<path fill="none" stroke="#c0c0c0" stroke-width="2" d="M132.3132,-71.8314C135.2644,-63.9617 138.7858,-54.5712 142.055,-45.8533"/>
<polygon fill="#c0c0c0" stroke="#c0c0c0" stroke-width="2" points="145.3609,-47.0055 145.595,-36.4133 138.8066,-44.5476 145.3609,-47.0055"/>
</g>
<!-- 6&#45;&gt;0 -->
<g id="edge6" class="edge">
<title>6&#45;&gt;0</title>
<path fill="none" stroke="#c0c0c0" stroke-width="2" d="M280.4268,-76.3268C277.4227,-74.8504 274.4016,-73.3831 271.5,-72 243.9606,-58.8724 212.5183,-44.6364 188.8722,-34.0786"/>
<polygon fill="#c0c0c0" stroke="#c0c0c0" stroke-width="2" points="190.132,-30.8083 179.573,-29.9368 187.2838,-37.2027 190.132,-30.8083"/>
</g>
<!-- 7 -->
<g id="node8" class="node">
<title>7</title>
<path fill="none" stroke="#d8ac56" stroke-width="2" d="M95,-252C95,-252 12,-252 12,-252 6,-252 0,-246 0,-240 0,-240 0,-228 0,-228 0,-222 6,-216 12,-216 12,-216 95,-216 95,-216 101,-216 107,-222 107,-228 107,-228 107,-240 107,-240 107,-246 101,-252 95,-252"/>
<text text-anchor="middle" x="53.5" y="-231.5" font-family="sans" font-size="10.00" fill="#000000">generate_whitelist</text>
</g>
<!-- 7&#45;&gt;3 -->
<g id="edge9" class="edge">
<title>7&#45;&gt;3</title>
<path fill="none" stroke="#c0c0c0" stroke-width="2" d="M53.5,-215.8314C53.5,-208.131 53.5,-198.9743 53.5,-190.4166"/>
<polygon fill="#c0c0c0" stroke="#c0c0c0" stroke-width="2" points="57.0001,-190.4132 53.5,-180.4133 50.0001,-190.4133 57.0001,-190.4132"/>
</g>
<!-- 8 -->
<g id="node9" class="node">
<title>8</title>
<path fill="none" stroke="#d8ac56" stroke-width="2" d="M277,-252C277,-252 194,-252 194,-252 188,-252 182,-246 182,-240 182,-240 182,-228 182,-228 182,-222 188,-216 194,-216 194,-216 277,-216 277,-216 283,-216 289,-222 289,-228 289,-228 289,-240 289,-240 289,-246 283,-252 277,-252"/>
<text text-anchor="middle" x="235.5" y="-231.5" font-family="sans" font-size="10.00" fill="#000000">generate_whitelist</text>
</g>
<!-- 8&#45;&gt;4 -->
<g id="edge10" class="edge">
<title>8&#45;&gt;4</title>
<path fill="none" stroke="#c0c0c0" stroke-width="2" d="M235.5,-215.8314C235.5,-208.131 235.5,-198.9743 235.5,-190.4166"/>
<polygon fill="#c0c0c0" stroke="#c0c0c0" stroke-width="2" points="239.0001,-190.4132 235.5,-180.4133 232.0001,-190.4133 239.0001,-190.4132"/>
</g>
<!-- 9 -->
<g id="node10" class="node">
<title>9</title>
<path fill="none" stroke="#afd856" stroke-width="2" d="M91.5,-396C91.5,-396 17.5,-396 17.5,-396 11.5,-396 5.5,-390 5.5,-384 5.5,-384 5.5,-372 5.5,-372 5.5,-366 11.5,-360 17.5,-360 17.5,-360 91.5,-360 91.5,-360 97.5,-360 103.5,-366 103.5,-372 103.5,-372 103.5,-384 103.5,-384 103.5,-390 97.5,-396 91.5,-396"/>
<text text-anchor="middle" x="54.5" y="-381" font-family="sans" font-size="10.00" fill="#000000">locusfilter</text>
<text text-anchor="middle" x="54.5" y="-370" font-family="sans" font-size="10.00" fill="#000000">mapped: denovo</text>
</g>
<!-- 9&#45;&gt;7 -->
<g id="edge13" class="edge">
<title>9&#45;&gt;7</title>
<path fill="none" stroke="#c0c0c0" stroke-width="2" d="M46.8321,-359.8756C42.8861,-349.5642 38.4945,-336.2907 36.5,-324 33.9371,-308.2066 34.0695,-303.8143 36.5,-288 37.8374,-279.2979 40.3204,-270.074 42.9834,-261.759"/>
<polygon fill="#c0c0c0" stroke="#c0c0c0" stroke-width="2" points="46.3406,-262.7579 46.2561,-252.1634 39.7154,-260.4982 46.3406,-262.7579"/>
</g>
<!-- 10 -->
<g id="node11" class="node">
<title>10</title>
<path fill="none" stroke="#d88556" stroke-width="2" d="M123.5,-324C123.5,-324 57.5,-324 57.5,-324 51.5,-324 45.5,-318 45.5,-312 45.5,-312 45.5,-300 45.5,-300 45.5,-294 51.5,-288 57.5,-288 57.5,-288 123.5,-288 123.5,-288 129.5,-288 135.5,-294 135.5,-300 135.5,-300 135.5,-312 135.5,-312 135.5,-318 129.5,-324 123.5,-324"/>
<text text-anchor="middle" x="90.5" y="-309" font-family="sans" font-size="10.00" fill="#000000">stats_postfilter</text>
<text text-anchor="middle" x="90.5" y="-298" font-family="sans" font-size="10.00" fill="#000000">ext: imiss</text>
</g>
<!-- 9&#45;&gt;10 -->
<g id="edge17" class="edge">
<title>9&#45;&gt;10</title>
<path fill="none" stroke="#c0c0c0" stroke-width="2" d="M63.5843,-359.8314C67.5615,-351.8771 72.3155,-342.369 76.7139,-333.5723"/>
<polygon fill="#c0c0c0" stroke="#c0c0c0" stroke-width="2" points="79.9517,-334.9228 81.2934,-324.4133 73.6907,-331.7923 79.9517,-334.9228"/>
</g>
<!-- 10&#45;&gt;7 -->
<g id="edge14" class="edge">
<title>10&#45;&gt;7</title>
<path fill="none" stroke="#c0c0c0" stroke-width="2" d="M81.1633,-287.8314C77.0757,-279.8771 72.1896,-270.369 67.6691,-261.5723"/>
<polygon fill="#c0c0c0" stroke="#c0c0c0" stroke-width="2" points="70.6461,-259.7078 62.9624,-252.4133 64.4201,-262.9074 70.6461,-259.7078"/>
</g>
<!-- 11 -->
<g id="node12" class="node">
<title>11</title>
<path fill="none" stroke="#afd856" stroke-width="2" d="M256,-396C256,-396 215,-396 215,-396 209,-396 203,-390 203,-384 203,-384 203,-372 203,-372 203,-366 209,-360 215,-360 215,-360 256,-360 256,-360 262,-360 268,-366 268,-372 268,-372 268,-384 268,-384 268,-390 262,-396 256,-396"/>
<text text-anchor="middle" x="235.5" y="-375.5" font-family="sans" font-size="10.00" fill="#000000">locusfilter</text>
</g>
<!-- 11&#45;&gt;8 -->
<g id="edge15" class="edge">
<title>11&#45;&gt;8</title>
<path fill="none" stroke="#c0c0c0" stroke-width="2" d="M228.2561,-359.8366C224.5288,-349.513 220.3812,-336.2403 218.5,-324 216.0695,-308.1857 216.0695,-303.8143 218.5,-288 219.8374,-279.2979 222.3204,-270.074 224.9834,-261.759"/>
<polygon fill="#c0c0c0" stroke="#c0c0c0" stroke-width="2" points="228.3406,-262.7579 228.2561,-252.1634 221.7154,-260.4982 228.3406,-262.7579"/>
</g>
<!-- 12 -->
<g id="node13" class="node">
<title>12</title>
<path fill="none" stroke="#d88556" stroke-width="2" d="M305.5,-324C305.5,-324 239.5,-324 239.5,-324 233.5,-324 227.5,-318 227.5,-312 227.5,-312 227.5,-300 227.5,-300 227.5,-294 233.5,-288 239.5,-288 239.5,-288 305.5,-288 305.5,-288 311.5,-288 317.5,-294 317.5,-300 317.5,-300 317.5,-312 317.5,-312 317.5,-318 311.5,-324 305.5,-324"/>
<text text-anchor="middle" x="272.5" y="-309" font-family="sans" font-size="10.00" fill="#000000">stats_postfilter</text>
<text text-anchor="middle" x="272.5" y="-298" font-family="sans" font-size="10.00" fill="#000000">ext: imiss</text>
</g>
<!-- 11&#45;&gt;12 -->
<g id="edge20" class="edge">
<title>11&#45;&gt;12</title>
<path fill="none" stroke="#c0c0c0" stroke-width="2" d="M244.8367,-359.8314C248.9243,-351.8771 253.8104,-342.369 258.3309,-333.5723"/>
<polygon fill="#c0c0c0" stroke="#c0c0c0" stroke-width="2" points="261.5799,-334.9074 263.0376,-324.4133 255.3539,-331.7078 261.5799,-334.9074"/>
</g>
<!-- 12&#45;&gt;8 -->
<g id="edge16" class="edge">
<title>12&#45;&gt;8</title>
<path fill="none" stroke="#c0c0c0" stroke-width="2" d="M263.1633,-287.8314C259.0757,-279.8771 254.1896,-270.369 249.6691,-261.5723"/>
<polygon fill="#c0c0c0" stroke="#c0c0c0" stroke-width="2" points="252.6461,-259.7078 244.9624,-252.4133 246.4201,-262.9074 252.6461,-259.7078"/>
</g>
<!-- 13 -->
<g id="node14" class="node">
<title>13</title>
<path fill="none" stroke="#80d856" stroke-width="2" d="M255,-540C255,-540 216,-540 216,-540 210,-540 204,-534 204,-528 204,-528 204,-516 204,-516 204,-510 210,-504 216,-504 216,-504 255,-504 255,-504 261,-504 267,-510 267,-516 267,-516 267,-528 267,-528 267,-534 261,-540 255,-540"/>
<text text-anchor="middle" x="235.5" y="-519.5" font-family="sans" font-size="10.00" fill="#000000">bgzip_vcf</text>
</g>
<!-- 13&#45;&gt;11 -->
<g id="edge18" class="edge">
<title>13&#45;&gt;11</title>
<path fill="none" stroke="#c0c0c0" stroke-width="2" d="M230.8066,-503.6463C228.3929,-493.2631 225.7092,-479.9943 224.5,-468 222.8951,-452.0807 222.8951,-447.9193 224.5,-432 225.3502,-423.5665 226.9294,-414.5029 228.6311,-406.2554"/>
<polygon fill="#c0c0c0" stroke="#c0c0c0" stroke-width="2" points="232.0791,-406.8719 230.8066,-396.3537 225.2422,-405.3697 232.0791,-406.8719"/>
</g>
<!-- 14 -->
<g id="node15" class="node">
<title>14</title>
<path fill="none" stroke="#56d882" stroke-width="2" d="M285.5,-468C285.5,-468 245.5,-468 245.5,-468 239.5,-468 233.5,-462 233.5,-456 233.5,-456 233.5,-444 233.5,-444 233.5,-438 239.5,-432 245.5,-432 245.5,-432 285.5,-432 285.5,-432 291.5,-432 297.5,-438 297.5,-444 297.5,-444 297.5,-456 297.5,-456 297.5,-462 291.5,-468 285.5,-468"/>
<text text-anchor="middle" x="265.5" y="-447.5" font-family="sans" font-size="10.00" fill="#000000">index_vcf</text>
</g>
<!-- 13&#45;&gt;14 -->
<g id="edge22" class="edge">
<title>13&#45;&gt;14</title>
<path fill="none" stroke="#c0c0c0" stroke-width="2" d="M243.0703,-503.8314C246.3493,-495.9617 250.262,-486.5712 253.8945,-477.8533"/>
<polygon fill="#c0c0c0" stroke="#c0c0c0" stroke-width="2" points="257.2124,-478.9902 257.8278,-468.4133 250.7508,-476.2979 257.2124,-478.9902"/>
</g>
<!-- 14&#45;&gt;11 -->
<g id="edge19" class="edge">
<title>14&#45;&gt;11</title>
<path fill="none" stroke="#c0c0c0" stroke-width="2" d="M257.9297,-431.8314C254.6507,-423.9617 250.738,-414.5712 247.1055,-405.8533"/>
<polygon fill="#c0c0c0" stroke="#c0c0c0" stroke-width="2" points="250.2492,-404.2979 243.1722,-396.4133 243.7876,-406.9902 250.2492,-404.2979"/>
</g>
<!-- 15 -->
<g id="node16" class="node">
<title>15</title>
<path fill="none" stroke="#56d8d8" stroke-width="2" d="M251.5,-612C251.5,-612 219.5,-612 219.5,-612 213.5,-612 207.5,-606 207.5,-600 207.5,-600 207.5,-588 207.5,-588 207.5,-582 213.5,-576 219.5,-576 219.5,-576 251.5,-576 251.5,-576 257.5,-576 263.5,-582 263.5,-588 263.5,-588 263.5,-600 263.5,-600 263.5,-606 257.5,-612 251.5,-612"/>
<text text-anchor="middle" x="235.5" y="-591.5" font-family="sans" font-size="10.00" fill="#000000">sort_vcf</text>
</g>
<!-- 15&#45;&gt;13 -->
<g id="edge21" class="edge">
<title>15&#45;&gt;13</title>
<path fill="none" stroke="#c0c0c0" stroke-width="2" d="M235.5,-575.8314C235.5,-568.131 235.5,-558.9743 235.5,-550.4166"/>
<polygon fill="#c0c0c0" stroke="#c0c0c0" stroke-width="2" points="239.0001,-550.4132 235.5,-540.4133 232.0001,-550.4133 239.0001,-550.4132"/>
</g>
<!-- 16 -->
<g id="node17" class="node">
<title>16</title>
<path fill="none" stroke="#5682d8" stroke-width="2" d="M274.5,-684C274.5,-684 196.5,-684 196.5,-684 190.5,-684 184.5,-678 184.5,-672 184.5,-672 184.5,-660 184.5,-660 184.5,-654 190.5,-648 196.5,-648 196.5,-648 274.5,-648 274.5,-648 280.5,-648 286.5,-654 286.5,-660 286.5,-660 286.5,-672 286.5,-672 286.5,-678 280.5,-684 274.5,-684"/>
<text text-anchor="middle" x="235.5" y="-669" font-family="sans" font-size="10.00" fill="#000000">add_vcf_header</text>
<text text-anchor="middle" x="235.5" y="-658" font-family="sans" font-size="10.00" fill="#000000">mapped: mapped</text>
</g>
<!-- 16&#45;&gt;15 -->
<g id="edge23" class="edge">
<title>16&#45;&gt;15</title>
<path fill="none" stroke="#c0c0c0" stroke-width="2" d="M235.5,-647.8314C235.5,-640.131 235.5,-630.9743 235.5,-622.4166"/>
<polygon fill="#c0c0c0" stroke="#c0c0c0" stroke-width="2" points="239.0001,-622.4132 235.5,-612.4133 232.0001,-622.4133 239.0001,-622.4132"/>
</g>
<!-- 17 -->
<g id="node18" class="node">
<title>17</title>
<path fill="none" stroke="#59d856" stroke-width="2" d="M268,-756C268,-756 203,-756 203,-756 197,-756 191,-750 191,-744 191,-744 191,-732 191,-732 191,-726 197,-720 203,-720 203,-720 268,-720 268,-720 274,-720 280,-726 280,-732 280,-732 280,-744 280,-744 280,-750 274,-756 268,-756"/>
<text text-anchor="middle" x="235.5" y="-735.5" font-family="sans" font-size="10.00" fill="#000000">index_genome</text>
</g>
<!-- 17&#45;&gt;16 -->
<g id="edge24" class="edge">
<title>17&#45;&gt;16</title>
<path fill="none" stroke="#c0c0c0" stroke-width="2" d="M235.5,-719.8314C235.5,-712.131 235.5,-702.9743 235.5,-694.4166"/>
<polygon fill="#c0c0c0" stroke="#c0c0c0" stroke-width="2" points="239.0001,-694.4132 235.5,-684.4133 232.0001,-694.4133 239.0001,-694.4132"/>
</g>
</g>
</svg>
