<?xml version="1.0" encoding="UTF-8" standalone="no"?>
<!DOCTYPE svg PUBLIC "-//W3C//DTD SVG 1.1//EN"
 "http://www.w3.org/Graphics/SVG/1.1/DTD/svg11.dtd">
<!-- Generated by graphviz version 2.40.1 (20161225.0304)
 -->
<!-- Title: snakemake_dag Pages: 1 -->
<svg width="199pt" height="332pt"
 viewBox="0.00 0.00 199.21 332.00" xmlns="http://www.w3.org/2000/svg" xmlns:xlink="http://www.w3.org/1999/xlink">
<g id="graph0" class="graph" transform="scale(1 1) rotate(0) translate(4 328)">
<title>snakemake_dag</title>
<polygon fill="#ffffff" stroke="transparent" points="-4,4 -4,-328 195.2079,-328 195.2079,4 -4,4"/>
<!-- 0 -->
<g id="node1" class="node">
<title>0</title>
<path fill="none" stroke="#d89556" stroke-width="2" d="M55.7079,-36C55.7079,-36 25.7079,-36 25.7079,-36 19.7079,-36 13.7079,-30 13.7079,-24 13.7079,-24 13.7079,-12 13.7079,-12 13.7079,-6 19.7079,0 25.7079,0 25.7079,0 55.7079,0 55.7079,0 61.7079,0 67.7079,-6 67.7079,-12 67.7079,-12 67.7079,-24 67.7079,-24 67.7079,-30 61.7079,-36 55.7079,-36"/>
<text text-anchor="middle" x="40.7079" y="-15.5" font-family="sans" font-size="10.00" fill="#000000">target</text>
</g>
<!-- 1 -->
<g id="node2" class="node">
<title>1</title>
<path fill="none" stroke="#97d856" stroke-width="2" d="M126.7079,-252C126.7079,-252 54.7079,-252 54.7079,-252 48.7079,-252 42.7079,-246 42.7079,-240 42.7079,-240 42.7079,-228 42.7079,-228 42.7079,-222 48.7079,-216 54.7079,-216 54.7079,-216 126.7079,-216 126.7079,-216 132.7079,-216 138.7079,-222 138.7079,-228 138.7079,-228 138.7079,-240 138.7079,-240 138.7079,-246 132.7079,-252 126.7079,-252"/>
<text text-anchor="middle" x="90.7079" y="-231.5" font-family="sans" font-size="10.00" fill="#000000">process_radtags</text>
</g>
<!-- 1&#45;&gt;0 -->
<g id="edge2" class="edge">
<title>1&#45;&gt;0</title>
<path fill="none" stroke="#c0c0c0" stroke-width="2" d="M48.2399,-215.7705C33.6235,-207.1861 18.8869,-195.3886 10.7079,-180 -12.262,-136.7822 8.8767,-78.9636 25.4218,-45.3701"/>
<polygon fill="#c0c0c0" stroke="#c0c0c0" stroke-width="2" points="28.6923,-46.6628 30.1403,-36.1673 22.4633,-43.469 28.6923,-46.6628"/>
</g>
<!-- 4 -->
<g id="node5" class="node">
<title>4</title>
<path fill="none" stroke="#569ad8" stroke-width="2" d="M149.2079,-180C149.2079,-180 32.2079,-180 32.2079,-180 26.2079,-180 20.2079,-174 20.2079,-168 20.2079,-168 20.2079,-156 20.2079,-156 20.2079,-150 26.2079,-144 32.2079,-144 32.2079,-144 149.2079,-144 149.2079,-144 155.2079,-144 161.2079,-150 161.2079,-156 161.2079,-156 161.2079,-168 161.2079,-168 161.2079,-174 155.2079,-180 149.2079,-180"/>
<text text-anchor="middle" x="90.7079" y="-159.5" font-family="sans" font-size="10.00" fill="#000000">combine_individual_stats</text>
</g>
<!-- 1&#45;&gt;4 -->
<g id="edge6" class="edge">
<title>1&#45;&gt;4</title>
<path fill="none" stroke="#c0c0c0" stroke-width="2" d="M90.7079,-215.8314C90.7079,-208.131 90.7079,-198.9743 90.7079,-190.4166"/>
<polygon fill="#c0c0c0" stroke="#c0c0c0" stroke-width="2" points="94.208,-190.4132 90.7079,-180.4133 87.208,-190.4133 94.208,-190.4132"/>
</g>
<!-- 2 -->
<g id="node3" class="node">
<title>2</title>
<path fill="none" stroke="#59d856" stroke-width="2" d="M121.7079,-108C121.7079,-108 59.7079,-108 59.7079,-108 53.7079,-108 47.7079,-102 47.7079,-96 47.7079,-96 47.7079,-84 47.7079,-84 47.7079,-78 53.7079,-72 59.7079,-72 59.7079,-72 121.7079,-72 121.7079,-72 127.7079,-72 133.7079,-78 133.7079,-84 133.7079,-84 133.7079,-96 133.7079,-96 133.7079,-102 127.7079,-108 121.7079,-108"/>
<text text-anchor="middle" x="90.7079" y="-87.5" font-family="sans" font-size="10.00" fill="#000000">filter_samples</text>
</g>
<!-- 2&#45;&gt;0 -->
<g id="edge1" class="edge">
<title>2&#45;&gt;0</title>
<path fill="none" stroke="#c0c0c0" stroke-width="2" d="M78.0908,-71.8314C72.3907,-63.6232 65.5416,-53.7606 59.272,-44.7323"/>
<polygon fill="#c0c0c0" stroke="#c0c0c0" stroke-width="2" points="62.0737,-42.6306 53.4949,-36.4133 56.3241,-46.6234 62.0737,-42.6306"/>
</g>
<!-- 3 -->
<g id="node4" class="node">
<title>3</title>
<path fill="none" stroke="#56d8d8" stroke-width="2" d="M179.2079,-324C179.2079,-324 100.2079,-324 100.2079,-324 94.2079,-324 88.2079,-318 88.2079,-312 88.2079,-312 88.2079,-300 88.2079,-300 88.2079,-294 94.2079,-288 100.2079,-288 100.2079,-288 179.2079,-288 179.2079,-288 185.2079,-288 191.2079,-294 191.2079,-300 191.2079,-300 191.2079,-312 191.2079,-312 191.2079,-318 185.2079,-324 179.2079,-324"/>
<text text-anchor="middle" x="139.7079" y="-303.5" font-family="sans" font-size="10.00" fill="#000000">write_config_files</text>
</g>
<!-- 3&#45;&gt;1 -->
<g id="edge3" class="edge">
<title>3&#45;&gt;1</title>
<path fill="none" stroke="#c0c0c0" stroke-width="2" d="M127.3432,-287.8314C121.7571,-279.6232 115.045,-269.7606 108.9007,-260.7323"/>
<polygon fill="#c0c0c0" stroke="#c0c0c0" stroke-width="2" points="111.759,-258.7112 103.2392,-252.4133 105.972,-262.6496 111.759,-258.7112"/>
</g>
<!-- 3&#45;&gt;2 -->
<g id="edge4" class="edge">
<title>3&#45;&gt;2</title>
<path fill="none" stroke="#c0c0c0" stroke-width="2" d="M150.2461,-287.8482C166.8623,-256.6326 194.8064,-191.5575 169.7079,-144 163.1564,-131.5859 152.3239,-121.4839 140.7499,-113.5202"/>
<polygon fill="#c0c0c0" stroke="#c0c0c0" stroke-width="2" points="142.5558,-110.5207 132.2419,-108.0968 138.7931,-116.4235 142.5558,-110.5207"/>
</g>
<!-- 4&#45;&gt;2 -->
<g id="edge5" class="edge">
<title>4&#45;&gt;2</title>
<path fill="none" stroke="#c0c0c0" stroke-width="2" d="M90.7079,-143.8314C90.7079,-136.131 90.7079,-126.9743 90.7079,-118.4166"/>
<polygon fill="#c0c0c0" stroke="#c0c0c0" stroke-width="2" points="94.208,-118.4132 90.7079,-108.4133 87.208,-118.4133 94.208,-118.4132"/>
</g>
</g>
</svg>
