<?xml version="1.0" encoding="UTF-8" standalone="no"?>
<!DOCTYPE svg PUBLIC "-//W3C//DTD SVG 1.1//EN"
 "http://www.w3.org/Graphics/SVG/1.1/DTD/svg11.dtd">
<!-- Generated by graphviz version 2.40.1 (20161225.0304)
 -->
<!-- Title: snakemake_dag Pages: 1 -->
<svg width="180pt" height="260pt"
 viewBox="0.00 0.00 180.00 260.00" xmlns="http://www.w3.org/2000/svg" xmlns:xlink="http://www.w3.org/1999/xlink">
<g id="graph0" class="graph" transform="scale(1 1) rotate(0) translate(4 256)">
<title>snakemake_dag</title>
<polygon fill="#ffffff" stroke="transparent" points="-4,4 -4,-256 176,-256 176,4 -4,4"/>
<!-- 1 -->
<g id="node1" class="node">
<title>1</title>
<path fill="none" stroke="#56d8d8" stroke-width="2" d="M118.5,-180C118.5,-180 46.5,-180 46.5,-180 40.5,-180 34.5,-174 34.5,-168 34.5,-168 34.5,-156 34.5,-156 34.5,-150 40.5,-144 46.5,-144 46.5,-144 118.5,-144 118.5,-144 124.5,-144 130.5,-150 130.5,-156 130.5,-156 130.5,-168 130.5,-168 130.5,-174 124.5,-180 118.5,-180"/>
<text text-anchor="middle" x="82.5" y="-159.5" font-family="sans" font-size="10.00" fill="#000000">process_radtags</text>
</g>
<!-- 4 -->
<g id="node4" class="node">
<title>4</title>
<path fill="none" stroke="#56d89a" stroke-width="2" d="M129,-108C129,-108 12,-108 12,-108 6,-108 0,-102 0,-96 0,-96 0,-84 0,-84 0,-78 6,-72 12,-72 12,-72 129,-72 129,-72 135,-72 141,-78 141,-84 141,-84 141,-96 141,-96 141,-102 135,-108 129,-108"/>
<text text-anchor="middle" x="70.5" y="-87.5" font-family="sans" font-size="10.00" fill="#000000">combine_individual_stats</text>
</g>
<!-- 1&#45;&gt;4 -->
<g id="edge4" class="edge">
<title>1&#45;&gt;4</title>
<path fill="none" stroke="#c0c0c0" stroke-width="2" d="M79.4719,-143.8314C78.1885,-136.131 76.6624,-126.9743 75.2361,-118.4166"/>
<polygon fill="#c0c0c0" stroke="#c0c0c0" stroke-width="2" points="78.6653,-117.7018 73.5689,-108.4133 71.7606,-118.8526 78.6653,-117.7018"/>
</g>
<!-- 2 -->
<g id="node2" class="node">
<title>2</title>
<path fill="none" stroke="#d6d856" stroke-width="2" d="M150.5,-36C150.5,-36 88.5,-36 88.5,-36 82.5,-36 76.5,-30 76.5,-24 76.5,-24 76.5,-12 76.5,-12 76.5,-6 82.5,0 88.5,0 88.5,0 150.5,0 150.5,0 156.5,0 162.5,-6 162.5,-12 162.5,-12 162.5,-24 162.5,-24 162.5,-30 156.5,-36 150.5,-36"/>
<text text-anchor="middle" x="119.5" y="-15.5" font-family="sans" font-size="10.00" fill="#000000">filter_samples</text>
</g>
<!-- 3 -->
<g id="node3" class="node">
<title>3</title>
<path fill="none" stroke="#d85656" stroke-width="2" d="M160,-252C160,-252 81,-252 81,-252 75,-252 69,-246 69,-240 69,-240 69,-228 69,-228 69,-222 75,-216 81,-216 81,-216 160,-216 160,-216 166,-216 172,-222 172,-228 172,-228 172,-240 172,-240 172,-246 166,-252 160,-252"/>
<text text-anchor="middle" x="120.5" y="-231.5" font-family="sans" font-size="10.00" fill="#000000">write_config_files</text>
</g>
<!-- 3&#45;&gt;1 -->
<g id="edge1" class="edge">
<title>3&#45;&gt;1</title>
<path fill="none" stroke="#c0c0c0" stroke-width="2" d="M110.911,-215.8314C106.6683,-207.7925 101.5879,-198.1666 96.904,-189.2918"/>
<polygon fill="#c0c0c0" stroke="#c0c0c0" stroke-width="2" points="99.9811,-187.6235 92.2181,-180.4133 93.7904,-190.8908 99.9811,-187.6235"/>
</g>
<!-- 3&#45;&gt;2 -->
<g id="edge3" class="edge">
<title>3&#45;&gt;2</title>
<path fill="none" stroke="#c0c0c0" stroke-width="2" d="M128.8092,-215.826C141.4813,-185.6526 162.8307,-123.445 149.5,-72 147.1154,-62.7976 142.7854,-53.4938 138.1432,-45.2621"/>
<polygon fill="#c0c0c0" stroke="#c0c0c0" stroke-width="2" points="141.0146,-43.2459 132.8562,-36.4863 135.0187,-46.8582 141.0146,-43.2459"/>
</g>
<!-- 4&#45;&gt;2 -->
<g id="edge2" class="edge">
<title>4&#45;&gt;2</title>
<path fill="none" stroke="#c0c0c0" stroke-width="2" d="M82.8648,-71.8314C88.4509,-63.6232 95.163,-53.7606 101.3072,-44.7323"/>
<polygon fill="#c0c0c0" stroke="#c0c0c0" stroke-width="2" points="104.236,-46.6496 106.9687,-36.4133 98.449,-42.7112 104.236,-46.6496"/>
</g>
</g>
</svg>
