<?xml version="1.0" encoding="UTF-8" standalone="no"?>
<!DOCTYPE svg PUBLIC "-//W3C//DTD SVG 1.1//EN"
 "http://www.w3.org/Graphics/SVG/1.1/DTD/svg11.dtd">
<!-- Generated by graphviz version 2.40.1 (20161225.0304)
 -->
<!-- Title: snakemake_dag Pages: 1 -->
<svg width="268pt" height="404pt"
 viewBox="0.00 0.00 268.00 404.00" xmlns="http://www.w3.org/2000/svg" xmlns:xlink="http://www.w3.org/1999/xlink">
<g id="graph0" class="graph" transform="scale(1 1) rotate(0) translate(4 400)">
<title>snakemake_dag</title>
<polygon fill="#ffffff" stroke="transparent" points="-4,4 -4,-400 264,-400 264,4 -4,4"/>
<!-- 0 -->
<g id="node1" class="node">
<title>0</title>
<path fill="none" stroke="#59d856" stroke-width="2" d="M119.5,-36C119.5,-36 89.5,-36 89.5,-36 83.5,-36 77.5,-30 77.5,-24 77.5,-24 77.5,-12 77.5,-12 77.5,-6 83.5,0 89.5,0 89.5,0 119.5,0 119.5,0 125.5,0 131.5,-6 131.5,-12 131.5,-12 131.5,-24 131.5,-24 131.5,-30 125.5,-36 119.5,-36"/>
<text text-anchor="middle" x="104.5" y="-15.5" font-family="sans" font-size="10.00" fill="#000000">target</text>
</g>
<!-- 1 -->
<g id="node2" class="node">
<title>1</title>
<path fill="none" stroke="#d89556" stroke-width="2" d="M86.5,-108C86.5,-108 14.5,-108 14.5,-108 8.5,-108 2.5,-102 2.5,-96 2.5,-96 2.5,-84 2.5,-84 2.5,-78 8.5,-72 14.5,-72 14.5,-72 86.5,-72 86.5,-72 92.5,-72 98.5,-78 98.5,-84 98.5,-84 98.5,-96 98.5,-96 98.5,-102 92.5,-108 86.5,-108"/>
<text text-anchor="middle" x="50.5" y="-87.5" font-family="sans" font-size="10.00" fill="#000000">process_radtags</text>
</g>
<!-- 1&#45;&gt;0 -->
<g id="edge1" class="edge">
<title>1&#45;&gt;0</title>
<path fill="none" stroke="#c0c0c0" stroke-width="2" d="M64.1265,-71.8314C70.346,-63.5386 77.8322,-53.557 84.66,-44.4533"/>
<polygon fill="#c0c0c0" stroke="#c0c0c0" stroke-width="2" points="87.49,-46.5133 90.69,-36.4133 81.89,-42.3133 87.49,-46.5133"/>
</g>
<!-- 2 -->
<g id="node3" class="node">
<title>2</title>
<path fill="none" stroke="#569ad8" stroke-width="2" d="M190.5,-108C190.5,-108 128.5,-108 128.5,-108 122.5,-108 116.5,-102 116.5,-96 116.5,-96 116.5,-84 116.5,-84 116.5,-78 122.5,-72 128.5,-72 128.5,-72 190.5,-72 190.5,-72 196.5,-72 202.5,-78 202.5,-84 202.5,-84 202.5,-96 202.5,-96 202.5,-102 196.5,-108 190.5,-108"/>
<text text-anchor="middle" x="159.5" y="-87.5" font-family="sans" font-size="10.00" fill="#000000">filter_samples</text>
</g>
<!-- 2&#45;&gt;0 -->
<g id="edge2" class="edge">
<title>2&#45;&gt;0</title>
<path fill="none" stroke="#c0c0c0" stroke-width="2" d="M145.6212,-71.8314C139.2864,-63.5386 131.6616,-53.557 124.7074,-44.4533"/>
<polygon fill="#c0c0c0" stroke="#c0c0c0" stroke-width="2" points="127.4175,-42.2353 118.5657,-36.4133 121.8548,-46.4847 127.4175,-42.2353"/>
</g>
<!-- 3 -->
<g id="node4" class="node">
<title>3</title>
<path fill="none" stroke="#97d856" stroke-width="2" d="M89,-180C89,-180 12,-180 12,-180 6,-180 0,-174 0,-168 0,-168 0,-156 0,-156 0,-150 6,-144 12,-144 12,-144 89,-144 89,-144 95,-144 101,-150 101,-156 101,-156 101,-168 101,-168 101,-174 95,-180 89,-180"/>
<text text-anchor="middle" x="50.5" y="-159.5" font-family="sans" font-size="10.00" fill="#000000">write_config_files</text>
</g>
<!-- 3&#45;&gt;1 -->
<g id="edge3" class="edge">
<title>3&#45;&gt;1</title>
<path fill="none" stroke="#c0c0c0" stroke-width="2" d="M50.5,-143.8314C50.5,-136.131 50.5,-126.9743 50.5,-118.4166"/>
<polygon fill="#c0c0c0" stroke="#c0c0c0" stroke-width="2" points="54.0001,-118.4132 50.5,-108.4133 47.0001,-118.4133 54.0001,-118.4132"/>
</g>
<!-- 3&#45;&gt;2 -->
<g id="edge4" class="edge">
<title>3&#45;&gt;2</title>
<path fill="none" stroke="#c0c0c0" stroke-width="2" d="M78.0053,-143.8314C91.818,-134.7074 108.7256,-123.539 123.5529,-113.7449"/>
<polygon fill="#c0c0c0" stroke="#c0c0c0" stroke-width="2" points="125.5886,-116.5949 132.0035,-108.1628 121.7304,-110.7541 125.5886,-116.5949"/>
</g>
<!-- 4 -->
<g id="node5" class="node">
<title>4</title>
<path fill="none" stroke="#56d89a" stroke-width="2" d="M248,-180C248,-180 131,-180 131,-180 125,-180 119,-174 119,-168 119,-168 119,-156 119,-156 119,-150 125,-144 131,-144 131,-144 248,-144 248,-144 254,-144 260,-150 260,-156 260,-156 260,-168 260,-168 260,-174 254,-180 248,-180"/>
<text text-anchor="middle" x="189.5" y="-159.5" font-family="sans" font-size="10.00" fill="#000000">combine_individual_stats</text>
</g>
<!-- 4&#45;&gt;2 -->
<g id="edge5" class="edge">
<title>4&#45;&gt;2</title>
<path fill="none" stroke="#c0c0c0" stroke-width="2" d="M181.9297,-143.8314C178.6507,-135.9617 174.738,-126.5712 171.1055,-117.8533"/>
<polygon fill="#c0c0c0" stroke="#c0c0c0" stroke-width="2" points="174.2492,-116.2979 167.1722,-108.4133 167.7876,-118.9902 174.2492,-116.2979"/>
</g>
<!-- 5 -->
<g id="node6" class="node">
<title>5</title>
<path fill="none" stroke="#56d8d8" stroke-width="2" d="M215.5,-252C215.5,-252 163.5,-252 163.5,-252 157.5,-252 151.5,-246 151.5,-240 151.5,-240 151.5,-228 151.5,-228 151.5,-222 157.5,-216 163.5,-216 163.5,-216 215.5,-216 215.5,-216 221.5,-216 227.5,-222 227.5,-228 227.5,-228 227.5,-240 227.5,-240 227.5,-246 221.5,-252 215.5,-252"/>
<text text-anchor="middle" x="189.5" y="-231.5" font-family="sans" font-size="10.00" fill="#000000">count_reads</text>
</g>
<!-- 5&#45;&gt;4 -->
<g id="edge6" class="edge">
<title>5&#45;&gt;4</title>
<path fill="none" stroke="#c0c0c0" stroke-width="2" d="M189.5,-215.8314C189.5,-208.131 189.5,-198.9743 189.5,-190.4166"/>
<polygon fill="#c0c0c0" stroke="#c0c0c0" stroke-width="2" points="193.0001,-190.4132 189.5,-180.4133 186.0001,-190.4133 193.0001,-190.4132"/>
</g>
<!-- 6 -->
<g id="node7" class="node">
<title>6</title>
<path fill="none" stroke="#d6d856" stroke-width="2" d="M223,-324C223,-324 156,-324 156,-324 150,-324 144,-318 144,-312 144,-312 144,-300 144,-300 144,-294 150,-288 156,-288 156,-288 223,-288 223,-288 229,-288 235,-294 235,-300 235,-300 235,-312 235,-312 235,-318 229,-324 223,-324"/>
<text text-anchor="middle" x="189.5" y="-303.5" font-family="sans" font-size="10.00" fill="#000000">combine_reads</text>
</g>
<!-- 6&#45;&gt;5 -->
<g id="edge7" class="edge">
<title>6&#45;&gt;5</title>
<path fill="none" stroke="#c0c0c0" stroke-width="2" d="M189.5,-287.8314C189.5,-280.131 189.5,-270.9743 189.5,-262.4166"/>
<polygon fill="#c0c0c0" stroke="#c0c0c0" stroke-width="2" points="193.0001,-262.4132 189.5,-252.4133 186.0001,-262.4133 193.0001,-262.4132"/>
</g>
<!-- 7 -->
<g id="node8" class="node">
<title>7</title>
<path fill="none" stroke="#d85656" stroke-width="2" d="M220,-396C220,-396 159,-396 159,-396 153,-396 147,-390 147,-384 147,-384 147,-372 147,-372 147,-366 153,-360 159,-360 159,-360 220,-360 220,-360 226,-360 232,-366 232,-372 232,-372 232,-384 232,-384 232,-390 226,-396 220,-396"/>
<text text-anchor="middle" x="189.5" y="-375.5" font-family="sans" font-size="10.00" fill="#000000">trim_adaptors</text>
</g>
<!-- 7&#45;&gt;6 -->
<g id="edge8" class="edge">
<title>7&#45;&gt;6</title>
<path fill="none" stroke="#c0c0c0" stroke-width="2" d="M189.5,-359.8314C189.5,-352.131 189.5,-342.9743 189.5,-334.4166"/>
<polygon fill="#c0c0c0" stroke="#c0c0c0" stroke-width="2" points="193.0001,-334.4132 189.5,-324.4133 186.0001,-334.4133 193.0001,-334.4132"/>
</g>
</g>
</svg>
