<?xml version="1.0" encoding="UTF-8" standalone="no"?>
<!DOCTYPE svg PUBLIC "-//W3C//DTD SVG 1.1//EN"
 "http://www.w3.org/Graphics/SVG/1.1/DTD/svg11.dtd">
<!-- Generated by graphviz version 2.40.1 (20161225.0304)
 -->
<!-- Title: snakemake_dag Pages: 1 -->
<svg width="276pt" height="548pt"
 viewBox="0.00 0.00 276.25 548.00" xmlns="http://www.w3.org/2000/svg" xmlns:xlink="http://www.w3.org/1999/xlink">
<g id="graph0" class="graph" transform="scale(1 1) rotate(0) translate(4 544)">
<title>snakemake_dag</title>
<polygon fill="#ffffff" stroke="transparent" points="-4,4 -4,-544 272.2452,-544 272.2452,4 -4,4"/>
<!-- 0 -->
<g id="node1" class="node">
<title>0</title>
<path fill="none" stroke="#70d856" stroke-width="2" d="M134.7452,-36C134.7452,-36 104.7452,-36 104.7452,-36 98.7452,-36 92.7452,-30 92.7452,-24 92.7452,-24 92.7452,-12 92.7452,-12 92.7452,-6 98.7452,0 104.7452,0 104.7452,0 134.7452,0 134.7452,0 140.7452,0 146.7452,-6 146.7452,-12 146.7452,-12 146.7452,-24 146.7452,-24 146.7452,-30 140.7452,-36 134.7452,-36"/>
<text text-anchor="middle" x="119.7452" y="-15.5" font-family="sans" font-size="10.00" fill="#000000">target</text>
</g>
<!-- 1 -->
<g id="node2" class="node">
<title>1</title>
<path fill="none" stroke="#9fd856" stroke-width="2" d="M80.7452,-108C80.7452,-108 18.7452,-108 18.7452,-108 12.7452,-108 6.7452,-102 6.7452,-96 6.7452,-96 6.7452,-84 6.7452,-84 6.7452,-78 12.7452,-72 18.7452,-72 18.7452,-72 80.7452,-72 80.7452,-72 86.7452,-72 92.7452,-78 92.7452,-84 92.7452,-84 92.7452,-96 92.7452,-96 92.7452,-102 86.7452,-108 80.7452,-108"/>
<text text-anchor="middle" x="49.7452" y="-87.5" font-family="sans" font-size="10.00" fill="#000000">filter_samples</text>
</g>
<!-- 1&#45;&gt;0 -->
<g id="edge2" class="edge">
<title>1&#45;&gt;0</title>
<path fill="none" stroke="#c0c0c0" stroke-width="2" d="M67.4092,-71.8314C75.7184,-63.2848 85.7716,-52.9443 94.8371,-43.6198"/>
<polygon fill="#c0c0c0" stroke="#c0c0c0" stroke-width="2" points="97.3821,-46.023 101.8435,-36.4133 92.3632,-41.1435 97.3821,-46.023"/>
</g>
<!-- 2 -->
<g id="node3" class="node">
<title>2</title>
<path fill="none" stroke="#ced856" stroke-width="2" d="M256.2452,-108C256.2452,-108 123.2452,-108 123.2452,-108 117.2452,-108 111.2452,-102 111.2452,-96 111.2452,-96 111.2452,-84 111.2452,-84 111.2452,-78 117.2452,-72 123.2452,-72 123.2452,-72 256.2452,-72 256.2452,-72 262.2452,-72 268.2452,-78 268.2452,-84 268.2452,-84 268.2452,-96 268.2452,-96 268.2452,-102 262.2452,-108 256.2452,-108"/>
<text text-anchor="middle" x="189.7452" y="-87.5" font-family="sans" font-size="10.00" fill="#000000">enumerate_filtered_samples</text>
</g>
<!-- 2&#45;&gt;0 -->
<g id="edge1" class="edge">
<title>2&#45;&gt;0</title>
<path fill="none" stroke="#c0c0c0" stroke-width="2" d="M172.0813,-71.8314C163.7721,-63.2848 153.7189,-52.9443 144.6534,-43.6198"/>
<polygon fill="#c0c0c0" stroke="#c0c0c0" stroke-width="2" points="147.1273,-41.1435 137.647,-36.4133 142.1084,-46.023 147.1273,-41.1435"/>
</g>
<!-- 3 -->
<g id="node4" class="node">
<title>3</title>
<path fill="none" stroke="#56b1d8" stroke-width="2" d="M131.2452,-540C131.2452,-540 52.2452,-540 52.2452,-540 46.2452,-540 40.2452,-534 40.2452,-528 40.2452,-528 40.2452,-516 40.2452,-516 40.2452,-510 46.2452,-504 52.2452,-504 52.2452,-504 131.2452,-504 131.2452,-504 137.2452,-504 143.2452,-510 143.2452,-516 143.2452,-516 143.2452,-528 143.2452,-528 143.2452,-534 137.2452,-540 131.2452,-540"/>
<text text-anchor="middle" x="91.7452" y="-519.5" font-family="sans" font-size="10.00" fill="#000000">write_config_files</text>
</g>
<!-- 3&#45;&gt;1 -->
<g id="edge3" class="edge">
<title>3&#45;&gt;1</title>
<path fill="none" stroke="#c0c0c0" stroke-width="2" d="M57.9619,-503.9698C44.1119,-494.9355 29.1545,-482.7552 19.7452,-468 -2.2357,-433.5305 .7452,-418.8816 .7452,-378 .7452,-378 .7452,-378 .7452,-234 .7452,-191.531 20.0826,-145.5922 34.4618,-117.303"/>
<polygon fill="#c0c0c0" stroke="#c0c0c0" stroke-width="2" points="37.5767,-118.8993 39.113,-108.4164 31.3748,-115.6532 37.5767,-118.8993"/>
</g>
<!-- 8 -->
<g id="node9" class="node">
<title>8</title>
<path fill="none" stroke="#5682d8" stroke-width="2" d="M70.7452,-468C70.7452,-468 40.7452,-468 40.7452,-468 34.7452,-468 28.7452,-462 28.7452,-456 28.7452,-456 28.7452,-444 28.7452,-444 28.7452,-438 34.7452,-432 40.7452,-432 40.7452,-432 70.7452,-432 70.7452,-432 76.7452,-432 82.7452,-438 82.7452,-444 82.7452,-444 82.7452,-456 82.7452,-456 82.7452,-462 76.7452,-468 70.7452,-468"/>
<text text-anchor="middle" x="55.7452" y="-447.5" font-family="sans" font-size="10.00" fill="#000000">8</text>
</g>
<!-- 3&#45;&gt;8 -->
<g id="edge11" class="edge">
<title>3&#45;&gt;8</title>
<path fill="none" stroke="#c0c0c0" stroke-width="2" d="M82.6609,-503.8314C78.6838,-495.8771 73.9298,-486.369 69.5314,-477.5723"/>
<polygon fill="#c0c0c0" stroke="#c0c0c0" stroke-width="2" points="72.5546,-475.7923 64.9519,-468.4133 66.2936,-478.9228 72.5546,-475.7923"/>
</g>
<!-- 9 -->
<g id="node10" class="node">
<title>9</title>
<path fill="none" stroke="#d8b456" stroke-width="2" d="M142.7452,-468C142.7452,-468 112.7452,-468 112.7452,-468 106.7452,-468 100.7452,-462 100.7452,-456 100.7452,-456 100.7452,-444 100.7452,-444 100.7452,-438 106.7452,-432 112.7452,-432 112.7452,-432 142.7452,-432 142.7452,-432 148.7452,-432 154.7452,-438 154.7452,-444 154.7452,-444 154.7452,-456 154.7452,-456 154.7452,-462 148.7452,-468 142.7452,-468"/>
<text text-anchor="middle" x="127.7452" y="-447.5" font-family="sans" font-size="10.00" fill="#000000">9</text>
</g>
<!-- 3&#45;&gt;9 -->
<g id="edge12" class="edge">
<title>3&#45;&gt;9</title>
<path fill="none" stroke="#c0c0c0" stroke-width="2" d="M100.8296,-503.8314C104.8067,-495.8771 109.5607,-486.369 113.9591,-477.5723"/>
<polygon fill="#c0c0c0" stroke="#c0c0c0" stroke-width="2" points="117.1969,-478.9228 118.5386,-468.4133 110.9359,-475.7923 117.1969,-478.9228"/>
</g>
<!-- 10 -->
<g id="node11" class="node">
<title>10</title>
<path fill="none" stroke="#56d8c9" stroke-width="2" d="M214.7452,-468C214.7452,-468 184.7452,-468 184.7452,-468 178.7452,-468 172.7452,-462 172.7452,-456 172.7452,-456 172.7452,-444 172.7452,-444 172.7452,-438 178.7452,-432 184.7452,-432 184.7452,-432 214.7452,-432 214.7452,-432 220.7452,-432 226.7452,-438 226.7452,-444 226.7452,-444 226.7452,-456 226.7452,-456 226.7452,-462 220.7452,-468 214.7452,-468"/>
<text text-anchor="middle" x="199.7452" y="-447.5" font-family="sans" font-size="10.00" fill="#000000">10</text>
</g>
<!-- 3&#45;&gt;10 -->
<g id="edge13" class="edge">
<title>3&#45;&gt;10</title>
<path fill="none" stroke="#c0c0c0" stroke-width="2" d="M118.9982,-503.8314C132.6842,-494.7074 149.4367,-483.539 164.128,-473.7449"/>
<polygon fill="#c0c0c0" stroke="#c0c0c0" stroke-width="2" points="166.122,-476.6221 172.501,-468.1628 162.239,-470.7977 166.122,-476.6221"/>
</g>
<!-- 4 -->
<g id="node5" class="node">
<title>4</title>
<path fill="none" stroke="#d88556" stroke-width="2" d="M165.2452,-180C165.2452,-180 48.2452,-180 48.2452,-180 42.2452,-180 36.2452,-174 36.2452,-168 36.2452,-168 36.2452,-156 36.2452,-156 36.2452,-150 42.2452,-144 48.2452,-144 48.2452,-144 165.2452,-144 165.2452,-144 171.2452,-144 177.2452,-150 177.2452,-156 177.2452,-156 177.2452,-168 177.2452,-168 177.2452,-174 171.2452,-180 165.2452,-180"/>
<text text-anchor="middle" x="106.7452" y="-159.5" font-family="sans" font-size="10.00" fill="#000000">combine_individual_stats</text>
</g>
<!-- 4&#45;&gt;1 -->
<g id="edge4" class="edge">
<title>4&#45;&gt;1</title>
<path fill="none" stroke="#c0c0c0" stroke-width="2" d="M92.3617,-143.8314C85.7967,-135.5386 77.8946,-125.557 70.6875,-116.4533"/>
<polygon fill="#c0c0c0" stroke="#c0c0c0" stroke-width="2" points="73.2737,-114.0813 64.3224,-108.4133 67.7853,-118.4262 73.2737,-114.0813"/>
</g>
<!-- 5 -->
<g id="node6" class="node">
<title>5</title>
<path fill="none" stroke="#56d86b" stroke-width="2" d="M134.7452,-252C134.7452,-252 82.7452,-252 82.7452,-252 76.7452,-252 70.7452,-246 70.7452,-240 70.7452,-240 70.7452,-228 70.7452,-228 70.7452,-222 76.7452,-216 82.7452,-216 82.7452,-216 134.7452,-216 134.7452,-216 140.7452,-216 146.7452,-222 146.7452,-228 146.7452,-228 146.7452,-240 146.7452,-240 146.7452,-246 140.7452,-252 134.7452,-252"/>
<text text-anchor="middle" x="108.7452" y="-231.5" font-family="sans" font-size="10.00" fill="#000000">count_reads</text>
</g>
<!-- 5&#45;&gt;4 -->
<g id="edge5" class="edge">
<title>5&#45;&gt;4</title>
<path fill="none" stroke="#c0c0c0" stroke-width="2" d="M108.2406,-215.8314C108.0267,-208.131 107.7723,-198.9743 107.5346,-190.4166"/>
<polygon fill="#c0c0c0" stroke="#c0c0c0" stroke-width="2" points="111.0331,-190.3122 107.2567,-180.4133 104.0358,-190.5066 111.0331,-190.3122"/>
</g>
<!-- 6 -->
<g id="node7" class="node">
<title>6</title>
<path fill="none" stroke="#56d89a" stroke-width="2" d="M156.2452,-324C156.2452,-324 89.2452,-324 89.2452,-324 83.2452,-324 77.2452,-318 77.2452,-312 77.2452,-312 77.2452,-300 77.2452,-300 77.2452,-294 83.2452,-288 89.2452,-288 89.2452,-288 156.2452,-288 156.2452,-288 162.2452,-288 168.2452,-294 168.2452,-300 168.2452,-300 168.2452,-312 168.2452,-312 168.2452,-318 162.2452,-324 156.2452,-324"/>
<text text-anchor="middle" x="122.7452" y="-303.5" font-family="sans" font-size="10.00" fill="#000000">combine_reads</text>
</g>
<!-- 6&#45;&gt;5 -->
<g id="edge6" class="edge">
<title>6&#45;&gt;5</title>
<path fill="none" stroke="#c0c0c0" stroke-width="2" d="M119.2125,-287.8314C117.7152,-280.131 115.9347,-270.9743 114.2707,-262.4166"/>
<polygon fill="#c0c0c0" stroke="#c0c0c0" stroke-width="2" points="117.67,-261.5614 112.3256,-252.4133 110.7987,-262.8975 117.67,-261.5614"/>
</g>
<!-- 7 -->
<g id="node8" class="node">
<title>7</title>
<path fill="none" stroke="#d85656" stroke-width="2" d="M156.2452,-396C156.2452,-396 95.2452,-396 95.2452,-396 89.2452,-396 83.2452,-390 83.2452,-384 83.2452,-384 83.2452,-372 83.2452,-372 83.2452,-366 89.2452,-360 95.2452,-360 95.2452,-360 156.2452,-360 156.2452,-360 162.2452,-360 168.2452,-366 168.2452,-372 168.2452,-372 168.2452,-384 168.2452,-384 168.2452,-390 162.2452,-396 156.2452,-396"/>
<text text-anchor="middle" x="125.7452" y="-375.5" font-family="sans" font-size="10.00" fill="#000000">trim_adaptors</text>
</g>
<!-- 7&#45;&gt;6 -->
<g id="edge7" class="edge">
<title>7&#45;&gt;6</title>
<path fill="none" stroke="#c0c0c0" stroke-width="2" d="M124.9882,-359.8314C124.6674,-352.131 124.2858,-342.9743 123.9293,-334.4166"/>
<polygon fill="#c0c0c0" stroke="#c0c0c0" stroke-width="2" points="127.4258,-334.2589 123.5125,-324.4133 120.4319,-334.5503 127.4258,-334.2589"/>
</g>
<!-- 8&#45;&gt;7 -->
<g id="edge8" class="edge">
<title>8&#45;&gt;7</title>
<path fill="none" stroke="#c0c0c0" stroke-width="2" d="M73.4092,-431.8314C81.7184,-423.2848 91.7716,-412.9443 100.8371,-403.6198"/>
<polygon fill="#c0c0c0" stroke="#c0c0c0" stroke-width="2" points="103.3821,-406.023 107.8435,-396.4133 98.3632,-401.1435 103.3821,-406.023"/>
</g>
<!-- 9&#45;&gt;7 -->
<g id="edge10" class="edge">
<title>9&#45;&gt;7</title>
<path fill="none" stroke="#c0c0c0" stroke-width="2" d="M127.2406,-431.8314C127.0267,-424.131 126.7723,-414.9743 126.5346,-406.4166"/>
<polygon fill="#c0c0c0" stroke="#c0c0c0" stroke-width="2" points="130.0331,-406.3122 126.2567,-396.4133 123.0358,-406.5066 130.0331,-406.3122"/>
</g>
<!-- 10&#45;&gt;7 -->
<g id="edge9" class="edge">
<title>10&#45;&gt;7</title>
<path fill="none" stroke="#c0c0c0" stroke-width="2" d="M181.0719,-431.8314C172.2203,-423.219 161.4966,-412.7851 151.8558,-403.4048"/>
<polygon fill="#c0c0c0" stroke="#c0c0c0" stroke-width="2" points="154.0206,-400.6279 144.4126,-396.1628 149.1391,-405.645 154.0206,-400.6279"/>
</g>
</g>
</svg>
