<?xml version="1.0" encoding="UTF-8" standalone="no"?>
<!DOCTYPE svg PUBLIC "-//W3C//DTD SVG 1.1//EN"
 "http://www.w3.org/Graphics/SVG/1.1/DTD/svg11.dtd">
<!-- Generated by graphviz version 2.40.1 (20161225.0304)
 -->
<!-- Title: snakemake_dag Pages: 1 -->
<svg width="270pt" height="404pt"
 viewBox="0.00 0.00 270.00 404.00" xmlns="http://www.w3.org/2000/svg" xmlns:xlink="http://www.w3.org/1999/xlink">
<g id="graph0" class="graph" transform="scale(1 1) rotate(0) translate(4 400)">
<title>snakemake_dag</title>
<polygon fill="#ffffff" stroke="transparent" points="-4,4 -4,-400 266,-400 266,4 -4,4"/>
<!-- 0 -->
<g id="node1" class="node">
<title>0</title>
<path fill="none" stroke="#56d8d8" stroke-width="2" d="M120.5,-36C120.5,-36 90.5,-36 90.5,-36 84.5,-36 78.5,-30 78.5,-24 78.5,-24 78.5,-12 78.5,-12 78.5,-6 84.5,0 90.5,0 90.5,0 120.5,0 120.5,0 126.5,0 132.5,-6 132.5,-12 132.5,-12 132.5,-24 132.5,-24 132.5,-30 126.5,-36 120.5,-36"/>
<text text-anchor="middle" x="105.5" y="-15.5" font-family="sans" font-size="10.00" fill="#000000">target</text>
</g>
<!-- 1 -->
<g id="node2" class="node">
<title>1</title>
<path fill="none" stroke="#d89556" stroke-width="2" d="M87.5,-108C87.5,-108 15.5,-108 15.5,-108 9.5,-108 3.5,-102 3.5,-96 3.5,-96 3.5,-84 3.5,-84 3.5,-78 9.5,-72 15.5,-72 15.5,-72 87.5,-72 87.5,-72 93.5,-72 99.5,-78 99.5,-84 99.5,-84 99.5,-96 99.5,-96 99.5,-102 93.5,-108 87.5,-108"/>
<text text-anchor="middle" x="51.5" y="-87.5" font-family="sans" font-size="10.00" fill="#000000">process_radtags</text>
</g>
<!-- 1&#45;&gt;0 -->
<g id="edge2" class="edge">
<title>1&#45;&gt;0</title>
<path fill="none" stroke="#c0c0c0" stroke-width="2" d="M65.1265,-71.8314C71.346,-63.5386 78.8322,-53.557 85.66,-44.4533"/>
<polygon fill="#c0c0c0" stroke="#c0c0c0" stroke-width="2" points="88.49,-46.5133 91.69,-36.4133 82.89,-42.3133 88.49,-46.5133"/>
</g>
<!-- 2 -->
<g id="node3" class="node">
<title>2</title>
<path fill="none" stroke="#97d856" stroke-width="2" d="M191.5,-108C191.5,-108 129.5,-108 129.5,-108 123.5,-108 117.5,-102 117.5,-96 117.5,-96 117.5,-84 117.5,-84 117.5,-78 123.5,-72 129.5,-72 129.5,-72 191.5,-72 191.5,-72 197.5,-72 203.5,-78 203.5,-84 203.5,-84 203.5,-96 203.5,-96 203.5,-102 197.5,-108 191.5,-108"/>
<text text-anchor="middle" x="160.5" y="-87.5" font-family="sans" font-size="10.00" fill="#000000">filter_samples</text>
</g>
<!-- 2&#45;&gt;0 -->
<g id="edge1" class="edge">
<title>2&#45;&gt;0</title>
<path fill="none" stroke="#c0c0c0" stroke-width="2" d="M146.6212,-71.8314C140.2864,-63.5386 132.6616,-53.557 125.7074,-44.4533"/>
<polygon fill="#c0c0c0" stroke="#c0c0c0" stroke-width="2" points="128.4175,-42.2353 119.5657,-36.4133 122.8548,-46.4847 128.4175,-42.2353"/>
</g>
<!-- 3 -->
<g id="node4" class="node">
<title>3</title>
<path fill="none" stroke="#569ad8" stroke-width="2" d="M91,-180C91,-180 12,-180 12,-180 6,-180 0,-174 0,-168 0,-168 0,-156 0,-156 0,-150 6,-144 12,-144 12,-144 91,-144 91,-144 97,-144 103,-150 103,-156 103,-156 103,-168 103,-168 103,-174 97,-180 91,-180"/>
<text text-anchor="middle" x="51.5" y="-159.5" font-family="sans" font-size="10.00" fill="#000000">write_config_files</text>
</g>
<!-- 3&#45;&gt;1 -->
<g id="edge3" class="edge">
<title>3&#45;&gt;1</title>
<path fill="none" stroke="#c0c0c0" stroke-width="2" d="M51.5,-143.8314C51.5,-136.131 51.5,-126.9743 51.5,-118.4166"/>
<polygon fill="#c0c0c0" stroke="#c0c0c0" stroke-width="2" points="55.0001,-118.4132 51.5,-108.4133 48.0001,-118.4133 55.0001,-118.4132"/>
</g>
<!-- 3&#45;&gt;2 -->
<g id="edge4" class="edge">
<title>3&#45;&gt;2</title>
<path fill="none" stroke="#c0c0c0" stroke-width="2" d="M79.0053,-143.8314C92.818,-134.7074 109.7256,-123.539 124.5529,-113.7449"/>
<polygon fill="#c0c0c0" stroke="#c0c0c0" stroke-width="2" points="126.5886,-116.5949 133.0035,-108.1628 122.7304,-110.7541 126.5886,-116.5949"/>
</g>
<!-- 4 -->
<g id="node5" class="node">
<title>4</title>
<path fill="none" stroke="#59d856" stroke-width="2" d="M250,-180C250,-180 133,-180 133,-180 127,-180 121,-174 121,-168 121,-168 121,-156 121,-156 121,-150 127,-144 133,-144 133,-144 250,-144 250,-144 256,-144 262,-150 262,-156 262,-156 262,-168 262,-168 262,-174 256,-180 250,-180"/>
<text text-anchor="middle" x="191.5" y="-159.5" font-family="sans" font-size="10.00" fill="#000000">combine_individual_stats</text>
</g>
<!-- 4&#45;&gt;2 -->
<g id="edge5" class="edge">
<title>4&#45;&gt;2</title>
<path fill="none" stroke="#c0c0c0" stroke-width="2" d="M183.6774,-143.8314C180.2891,-135.9617 176.2459,-126.5712 172.4924,-117.8533"/>
<polygon fill="#c0c0c0" stroke="#c0c0c0" stroke-width="2" points="175.5973,-116.214 168.4279,-108.4133 169.1679,-118.9822 175.5973,-116.214"/>
</g>
<!-- 5 -->
<g id="node6" class="node">
<title>5</title>
<path fill="none" stroke="#d85656" stroke-width="2" d="M217.5,-252C217.5,-252 165.5,-252 165.5,-252 159.5,-252 153.5,-246 153.5,-240 153.5,-240 153.5,-228 153.5,-228 153.5,-222 159.5,-216 165.5,-216 165.5,-216 217.5,-216 217.5,-216 223.5,-216 229.5,-222 229.5,-228 229.5,-228 229.5,-240 229.5,-240 229.5,-246 223.5,-252 217.5,-252"/>
<text text-anchor="middle" x="191.5" y="-231.5" font-family="sans" font-size="10.00" fill="#000000">count_reads</text>
</g>
<!-- 5&#45;&gt;4 -->
<g id="edge6" class="edge">
<title>5&#45;&gt;4</title>
<path fill="none" stroke="#c0c0c0" stroke-width="2" d="M191.5,-215.8314C191.5,-208.131 191.5,-198.9743 191.5,-190.4166"/>
<polygon fill="#c0c0c0" stroke="#c0c0c0" stroke-width="2" points="195.0001,-190.4132 191.5,-180.4133 188.0001,-190.4133 195.0001,-190.4132"/>
</g>
<!-- 6 -->
<g id="node7" class="node">
<title>6</title>
<path fill="none" stroke="#56d89a" stroke-width="2" d="M225,-324C225,-324 158,-324 158,-324 152,-324 146,-318 146,-312 146,-312 146,-300 146,-300 146,-294 152,-288 158,-288 158,-288 225,-288 225,-288 231,-288 237,-294 237,-300 237,-300 237,-312 237,-312 237,-318 231,-324 225,-324"/>
<text text-anchor="middle" x="191.5" y="-303.5" font-family="sans" font-size="10.00" fill="#000000">combine_reads</text>
</g>
<!-- 6&#45;&gt;5 -->
<g id="edge7" class="edge">
<title>6&#45;&gt;5</title>
<path fill="none" stroke="#c0c0c0" stroke-width="2" d="M191.5,-287.8314C191.5,-280.131 191.5,-270.9743 191.5,-262.4166"/>
<polygon fill="#c0c0c0" stroke="#c0c0c0" stroke-width="2" points="195.0001,-262.4132 191.5,-252.4133 188.0001,-262.4133 195.0001,-262.4132"/>
</g>
<!-- 7 -->
<g id="node8" class="node">
<title>7</title>
<path fill="none" stroke="#d6d856" stroke-width="2" d="M222,-396C222,-396 161,-396 161,-396 155,-396 149,-390 149,-384 149,-384 149,-372 149,-372 149,-366 155,-360 161,-360 161,-360 222,-360 222,-360 228,-360 234,-366 234,-372 234,-372 234,-384 234,-384 234,-390 228,-396 222,-396"/>
<text text-anchor="middle" x="191.5" y="-375.5" font-family="sans" font-size="10.00" fill="#000000">trim_adaptors</text>
</g>
<!-- 7&#45;&gt;6 -->
<g id="edge8" class="edge">
<title>7&#45;&gt;6</title>
<path fill="none" stroke="#c0c0c0" stroke-width="2" d="M191.5,-359.8314C191.5,-352.131 191.5,-342.9743 191.5,-334.4166"/>
<polygon fill="#c0c0c0" stroke="#c0c0c0" stroke-width="2" points="195.0001,-334.4132 191.5,-324.4133 188.0001,-334.4133 195.0001,-334.4132"/>
</g>
</g>
</svg>
