<?xml version="1.0" encoding="UTF-8" standalone="no"?>
<!DOCTYPE svg PUBLIC "-//W3C//DTD SVG 1.1//EN"
 "http://www.w3.org/Graphics/SVG/1.1/DTD/svg11.dtd">
<!-- Generated by graphviz version 2.40.1 (20161225.0304)
 -->
<!-- Title: snakemake_dag Pages: 1 -->
<svg width="360pt" height="692pt"
 viewBox="0.00 0.00 360.00 692.00" xmlns="http://www.w3.org/2000/svg" xmlns:xlink="http://www.w3.org/1999/xlink">
<g id="graph0" class="graph" transform="scale(1 1) rotate(0) translate(4 688)">
<title>snakemake_dag</title>
<polygon fill="#ffffff" stroke="transparent" points="-4,4 -4,-688 356,-688 356,4 -4,4"/>
<!-- 0 -->
<g id="node1" class="node">
<title>0</title>
<path fill="none" stroke="#567bd8" stroke-width="2" d="M144,-36C144,-36 114,-36 114,-36 108,-36 102,-30 102,-24 102,-24 102,-12 102,-12 102,-6 108,0 114,0 114,0 144,0 144,0 150,0 156,-6 156,-12 156,-12 156,-24 156,-24 156,-30 150,-36 144,-36"/>
<text text-anchor="middle" x="129" y="-15.5" font-family="sans" font-size="10.00" fill="#000000">target</text>
</g>
<!-- 1 -->
<g id="node2" class="node">
<title>1</title>
<path fill="none" stroke="#ced856" stroke-width="2" d="M188,-108C188,-108 138,-108 138,-108 132,-108 126,-102 126,-96 126,-96 126,-84 126,-84 126,-78 132,-72 138,-72 138,-72 188,-72 188,-72 194,-72 200,-78 200,-84 200,-84 200,-96 200,-96 200,-102 194,-108 188,-108"/>
<text text-anchor="middle" x="163" y="-87.5" font-family="sans" font-size="10.00" fill="#000000">populations</text>
</g>
<!-- 1&#45;&gt;0 -->
<g id="edge1" class="edge">
<title>1&#45;&gt;0</title>
<path fill="none" stroke="#c0c0c0" stroke-width="2" d="M154.4204,-71.8314C150.6642,-63.8771 146.1743,-54.369 142.0202,-45.5723"/>
<polygon fill="#c0c0c0" stroke="#c0c0c0" stroke-width="2" points="145.1301,-43.9612 137.6952,-36.4133 138.8004,-46.9503 145.1301,-43.9612"/>
</g>
<!-- 2 -->
<g id="node3" class="node">
<title>2</title>
<path fill="none" stroke="#88d856" stroke-width="2" d="M152,-468C152,-468 12,-468 12,-468 6,-468 0,-462 0,-456 0,-456 0,-444 0,-444 0,-438 6,-432 12,-432 12,-432 152,-432 152,-432 158,-432 164,-438 164,-444 164,-444 164,-456 164,-456 164,-462 158,-468 152,-468"/>
<text text-anchor="middle" x="82" y="-447.5" font-family="sans" font-size="10.00" fill="#000000">individual_covstats_combined</text>
</g>
<!-- 2&#45;&gt;0 -->
<g id="edge2" class="edge">
<title>2&#45;&gt;0</title>
<path fill="none" stroke="#c0c0c0" stroke-width="2" d="M84.6936,-431.862C88.5014,-404.6061 95,-351.434 95,-306 95,-306 95,-306 95,-162 95,-120.8199 108.3332,-74.7455 118.3005,-46.0555"/>
<polygon fill="#c0c0c0" stroke="#c0c0c0" stroke-width="2" points="121.7129,-46.9079 121.7895,-36.3133 115.1227,-44.5477 121.7129,-46.9079"/>
</g>
<!-- 3 -->
<g id="node4" class="node">
<title>3</title>
<path fill="none" stroke="#56d88a" stroke-width="2" d="M300.5,-180C300.5,-180 203.5,-180 203.5,-180 197.5,-180 191.5,-174 191.5,-168 191.5,-168 191.5,-156 191.5,-156 191.5,-150 197.5,-144 203.5,-144 203.5,-144 300.5,-144 300.5,-144 306.5,-144 312.5,-150 312.5,-156 312.5,-156 312.5,-168 312.5,-168 312.5,-174 306.5,-180 300.5,-180"/>
<text text-anchor="middle" x="252" y="-159.5" font-family="sans" font-size="10.00" fill="#000000">integrate_alignments</text>
</g>
<!-- 3&#45;&gt;1 -->
<g id="edge3" class="edge">
<title>3&#45;&gt;1</title>
<path fill="none" stroke="#c0c0c0" stroke-width="2" d="M229.5415,-143.8314C218.5795,-134.9632 205.2301,-124.1637 193.3735,-114.5718"/>
<polygon fill="#c0c0c0" stroke="#c0c0c0" stroke-width="2" points="195.4271,-111.7313 185.4513,-108.1628 191.0245,-117.1734 195.4271,-111.7313"/>
</g>
<!-- 4 -->
<g id="node5" class="node">
<title>4</title>
<path fill="none" stroke="#56d8a9" stroke-width="2" d="M225,-396C225,-396 195,-396 195,-396 189,-396 183,-390 183,-384 183,-384 183,-372 183,-372 183,-366 189,-360 195,-360 195,-360 225,-360 225,-360 231,-360 237,-366 237,-372 237,-372 237,-384 237,-384 237,-390 231,-396 225,-396"/>
<text text-anchor="middle" x="210" y="-375.5" font-family="sans" font-size="10.00" fill="#000000">gstacks</text>
</g>
<!-- 4&#45;&gt;1 -->
<g id="edge4" class="edge">
<title>4&#45;&gt;1</title>
<path fill="none" stroke="#c0c0c0" stroke-width="2" d="M207.0599,-359.9843C199.1139,-311.2939 177.1646,-176.7961 167.5788,-118.0573"/>
<polygon fill="#c0c0c0" stroke="#c0c0c0" stroke-width="2" points="171.004,-117.3146 165.9389,-108.0089 164.0954,-118.4421 171.004,-117.3146"/>
</g>
<!-- 4&#45;&gt;3 -->
<g id="edge6" class="edge">
<title>4&#45;&gt;3</title>
<path fill="none" stroke="#c0c0c0" stroke-width="2" d="M212.1337,-359.8749C215.85,-329.7719 224.2519,-267.663 236,-216 237.9422,-207.4592 240.4842,-198.2837 242.9685,-189.9635"/>
<polygon fill="#c0c0c0" stroke="#c0c0c0" stroke-width="2" points="246.3342,-190.9259 245.9259,-180.3389 239.643,-188.8698 246.3342,-190.9259"/>
</g>
<!-- 9 -->
<g id="node10" class="node">
<title>9</title>
<path fill="none" stroke="#d8bc56" stroke-width="2" d="M340,-324C340,-324 248,-324 248,-324 242,-324 236,-318 236,-312 236,-312 236,-300 236,-300 236,-294 242,-288 248,-288 248,-288 340,-288 340,-288 346,-288 352,-294 352,-300 352,-300 352,-312 352,-312 352,-318 346,-324 340,-324"/>
<text text-anchor="middle" x="294" y="-303.5" font-family="sans" font-size="10.00" fill="#000000">map_stacks_catalog</text>
</g>
<!-- 4&#45;&gt;9 -->
<g id="edge12" class="edge">
<title>4&#45;&gt;9</title>
<path fill="none" stroke="#c0c0c0" stroke-width="2" d="M231.1967,-359.8314C241.4434,-351.0485 253.9003,-340.3712 265.0097,-330.8489"/>
<polygon fill="#c0c0c0" stroke="#c0c0c0" stroke-width="2" points="267.4952,-333.3282 272.81,-324.1628 262.9397,-328.0134 267.4952,-333.3282"/>
</g>
<!-- 5 -->
<g id="node6" class="node">
<title>5</title>
<path fill="none" stroke="#56d86b" stroke-width="2" d="M146.5,-612C146.5,-612 59.5,-612 59.5,-612 53.5,-612 47.5,-606 47.5,-600 47.5,-600 47.5,-588 47.5,-588 47.5,-582 53.5,-576 59.5,-576 59.5,-576 146.5,-576 146.5,-576 152.5,-576 158.5,-582 158.5,-588 158.5,-588 158.5,-600 158.5,-600 158.5,-606 152.5,-612 146.5,-612"/>
<text text-anchor="middle" x="103" y="-591.5" font-family="sans" font-size="10.00" fill="#000000">individual_covstats</text>
</g>
<!-- 5&#45;&gt;2 -->
<g id="edge5" class="edge">
<title>5&#45;&gt;2</title>
<path fill="none" stroke="#c0c0c0" stroke-width="2" d="M100.3403,-575.7623C96.7585,-551.201 90.3486,-507.2474 86.135,-478.3541"/>
<polygon fill="#c0c0c0" stroke="#c0c0c0" stroke-width="2" points="89.5446,-477.4798 84.6381,-468.0896 82.6179,-478.4901 89.5446,-477.4798"/>
</g>
<!-- 6 -->
<g id="node7" class="node">
<title>6</title>
<path fill="none" stroke="#68d856" stroke-width="2" d="M313,-252C313,-252 257,-252 257,-252 251,-252 245,-246 245,-240 245,-240 245,-228 245,-228 245,-222 251,-216 257,-216 257,-216 313,-216 313,-216 319,-216 325,-222 325,-228 325,-228 325,-240 325,-240 325,-246 319,-252 313,-252"/>
<text text-anchor="middle" x="285" y="-231.5" font-family="sans" font-size="10.00" fill="#000000">sam_to_bam</text>
</g>
<!-- 6&#45;&gt;3 -->
<g id="edge7" class="edge">
<title>6&#45;&gt;3</title>
<path fill="none" stroke="#c0c0c0" stroke-width="2" d="M276.6727,-215.8314C273.027,-207.8771 268.6691,-198.369 264.6373,-189.5723"/>
<polygon fill="#c0c0c0" stroke="#c0c0c0" stroke-width="2" points="267.7877,-188.0456 260.4394,-180.4133 261.4243,-190.9622 267.7877,-188.0456"/>
</g>
<!-- 7 -->
<g id="node8" class="node">
<title>7</title>
<path fill="none" stroke="#569ad8" stroke-width="2" d="M229.5,-468C229.5,-468 194.5,-468 194.5,-468 188.5,-468 182.5,-462 182.5,-456 182.5,-456 182.5,-444 182.5,-444 182.5,-438 188.5,-432 194.5,-432 194.5,-432 229.5,-432 229.5,-432 235.5,-432 241.5,-438 241.5,-444 241.5,-444 241.5,-456 241.5,-456 241.5,-462 235.5,-468 229.5,-468"/>
<text text-anchor="middle" x="212" y="-447.5" font-family="sans" font-size="10.00" fill="#000000">tsv2bam</text>
</g>
<!-- 7&#45;&gt;4 -->
<g id="edge8" class="edge">
<title>7&#45;&gt;4</title>
<path fill="none" stroke="#c0c0c0" stroke-width="2" d="M211.4953,-431.8314C211.2814,-424.131 211.0271,-414.9743 210.7894,-406.4166"/>
<polygon fill="#c0c0c0" stroke="#c0c0c0" stroke-width="2" points="214.2879,-406.3122 210.5115,-396.4133 207.2906,-406.5066 214.2879,-406.3122"/>
</g>
<!-- 8 -->
<g id="node9" class="node">
<title>8</title>
<path fill="none" stroke="#56d8d0" stroke-width="2" d="M168,-684C168,-684 138,-684 138,-684 132,-684 126,-678 126,-672 126,-672 126,-660 126,-660 126,-654 132,-648 138,-648 138,-648 168,-648 168,-648 174,-648 180,-654 180,-660 180,-660 180,-672 180,-672 180,-678 174,-684 168,-684"/>
<text text-anchor="middle" x="153" y="-663.5" font-family="sans" font-size="10.00" fill="#000000">ustacks</text>
</g>
<!-- 8&#45;&gt;5 -->
<g id="edge9" class="edge">
<title>8&#45;&gt;5</title>
<path fill="none" stroke="#c0c0c0" stroke-width="2" d="M140.3829,-647.8314C134.6828,-639.6232 127.8337,-629.7606 121.5641,-620.7323"/>
<polygon fill="#c0c0c0" stroke="#c0c0c0" stroke-width="2" points="124.3658,-618.6306 115.787,-612.4133 118.6162,-622.6234 124.3658,-618.6306"/>
</g>
<!-- 12 -->
<g id="node13" class="node">
<title>12</title>
<path fill="none" stroke="#d85656" stroke-width="2" d="M223,-612C223,-612 193,-612 193,-612 187,-612 181,-606 181,-600 181,-600 181,-588 181,-588 181,-582 187,-576 193,-576 193,-576 223,-576 223,-576 229,-576 235,-582 235,-588 235,-588 235,-600 235,-600 235,-606 229,-612 223,-612"/>
<text text-anchor="middle" x="208" y="-591.5" font-family="sans" font-size="10.00" fill="#000000">cstacks</text>
</g>
<!-- 8&#45;&gt;12 -->
<g id="edge15" class="edge">
<title>8&#45;&gt;12</title>
<path fill="none" stroke="#c0c0c0" stroke-width="2" d="M166.8788,-647.8314C173.2136,-639.5386 180.8384,-629.557 187.7926,-620.4533"/>
<polygon fill="#c0c0c0" stroke="#c0c0c0" stroke-width="2" points="190.6452,-622.4847 193.9343,-612.4133 185.0825,-618.2353 190.6452,-622.4847"/>
</g>
<!-- 9&#45;&gt;6 -->
<g id="edge10" class="edge">
<title>9&#45;&gt;6</title>
<path fill="none" stroke="#c0c0c0" stroke-width="2" d="M291.7289,-287.8314C290.7664,-280.131 289.6218,-270.9743 288.5521,-262.4166"/>
<polygon fill="#c0c0c0" stroke="#c0c0c0" stroke-width="2" points="292.0151,-261.9019 287.3017,-252.4133 285.0691,-262.7702 292.0151,-261.9019"/>
</g>
<!-- 10 -->
<g id="node11" class="node">
<title>10</title>
<path fill="none" stroke="#56c1d8" stroke-width="2" d="M225,-540C225,-540 195,-540 195,-540 189,-540 183,-534 183,-528 183,-528 183,-516 183,-516 183,-510 189,-504 195,-504 195,-504 225,-504 225,-504 231,-504 237,-510 237,-516 237,-516 237,-528 237,-528 237,-534 231,-540 225,-540"/>
<text text-anchor="middle" x="210" y="-519.5" font-family="sans" font-size="10.00" fill="#000000">sstacks</text>
</g>
<!-- 10&#45;&gt;7 -->
<g id="edge11" class="edge">
<title>10&#45;&gt;7</title>
<path fill="none" stroke="#c0c0c0" stroke-width="2" d="M210.5047,-503.8314C210.7186,-496.131 210.9729,-486.9743 211.2106,-478.4166"/>
<polygon fill="#c0c0c0" stroke="#c0c0c0" stroke-width="2" points="214.7094,-478.5066 211.4885,-468.4133 207.7121,-478.3122 214.7094,-478.5066"/>
</g>
<!-- 11 -->
<g id="node12" class="node">
<title>11</title>
<path fill="none" stroke="#afd856" stroke-width="2" d="M316.5,-396C316.5,-396 271.5,-396 271.5,-396 265.5,-396 259.5,-390 259.5,-384 259.5,-384 259.5,-372 259.5,-372 259.5,-366 265.5,-360 271.5,-360 271.5,-360 316.5,-360 316.5,-360 322.5,-360 328.5,-366 328.5,-372 328.5,-372 328.5,-384 328.5,-384 328.5,-390 322.5,-396 316.5,-396"/>
<text text-anchor="middle" x="294" y="-375.5" font-family="sans" font-size="10.00" fill="#000000">bwa_index</text>
</g>
<!-- 11&#45;&gt;9 -->
<g id="edge13" class="edge">
<title>11&#45;&gt;9</title>
<path fill="none" stroke="#c0c0c0" stroke-width="2" d="M294,-359.8314C294,-352.131 294,-342.9743 294,-334.4166"/>
<polygon fill="#c0c0c0" stroke="#c0c0c0" stroke-width="2" points="297.5001,-334.4132 294,-324.4133 290.5001,-334.4133 297.5001,-334.4132"/>
</g>
<!-- 12&#45;&gt;10 -->
<g id="edge14" class="edge">
<title>12&#45;&gt;10</title>
<path fill="none" stroke="#c0c0c0" stroke-width="2" d="M208.5047,-575.8314C208.7186,-568.131 208.9729,-558.9743 209.2106,-550.4166"/>
<polygon fill="#c0c0c0" stroke="#c0c0c0" stroke-width="2" points="212.7094,-550.5066 209.4885,-540.4133 205.7121,-550.3122 212.7094,-550.5066"/>
</g>
</g>
</svg>
