<?xml version="1.0" encoding="UTF-8" standalone="no"?>
<!DOCTYPE svg PUBLIC "-//W3C//DTD SVG 1.1//EN"
 "http://www.w3.org/Graphics/SVG/1.1/DTD/svg11.dtd">
<!-- Generated by graphviz version 2.40.1 (20161225.0304)
 -->
<!-- Title: snakemake_dag Pages: 1 -->
<svg width="108pt" height="476pt"
 viewBox="0.00 0.00 108.00 476.00" xmlns="http://www.w3.org/2000/svg" xmlns:xlink="http://www.w3.org/1999/xlink">
<g id="graph0" class="graph" transform="scale(1 1) rotate(0) translate(4 472)">
<title>snakemake_dag</title>
<polygon fill="#ffffff" stroke="transparent" points="-4,4 -4,-472 104,-472 104,4 -4,4"/>
<!-- 0 -->
<g id="node1" class="node">
<title>0</title>
<path fill="none" stroke="#afd856" stroke-width="2" d="M65,-36C65,-36 35,-36 35,-36 29,-36 23,-30 23,-24 23,-24 23,-12 23,-12 23,-6 29,0 35,0 35,0 65,0 65,0 71,0 77,-6 77,-12 77,-12 77,-24 77,-24 77,-30 71,-36 65,-36"/>
<text text-anchor="middle" x="50" y="-15.5" font-family="sans" font-size="10.00" fill="#000000">target</text>
</g>
<!-- 1 -->
<g id="node2" class="node">
<title>1</title>
<path fill="none" stroke="#56c9d8" stroke-width="2" d="M75,-108C75,-108 25,-108 25,-108 19,-108 13,-102 13,-96 13,-96 13,-84 13,-84 13,-78 19,-72 25,-72 25,-72 75,-72 75,-72 81,-72 87,-78 87,-84 87,-84 87,-96 87,-96 87,-102 81,-108 75,-108"/>
<text text-anchor="middle" x="50" y="-87.5" font-family="sans" font-size="10.00" fill="#000000">populations</text>
</g>
<!-- 1&#45;&gt;0 -->
<g id="edge1" class="edge">
<title>1&#45;&gt;0</title>
<path fill="none" stroke="#c0c0c0" stroke-width="2" d="M50,-71.8314C50,-64.131 50,-54.9743 50,-46.4166"/>
<polygon fill="#c0c0c0" stroke="#c0c0c0" stroke-width="2" points="53.5001,-46.4132 50,-36.4133 46.5001,-46.4133 53.5001,-46.4132"/>
</g>
<!-- 2 -->
<g id="node3" class="node">
<title>2</title>
<path fill="none" stroke="#d8cb56" stroke-width="2" d="M65,-180C65,-180 35,-180 35,-180 29,-180 23,-174 23,-168 23,-168 23,-156 23,-156 23,-150 29,-144 35,-144 35,-144 65,-144 65,-144 71,-144 77,-150 77,-156 77,-156 77,-168 77,-168 77,-174 71,-180 65,-180"/>
<text text-anchor="middle" x="50" y="-159.5" font-family="sans" font-size="10.00" fill="#000000">gstacks</text>
</g>
<!-- 2&#45;&gt;1 -->
<g id="edge2" class="edge">
<title>2&#45;&gt;1</title>
<path fill="none" stroke="#c0c0c0" stroke-width="2" d="M50,-143.8314C50,-136.131 50,-126.9743 50,-118.4166"/>
<polygon fill="#c0c0c0" stroke="#c0c0c0" stroke-width="2" points="53.5001,-118.4132 50,-108.4133 46.5001,-118.4133 53.5001,-118.4132"/>
</g>
<!-- 3 -->
<g id="node4" class="node">
<title>3</title>
<path fill="none" stroke="#d85656" stroke-width="2" d="M68,-252C68,-252 32,-252 32,-252 26,-252 20,-246 20,-240 20,-240 20,-228 20,-228 20,-222 26,-216 32,-216 32,-216 68,-216 68,-216 74,-216 80,-222 80,-228 80,-228 80,-240 80,-240 80,-246 74,-252 68,-252"/>
<text text-anchor="middle" x="50" y="-231.5" font-family="sans" font-size="10.00" fill="#000000">markdup</text>
</g>
<!-- 3&#45;&gt;2 -->
<g id="edge3" class="edge">
<title>3&#45;&gt;2</title>
<path fill="none" stroke="#c0c0c0" stroke-width="2" d="M50,-215.8314C50,-208.131 50,-198.9743 50,-190.4166"/>
<polygon fill="#c0c0c0" stroke="#c0c0c0" stroke-width="2" points="53.5001,-190.4132 50,-180.4133 46.5001,-190.4133 53.5001,-190.4132"/>
</g>
<!-- 4 -->
<g id="node5" class="node">
<title>4</title>
<path fill="none" stroke="#70d856" stroke-width="2" d="M69,-324C69,-324 31,-324 31,-324 25,-324 19,-318 19,-312 19,-312 19,-300 19,-300 19,-294 25,-288 31,-288 31,-288 69,-288 69,-288 75,-288 81,-294 81,-300 81,-300 81,-312 81,-312 81,-318 75,-324 69,-324"/>
<text text-anchor="middle" x="50" y="-303.5" font-family="sans" font-size="10.00" fill="#000000">sort_sam</text>
</g>
<!-- 4&#45;&gt;3 -->
<g id="edge4" class="edge">
<title>4&#45;&gt;3</title>
<path fill="none" stroke="#c0c0c0" stroke-width="2" d="M50,-287.8314C50,-280.131 50,-270.9743 50,-262.4166"/>
<polygon fill="#c0c0c0" stroke="#c0c0c0" stroke-width="2" points="53.5001,-262.4132 50,-252.4133 46.5001,-262.4133 53.5001,-262.4132"/>
</g>
<!-- 5 -->
<g id="node6" class="node">
<title>5</title>
<path fill="none" stroke="#56d8a9" stroke-width="2" d="M88,-396C88,-396 12,-396 12,-396 6,-396 0,-390 0,-384 0,-384 0,-372 0,-372 0,-366 6,-360 12,-360 12,-360 88,-360 88,-360 94,-360 100,-366 100,-372 100,-372 100,-384 100,-384 100,-390 94,-396 88,-396"/>
<text text-anchor="middle" x="50" y="-375.5" font-family="sans" font-size="10.00" fill="#000000">map_indiv_reads</text>
</g>
<!-- 5&#45;&gt;4 -->
<g id="edge5" class="edge">
<title>5&#45;&gt;4</title>
<path fill="none" stroke="#c0c0c0" stroke-width="2" d="M50,-359.8314C50,-352.131 50,-342.9743 50,-334.4166"/>
<polygon fill="#c0c0c0" stroke="#c0c0c0" stroke-width="2" points="53.5001,-334.4132 50,-324.4133 46.5001,-334.4133 53.5001,-334.4132"/>
</g>
<!-- 6 -->
<g id="node7" class="node">
<title>6</title>
<path fill="none" stroke="#5692d8" stroke-width="2" d="M72.5,-468C72.5,-468 27.5,-468 27.5,-468 21.5,-468 15.5,-462 15.5,-456 15.5,-456 15.5,-444 15.5,-444 15.5,-438 21.5,-432 27.5,-432 27.5,-432 72.5,-432 72.5,-432 78.5,-432 84.5,-438 84.5,-444 84.5,-444 84.5,-456 84.5,-456 84.5,-462 78.5,-468 72.5,-468"/>
<text text-anchor="middle" x="50" y="-447.5" font-family="sans" font-size="10.00" fill="#000000">bwa_index</text>
</g>
<!-- 6&#45;&gt;5 -->
<g id="edge6" class="edge">
<title>6&#45;&gt;5</title>
<path fill="none" stroke="#c0c0c0" stroke-width="2" d="M50,-431.8314C50,-424.131 50,-414.9743 50,-406.4166"/>
<polygon fill="#c0c0c0" stroke="#c0c0c0" stroke-width="2" points="53.5001,-406.4132 50,-396.4133 46.5001,-406.4133 53.5001,-406.4132"/>
</g>
</g>
</svg>
